<svg xmlns="http://www.w3.org/2000/svg" viewBox="0 0 101.52 181.5"><defs><style>.cls-1{isolation:isolate;}.cls-2{opacity:0.3;mix-blend-mode:multiply;}.cls-3{fill:#fff;}.cls-4{fill:#f00000;}.cls-5{fill:#ffc832;}.cls-6{fill:#228b22;}.cls-7{fill:#8f8fff;}</style></defs><title>automatizacion</title><g class="cls-1"><g id="Capa_2" data-name="Capa 2"><g id="iconos"><g id="automatizacion"><g class="cls-2"><path d="M53.07,174.32c-13.13,11.82-29.95,8.94-41.38-7.75C-7.43,138.65,14.28,39.08,21.24,9.78a8.82,8.82,0,0,1,10.2-6.63L94.32,14.92A8.82,8.82,0,0,1,101.4,25C96.51,54.46,78.77,151.18,53.07,174.32Z"/><rect x="25.12" y="39.44" width="12.38" height="17.33" rx="3.6" transform="translate(-21.73 70.04) rotate(-79.4)"/><rect x="48.32" y="43.78" width="12.38" height="17.33" rx="3.6" transform="translate(-7.07 96.37) rotate(-79.4)"/><rect x="71.51" y="48.11" width="12.38" height="17.33" rx="3.6" transform="matrix(0.18, -0.98, 0.98, 0.18, 7.59, 122.71)"/><rect x="21.58" y="59.14" width="12.38" height="17.33" rx="3.6" transform="translate(-43.99 82.63) rotate(-79.4)"/><rect x="44.77" y="63.48" width="12.38" height="17.33" rx="3.6" transform="translate(-29.33 108.97) rotate(-79.4)"/><rect x="67.96" y="67.82" width="12.38" height="17.33" rx="3.6" transform="translate(-14.66 135.3) rotate(-79.4)"/><rect x="18.03" y="78.84" width="12.38" height="17.33" rx="3.6" transform="translate(-66.25 95.22) rotate(-79.4)"/><rect x="41.22" y="83.18" width="12.38" height="17.33" rx="3.6" transform="translate(-51.59 121.56) rotate(-79.4)"/><rect x="64.41" y="87.52" width="12.38" height="17.33" rx="3.6" transform="translate(-36.92 147.9) rotate(-79.4)"/><circle cx="34.73" cy="26.86" r="8.67"/><path d="M43.94,128.94l8.13-5.57a1.44,1.44,0,0,0,.17-2.24,19.52,19.52,0,0,0-21.34-3.62,1.44,1.44,0,0,0-.6,2.13l5.49,8a1.44,1.44,0,0,0,1.48.6,7,7,0,0,1,2.92-.06,7.3,7.3,0,0,1,2.2.79A1.45,1.45,0,0,0,43.94,128.94Z"/><path d="M32.28,130.6l-5.63-8.22a1.44,1.44,0,0,0-2.26-.15,19.53,19.53,0,0,0-3.61,20.44,1.44,1.44,0,0,0,2.15.65l8.13-5.56a1.47,1.47,0,0,0,.61-1.44,7,7,0,0,1,0-2.33,7.53,7.53,0,0,1,.64-1.91A1.45,1.45,0,0,0,32.28,130.6Z"/><path d="M44.9,141l5.49,8a1.43,1.43,0,0,0,2.2.2,19.52,19.52,0,0,0,4.24-21.45,1.44,1.44,0,0,0-2.14-.62l-8.08,5.53A1.43,1.43,0,0,0,46,134a7.18,7.18,0,0,1-1.11,5.33A1.4,1.4,0,0,0,44.9,141Z"/><path d="M33.54,141.58l-8.07,5.53a1.44,1.44,0,0,0-.19,2.22,19.53,19.53,0,0,0,20.56,4.22,1.44,1.44,0,0,0,.67-2.16l-5.62-8.22a1.45,1.45,0,0,0-1.35-.61,7.65,7.65,0,0,1-2-.09,7.28,7.28,0,0,1-2.45-.95A1.44,1.44,0,0,0,33.54,141.58Z"/><circle cx="38.86" cy="135.33" r="4.56"/></g><path d="M49.07,171.32c-13.13,11.82-29.95,8.94-41.38-7.75C-11.43,135.65,10.28,36.08,17.24,6.78A8.82,8.82,0,0,1,27.44.15L90.32,11.92A8.82,8.82,0,0,1,97.4,22C92.51,51.46,74.77,148.18,49.07,171.32Z"/><rect class="cls-3" x="21.12" y="36.44" width="12.38" height="17.33" rx="3.6" transform="translate(-22.04 63.66) rotate(-79.4)"/><rect class="cls-3" x="44.32" y="40.78" width="12.38" height="17.33" rx="3.6" transform="translate(-7.38 89.99) rotate(-79.4)"/><rect class="cls-3" x="67.51" y="45.11" width="12.38" height="17.33" rx="3.6" transform="translate(7.28 116.33) rotate(-79.4)"/><rect class="cls-3" x="17.58" y="56.14" width="12.38" height="17.33" rx="3.6" transform="translate(-44.3 76.25) rotate(-79.4)"/><rect class="cls-3" x="40.77" y="60.48" width="12.38" height="17.33" rx="3.6" transform="translate(-29.64 102.59) rotate(-79.4)"/><rect class="cls-3" x="63.96" y="64.82" width="12.38" height="17.33" rx="3.6" transform="translate(-14.98 128.92) rotate(-79.4)"/><rect class="cls-3" x="14.03" y="75.84" width="12.38" height="17.33" rx="3.6" transform="translate(-66.56 88.84) rotate(-79.4)"/><rect class="cls-3" x="37.22" y="80.18" width="12.38" height="17.33" rx="3.6" transform="translate(-51.9 115.18) rotate(-79.4)"/><rect class="cls-3" x="60.41" y="84.52" width="12.38" height="17.33" rx="3.6" transform="translate(-37.24 141.52) rotate(-79.4)"/><circle class="cls-4" cx="30.73" cy="23.86" r="8.67"/><path class="cls-5" d="M39.94,125.94l8.13-5.57a1.44,1.44,0,0,0,.17-2.24,19.52,19.52,0,0,0-21.34-3.62,1.44,1.44,0,0,0-.6,2.13l5.49,8a1.44,1.44,0,0,0,1.48.6,7,7,0,0,1,2.92-.06,7.3,7.3,0,0,1,2.2.79A1.45,1.45,0,0,0,39.94,125.94Z"/><path class="cls-6" d="M28.28,127.6l-5.63-8.22a1.44,1.44,0,0,0-2.26-.15,19.53,19.53,0,0,0-3.61,20.44,1.44,1.44,0,0,0,2.15.65l8.13-5.56a1.47,1.47,0,0,0,.61-1.44,7,7,0,0,1,0-2.33,7.53,7.53,0,0,1,.64-1.91A1.45,1.45,0,0,0,28.28,127.6Z"/><path class="cls-7" d="M40.9,138l5.49,8a1.43,1.43,0,0,0,2.2.2,19.52,19.52,0,0,0,4.24-21.45,1.44,1.44,0,0,0-2.14-.62l-8.08,5.53A1.43,1.43,0,0,0,42,131a7.18,7.18,0,0,1-1.11,5.33A1.4,1.4,0,0,0,40.9,138Z"/><path class="cls-4" d="M29.54,138.58l-8.07,5.53a1.44,1.44,0,0,0-.19,2.22,19.53,19.53,0,0,0,20.56,4.22,1.44,1.44,0,0,0,.67-2.16l-5.62-8.22a1.45,1.45,0,0,0-1.35-.61,7.65,7.65,0,0,1-2-.09,7.28,7.28,0,0,1-2.45-.95A1.44,1.44,0,0,0,29.54,138.58Z"/><circle cx="34.86" cy="132.33" r="4.56"/></g></g></g></g></svg>