<svg xmlns="http://www.w3.org/2000/svg" viewBox="0 0 18.88 18.96"><defs><style>.cls-1{fill:#62767f;}</style></defs><title>c3</title><g id="Capa_2" data-name="Capa 2"><g id="_1" data-name="1"><path class="cls-1" d="M10.13,19,13,18.3l-.13-2.19a7,7,0,0,0,1.28-.82l1.94,1L17.81,14l-1.49-1.58a7.57,7.57,0,0,0,.45-1.47l2.11-.47-.16-2.91-2.14-.25A7.49,7.49,0,0,0,16,5.84l1.3-1.7-.06-.06L15.28,2,13.49,3.19a8,8,0,0,0-1.4-.7L12,.35,9.09,0,8.48,2.07A7.73,7.73,0,0,0,7,2.43L5.51.84,3.06,2.43l.87,2A7.11,7.11,0,0,0,3,5.66L.85,5.38,0,8.17l2,1a7.51,7.51,0,0,0,.09,1.5L.21,11.84l1.14,2.68,1.1-.26,1-.25c.15.19.31.38.48.56s.36.36.55.53l-.66,2.11,2.6,1.32,1.32-1.78a7.49,7.49,0,0,0,1.49.18ZM6,12.64a3.79,3.79,0,0,1-.44-.55A4.65,4.65,0,0,1,12.84,6.3a4.07,4.07,0,0,1,.41.52A4.64,4.64,0,0,1,6,12.64Z"/></g></g></svg>