<svg xmlns="http://www.w3.org/2000/svg" viewBox="0 0 14.7 14.77"><defs><style>.cls-1{fill:#a4b5bc;}</style></defs><title>c4</title><g id="Capa_2" data-name="Capa 2"><g id="_1" data-name="1"><path class="cls-1" d="M7.89,14.77l2.21-.52-.1-1.7a5.77,5.77,0,0,0,1-.64l1.51.77,1.37-1.81L12.71,9.64a5.66,5.66,0,0,0,.35-1.15l1.64-.36-.12-2.27-1.67-.19a5.22,5.22,0,0,0-.47-1.12l1-1.32,0,0L11.9,1.57l-1.4.92a5.57,5.57,0,0,0-1.09-.55L9.34.27,7.08,0,6.6,1.61a5.87,5.87,0,0,0-1.17.28L4.29.65,2.38,1.89l.68,1.56a6.35,6.35,0,0,0-.71,1L.66,4.19,0,6.36l1.54.77A5.74,5.74,0,0,0,1.6,8.3L.16,9.22l.89,2.09.86-.2.82-.2a5,5,0,0,0,.37.43,5.66,5.66,0,0,0,.43.42L3,13.4l2,1,1-1.39a5.67,5.67,0,0,0,1.16.15ZM4.7,9.85a3.46,3.46,0,0,1-.34-.44A3.62,3.62,0,0,1,10,4.9a4.12,4.12,0,0,1,.32.41A3.62,3.62,0,0,1,4.7,9.85Z"/></g></g></svg>