<svg xmlns="http://www.w3.org/2000/svg" viewBox="0 0 30.68 30.78"><defs><style>.cls-1{fill:#62767f;}.cls-2{fill:#425862;}.cls-3{fill:#3e5057;}.cls-4{fill:#253438;}</style></defs><title>c5</title><g id="Capa_2" data-name="Capa 2"><g id="_1" data-name="1"><path class="cls-1" d="M25.88,9.23a11.71,11.71,0,0,0-1.51-2L25.79,4,21.84,1.39,19.44,4A12,12,0,0,0,17,3.37L16,0,11.32.52l-.21,3.54A12,12,0,0,0,8.9,5.17L6,3.19,2.69,6.61,4.83,9.48a12,12,0,0,0-1,2.24L.3,12.09,0,16.82l1.79.42,3.93-.55A9.79,9.79,0,1,1,25.12,14l5.52-.76L29.35,8.82Z"/><path class="cls-2" d="M24.29,28l-1-3.37A12.84,12.84,0,0,0,25,22.82l3.4.85,1.91-4.34-2.93-1.92a11.74,11.74,0,0,0,.16-2.52l3.13-1.52,0-.13L25.12,14A9.8,9.8,0,0,1,6,18.14a10.37,10.37,0,0,1-.3-1.45l-3.93.55,1.71.41c.08.38.17.76.28,1.15s.26.79.41,1.17L1.7,22.55l2.81,3.81,3.21-1.61a12.51,12.51,0,0,0,2,1.34L9.5,29.66l4.6,1.12,1.41-3.27A12.68,12.68,0,0,0,18,27.24l2.09,2.86Z"/><path class="cls-3" d="M12.67,6a9.78,9.78,0,0,0-6.95,10.7l2-.27a7.79,7.79,0,0,1,15.2-3.22,8.27,8.27,0,0,1,.22,1.08l2-.28A9.69,9.69,0,0,0,12.67,6Z"/><path class="cls-4" d="M25.12,14l-2,.28A7.79,7.79,0,0,1,8,17.58a7,7,0,0,1-.24-1.16l-2,.27A10.37,10.37,0,0,0,6,18.14,9.8,9.8,0,0,0,25.12,14Z"/></g></g></svg>