<svg xmlns="http://www.w3.org/2000/svg" viewBox="0 0 119.91 153.81"><defs><style>.cls-1{isolation:isolate;}.cls-2{fill:#f7b81f;}.cls-3{fill:#edf3f2;}.cls-4{fill:#d65a38;}.cls-5{fill:#d1a577;}.cls-13,.cls-5{opacity:0.65;}.cls-11,.cls-13,.cls-5{mix-blend-mode:multiply;}.cls-6{fill:#f57545;}.cls-7{fill:#56b9bf;}.cls-8{fill:#604d5d;}.cls-9{fill:#c1dad5;}.cls-10{fill:#4b3c48;}.cls-11{fill:#d68d60;}.cls-12{fill:#675263;}.cls-13{fill:#97abbd;}</style></defs><title>calibracion</title><g class="cls-1"><g id="Capa_2" data-name="Capa 2"><g id="iconos"><g id="calibracion"><rect class="cls-2" width="76.71" height="115.69"/><rect class="cls-3" x="10.82" y="11.91" width="54.13" height="34.65"/><path class="cls-4" d="M54.51,96.43a23.51,23.51,0,1,1,0-33.25A23.5,23.5,0,0,1,54.51,96.43Z"/><path class="cls-5" d="M76.71,85.38v30.31H40.53L21.27,96.43A23.5,23.5,0,0,0,54.51,63.19Z"/><path class="cls-6" d="M33.84,92.82a6.33,6.33,0,0,1-9,0h0a6.34,6.34,0,0,1,0-9L41.94,66.79a6.36,6.36,0,0,1,9,0h0a6.36,6.36,0,0,1,0,9Z"/><path class="cls-5" d="M54.51,96.43a23.45,23.45,0,0,1-19.3,6.73L24.88,92.82a6.34,6.34,0,0,0,9,0L50.9,75.76a6.35,6.35,0,0,0,0-9L61.24,77.13A23.46,23.46,0,0,1,54.51,96.43Z"/><path class="cls-6" d="M59.37,19.67l-3,9.56A59.64,59.64,0,0,0,50,27.64l1.66-9.88A69.66,69.66,0,0,1,59.37,19.67Z"/><path class="cls-7" d="M51.68,17.76,50,27.64a59.9,59.9,0,0,0-11.67-1.13,61.08,61.08,0,0,0-18,2.72l-3-9.56a71.57,71.57,0,0,1,34.35-1.91Z"/><polygon class="cls-8" points="35.26 38.99 36.4 43.27 40.21 41.11 46.84 18.84 35.26 38.99"/><path class="cls-9" d="M35.4,145H25a3.1,3.1,0,0,0,0,6.19H35.4Z"/><path class="cls-9" d="M35.4,128.32H25a3.1,3.1,0,0,0,0,6.2H35.4Z"/><path class="cls-4" d="M76.76,64.17h-.05v4.64h.05a38.51,38.51,0,0,1,0,77H59.37v4.64H76.76a43.15,43.15,0,0,0,0-86.3Z"/><path class="cls-10" d="M76.76,80.87h-.05v4.64h.05a21.81,21.81,0,0,1,0,43.62H59.37v4.64H76.76a26.45,26.45,0,0,0,0-52.9Z"/><path class="cls-11" d="M90.37,66.37,89.29,70.9a38.17,38.17,0,0,0-12.53-2.09h-.05V64.17h.05A42.89,42.89,0,0,1,90.37,66.37Z"/><path class="cls-11" d="M86.47,82.72l-1.1,4.57a21.5,21.5,0,0,0-8.61-1.78h-.05V80.87h.05A26.13,26.13,0,0,1,86.47,82.72Z"/><path class="cls-6" d="M35.4,142.44H54.55a5.69,5.69,0,0,1,0,11.37H35.4Z"/><path class="cls-12" d="M35.4,125.74H54.55a5.68,5.68,0,0,1,5.68,5.68,5.61,5.61,0,0,1-1.67,4,5.69,5.69,0,0,1-4,1.67H35.4Z"/><polygon class="cls-13" points="64.96 11.91 64.96 15.54 18.17 15.54 18.17 46.56 10.82 46.56 10.82 11.91 64.96 11.91"/><path class="cls-3" d="M20.57,55.52a4.95,4.95,0,1,1-5-5A4.95,4.95,0,0,1,20.57,55.52Z"/><path class="cls-10" d="M65,55.52a4.95,4.95,0,1,1-4.95-5A4.95,4.95,0,0,1,65,55.52Z"/></g></g></g></g></svg>