<svg xmlns="http://www.w3.org/2000/svg" viewBox="0 0 160.73 95.29"><defs><style>.cls-1{fill:#303e43;}.cls-2{fill:#dbac90;}.cls-3{fill:#e8bb95;}.cls-4{fill:#c89374;}.cls-5{fill:#d5a378;}.cls-6{fill:#e4f4ff;}.cls-7{fill:#62767f;}.cls-8{fill:#f9773d;}.cls-9{fill:#a4b5bc;}.cls-10{fill:#bdcdd6;}.cls-11{fill:#67787f;}.cls-12{fill:#889da7;}.cls-13{fill:#dba18f;}.cls-14{fill:#f9cfb3;}.cls-15{fill:#e6b494;}.cls-16{fill:#2a2722;}.cls-17{fill:#3d3b36;}.cls-18{fill:#4b616c;}.cls-19{fill:#455256;}.cls-20{fill:#ecbb1a;}.cls-21{fill:#c1c1c1;}.cls-22{fill:#d6d6d6;}.cls-23{fill:#7a7a7a;}.cls-24{fill:#fff;}.cls-25{fill:#adadad;}.cls-26{fill:#777;}.cls-27{fill:#f2f3f4;}</style></defs><title>capacitacionCover</title><g id="Capa_2" data-name="Capa 2"><g id="_1" data-name="1"><g id="_1-2" data-name="1"><rect class="cls-1" x="20.8" y="50.59" width="16.54" height="31.18"/><path class="cls-2" d="M26.64,45.9a6.25,6.25,0,0,1-1.19-1.11l3.67,4.9V46.32A3.92,3.92,0,0,1,26.64,45.9Z"/><path class="cls-3" d="M29.12,55.86h.05l-.05-6.17-3.67-4.9h0a17.56,17.56,0,0,1-1.2-1.6l-.79-1h0c-.34-.38-.71-.72-1.08-1.07v2.82A14.18,14.18,0,0,1,22,47.22c-.33,1.39-.74,3.17-.69,3.15l.06.14C23.13,53.69,25.94,55.78,29.12,55.86Z"/><path class="cls-4" d="M31.63,45.9a1.93,1.93,0,0,1-.56.27l-.19,0c-.14,0-.28.07-.43.09l-.27,0-.39,0-.34,0h-.33v3.37l4.16,5.07a11.11,11.11,0,0,0,4.08-4.38h0c.06,0-.49-2.66-.78-4.07a8.88,8.88,0,0,1-.2-1.71l-.08-3.92a14.88,14.88,0,0,0-2,2.06A11.48,11.48,0,0,1,31.63,45.9Z"/><path class="cls-5" d="M29.17,55.86h.24a6,6,0,0,0,.73,0h0a7.84,7.84,0,0,0,3.14-1.05h0l-4.16-5.07Z"/><g id="_1-3" data-name=" 1"><g id="_1-2-2" data-name=" 1-2"><polygon class="cls-1" points="37.36 50.38 41.05 51.11 52.55 59.88 34.98 77.02 27.26 65.02 37.36 50.38"/><g id="_8" data-name=" 8"><path class="cls-6" d="M151.79,0H68.4a8.93,8.93,0,0,0-8.93,8.92v59.8a8.93,8.93,0,0,0,8.93,8.92h83.39a8.93,8.93,0,0,0,8.94-8.92h0V8.92A8.93,8.93,0,0,0,151.79,0Z"/><path class="cls-7" d="M156,0H64.2c-2.62,0-4.73,2.62-4.73,5.84v66c0,3.22,2.11,5.84,4.73,5.84H156c2.61,0,4.73-2.62,4.73-5.84v-66C160.73,2.62,158.61,0,156,0Zm1.39,67.14c0,3.22-2.12,5.84-4.73,5.84H67.53c-2.61,0-4.73-2.62-4.73-5.84V8.4c0-3.23,2.12-5.84,4.73-5.84h85.13c2.61,0,4.73,2.61,4.73,5.84Z"/><path class="cls-8" d="M101.94,28.17a10.66,10.66,0,1,0,11.27,12H101.94Z"/><path class="cls-9" d="M103.47,28.18v10.5h9.83A10.66,10.66,0,0,0,103.47,28.18Z"/><rect class="cls-10" x="67.81" y="58.05" width="20.64" height="1.62"/><rect class="cls-10" x="67.81" y="60.77" width="20.64" height="1.62"/><rect class="cls-10" x="67.81" y="63.48" width="20.64" height="1.62"/><rect class="cls-10" x="67.81" y="66.2" width="20.64" height="1.62"/><path class="cls-11" d="M108.77,29.08a3.6,3.6,0,0,1,.69.66l8.85-17.95h13.61v-.92H117.74Z"/><path class="cls-11" d="M113.21,34.72a3.46,3.46,0,0,1,.44,1.36l8.64-17.69h9.63v-.92h-10.2Z"/><rect class="cls-8" x="134.69" y="9.83" width="18.46" height="3"/><rect class="cls-8" x="134.69" y="16.43" width="18.46" height="3"/><rect class="cls-12" x="132.77" y="27.05" width="22.29" height="1.75"/><rect class="cls-12" x="132.77" y="29.98" width="22.29" height="1.75"/><rect class="cls-12" x="132.77" y="32.92" width="22.29" height="1.75"/><rect class="cls-12" x="132.77" y="35.85" width="22.29" height="1.75"/><rect class="cls-12" x="132.77" y="38.79" width="22.29" height="1.75"/><rect class="cls-10" x="132.77" y="24.11" width="22.29" height="1.75"/><rect class="cls-10" x="132.77" y="27.05" width="22.29" height="1.75"/><rect class="cls-10" x="132.77" y="29.98" width="22.29" height="1.75"/><rect class="cls-10" x="132.77" y="32.92" width="22.29" height="1.75"/><rect class="cls-10" x="132.77" y="35.85" width="22.29" height="1.75"/><rect class="cls-10" x="132.77" y="38.79" width="22.29" height="1.75"/><rect class="cls-10" x="132.77" y="41.72" width="22.29" height="1.75"/><path class="cls-10" d="M78.13,36.29h6.26V13.69H80.23C81.25,19.52,80.77,26.84,78.13,36.29Z"/><path class="cls-9" d="M89.23,13.69H84.39v22.6h6.94C88.7,26.84,88.22,19.52,89.23,13.69Z"/><path class="cls-10" d="M66.71,52.06H73V29.46H68.81C69.83,35.3,69.35,42.61,66.71,52.06Z"/><path class="cls-9" d="M77.81,29.46H73v22.6h6.94C77.28,42.61,76.8,35.3,77.81,29.46Z"/><path class="cls-10" d="M93.21,8.12a1.12,1.12,0,0,0,.18-.2h-.08C93.28,8,93.24,8,93.21,8.12Z"/><path class="cls-10" d="M93.39,7.92a1.12,1.12,0,0,1-.18.2c0-.08.07-.15.1-.22h.08a1,1,0,0,0-.33-1.61,1.38,1.38,0,0,0-1.23.21,4,4,0,0,0-.89,1,.73.73,0,0,0-.55-.86h-.08A1.62,1.62,0,0,0,89.19,7a4.31,4.31,0,0,0-1.57,2.45c-2-.34-2.39,1.75-2.81,3.19-.07.24-.14.48-.2.73a5.58,5.58,0,0,1,3.32-2.18c1-.25,2-.29,3-.63a2.64,2.64,0,0,1,1-.26,4.22,4.22,0,0,0,1.23,0,1.48,1.48,0,0,0,1.08-1.2A1.11,1.11,0,0,0,93.39,7.92Z"/><path class="cls-9" d="M120.12,52.59h-7.59V68.1H129V60.82h4.36V68.1h1.8V52.59h-15Zm-3.61,12.77h-1.94V63.27h1.94Zm0-2.63h-1.94v-2h1.94Zm0-4.17h-2v-1.9h2Zm0-2.44h-2V53.93h2Zm2.4,9.24H117V63.27h1.88Zm0-2.63H117v-2h1.88Zm0-4.17h-1.86v-1.9h1.86Zm0-2.44h-1.86V53.93h1.86Zm4.75,9.24h-1.9V63.27h1.9Zm0-2.63h-1.9v-2h1.9Zm0-4.17h-1.91v-1.9h1.91Zm0-2.44h-1.91V53.93h1.91Zm2.45,9.24h-1.93V63.27h1.93Zm0-2.63h-1.93v-2h1.93Zm0-4.17H124.2v-1.9h1.91Zm0-2.44H124.2V53.93h1.91Zm5.25-2.19h2v2.19h-2Zm0,2.73h2v1.9h-2ZM129,53.93h1.86v2.19H129Zm0,2.73h1.86v1.9H129Z"/><polygon class="cls-9" points="120.12 68.5 111.42 68.5 111.42 70.44 120.12 70.44 127.57 70.44 136.5 70.44 136.5 68.5 127.57 68.5 120.12 68.5"/><polygon class="cls-9" points="132.33 47.88 132.33 49.97 128.98 49.97 128.98 47.88 127.57 47.88 120.12 47.88 113.74 47.88 111.44 51.6 120.12 51.6 127.57 51.6 136.5 51.6 134.19 47.88 132.33 47.88"/><rect class="cls-9" x="129.5" y="46.25" width="2.31" height="3.38"/><rect class="cls-9" x="129.42" y="61.18" width="3.43" height="6.94"/><polygon class="cls-9" points="136.36 51.76 127.57 51.76 120.12 51.76 111.63 51.76 111.63 52.28 120.12 52.28 127.57 52.28 135.75 52.28 135.75 67.85 137.23 67.85 137.23 67.21 136.37 67.21 136.36 51.76"/><path class="cls-10" d="M106.08,56.1a.81.81,0,0,0-.94-1.32.88.88,0,0,0-.21.22c0-.53,0-1-.54-1.29a.89.89,0,0,0-.78,0,1.37,1.37,0,0,0-.73,1,1.06,1.06,0,0,0-.7-.25,1.12,1.12,0,0,0-.92.42,1.21,1.21,0,0,0,.25,1.6c-.86.28-1.39.29-1.56,1.28-.06.39,0,1.77.73,1.37a1.05,1.05,0,0,0-.55,1.22,1,1,0,0,0,1.21.68c0,1.06,1.16,1.14,1.93.88h0v5h-1.46a.62.62,0,0,0-.63.61v0h4.94a.62.62,0,0,0-.58-.66h-1.63V61.62c.12,0,.15.2.3.23.37.07.67.22,1-.07a.91.91,0,0,0,0-1.29l0,0a1.16,1.16,0,0,0,1.27-.8c.18-.49-.11-.79-.43-1.11V58.3a1.12,1.12,0,0,0,.89-1.31,1.13,1.13,0,0,0-.89-.89Z"/><path class="cls-9" d="M97.32,55.65a1,1,0,0,0-1.47-1.36h0c0-.68,0-1.29-.7-1.66a1.14,1.14,0,0,0-1-.05,1.79,1.79,0,0,0-.94,1.26,1.41,1.41,0,0,0-.9-.33,1.48,1.48,0,0,0-1.18.54,1.55,1.55,0,0,0,.32,2.06c-1.09.35-1.78.37-2,1.64-.08.5,0,2.28.93,1.75a1.39,1.39,0,0,0-.71,1.58,1.34,1.34,0,0,0,1.55.87c.08,1.35,1.5,1.45,2.49,1.12h0V69.5H91.88a.79.79,0,0,0-.81.77v.07H97.4a.79.79,0,0,0-.74-.84H94.59V62.74c.16.06.2.26.38.3.48.09.87.29,1.31-.09a1.16,1.16,0,0,0,0-1.64l0-.05a1.5,1.5,0,0,0,1.63-1c.23-.64-.14-1-.55-1.42v-.33a1.48,1.48,0,0,0,1.15-1.42A1.52,1.52,0,0,0,97.32,55.65Z"/><path class="cls-10" d="M78.51,10.26a2,2,0,0,0-2.24-.67,2.87,2.87,0,0,0-1.7,1.71,4.61,4.61,0,0,0-.15,2.47c-5.58.73-3.69,10.5-3.72,14.39.78-1.57,1.59-3.13,2.36-4.7.44-.9,2-2.91,2-3.81,1-1.47,2.83-1.7,3.51-3.53a4.23,4.23,0,0,0-.37-3.65A1.61,1.61,0,0,0,78.51,10.26Z"/><path class="cls-10" d="M147.16,52.2l.78-.58-.6-1.15-.92.29a3.71,3.71,0,0,0-.5-.47l.22-.93-1.2-.5-.51.81a2.73,2.73,0,0,0-.7,0l-.43-.85h0l-1.21.37.13,1a3.2,3.2,0,0,0-.55.42l-.88-.37-.7,1.09.71.65a3.07,3.07,0,0,0-.14.67l-.92.28.16,1.28h1a2.89,2.89,0,0,0,.32.6l-.53.81,1,.88.78-.6a2.81,2.81,0,0,0,.62.26l.11,1,1.3.06.11-.49.1-.47.31-.08.32-.12.72.67,1-.79-.45-.87a3,3,0,0,0,.36-.56h1l.29-1.26-.9-.37A4.21,4.21,0,0,0,147.16,52.2Zm-2.62,2.72-.31.07a2.06,2.06,0,0,1-.92-4l.29-.07a2.06,2.06,0,0,1,.94,4Z"/><path class="cls-10" d="M99.72,19.46l.85-.64-.65-1.27-1,.32a3.78,3.78,0,0,0-.55-.51l.24-1-1.32-.55-.56.89a3.22,3.22,0,0,0-.76,0l-.48-.93h0l-1.33.41.14,1a5.3,5.3,0,0,0-.6.46l-1-.4-.77,1.19.78.71a3.16,3.16,0,0,0-.16.74l-1,.31.18,1.41h1.06a3.48,3.48,0,0,0,.35.66l-.58.89,1,1,.86-.66a3.36,3.36,0,0,0,.68.28l.13,1.06,1.42.07.12-.54.11-.51.34-.09.36-.13.78.73,1.14-.86-.51-1a3.06,3.06,0,0,0,.4-.61l1.07.06.32-1.39-1-.41A2.69,2.69,0,0,0,99.72,19.46Zm-2.88,3a2,2,0,0,1-.33.08,2.27,2.27,0,0,1-1-4.41l.32-.07a2.26,2.26,0,0,1,1,4.4Z"/><path class="cls-9" d="M151.32,60.65l.76-.57L151.5,59l-.9.29a3.64,3.64,0,0,0-.5-.46l.21-.91-1.17-.49-.5.79a2.58,2.58,0,0,0-.68,0l-.42-.84h0l-1.18.37.12.93a4.26,4.26,0,0,0-.54.41l-.86-.36-.68,1.07.69.63a3,3,0,0,0-.14.66l-.9.28.16,1.26h1a4,4,0,0,0,.31.58L145,64l.94.86.76-.58a4.6,4.6,0,0,0,.61.25l.11.95,1.27.06.11-.48.1-.47.31-.07.31-.12.71.66,1-.77-.45-.86a2.85,2.85,0,0,0,.35-.55h1l.28-1.24-.88-.36A3.69,3.69,0,0,0,151.32,60.65Zm-2.57,2.67-.3.07a2,2,0,1,1-.91-3.94,1.36,1.36,0,0,1,.29-.06,2,2,0,0,1,.92,3.93Z"/><path class="cls-13" d="M23.77,44l.76.76-.3-.33A4.68,4.68,0,0,0,23.77,44Z"/><path class="cls-14" d="M22.71,43.24c.36.25.72.49,1.06.77l-1.06-1Z"/><path class="cls-14" d="M25.7,45.93l-1.17-1.16A14.22,14.22,0,0,0,25.7,45.93Z"/><path class="cls-15" d="M40.46,29.76c-.28.2-.15.71-.41.88h0c-.08.25-.15.5-.22.73H39a16.65,16.65,0,0,1,.14-2.12V28.12a63.33,63.33,0,0,1-9.83.53v18.4h0a5,5,0,0,0,2.43-.31,9.65,9.65,0,0,0,2.63-2.3,12.7,12.7,0,0,1,1.92-1.5,4.21,4.21,0,0,0,1-.93A5.17,5.17,0,0,0,38,40.38c.25-.88.13-2.27.8-3s1.21-.9,1.65-1.78a10.6,10.6,0,0,0,.9-5C41.33,30.1,41.07,29.3,40.46,29.76Z"/><path class="cls-14" d="M19.43,29q0,.9,0,1.8,0,.3,0,.6H18.28V30.13a.58.58,0,0,0-.19-.35c-.61-.46-.87.34-.89.81a10.36,10.36,0,0,0,.9,5c.44.88,1,1.14,1.64,1.78s.56,2.1.81,3a5.16,5.16,0,0,0,.8,1.63,5.5,5.5,0,0,0,1.36,1.23V43l1.06,1h0a4.68,4.68,0,0,1,.46.43l.3.33h0l1.17,1.16h0a5.49,5.49,0,0,0,1.16.81,5,5,0,0,0,2.41.31V28.66c-6-.2-8.75-1.5-9.82-2.21C19.37,27.28,19.47,28.14,19.43,29Z"/><path class="cls-3" d="M23.76,22.35a4.61,4.61,0,0,0-4.31,4v.08c1.07.71,3.86,2,9.82,2.21V22.5a5.12,5.12,0,0,1-.78.06C26.91,22.55,25.33,22.23,23.76,22.35Z"/><path class="cls-5" d="M34.34,21.09c-.24-.15-.6-.53-.88-.6s-.19-.08-.6.18c-1.31.81-2.15,1.61-3.59,1.83v6.16a63.33,63.33,0,0,0,9.83-.53,14.19,14.19,0,0,0-.25-3.38C38.43,22.87,35.8,22,34.34,21.09Z"/><path class="cls-16" d="M33.38,13.18c-.09,0-1.11.11-1,.22a4.8,4.8,0,0,0-2.15-.67,5.62,5.62,0,0,0-1-.15V22.5c1.44-.22,2.28-1,3.59-1.83.41-.26.17-.29.6-.18s.64.45.88.6c1.46.89,4.09,1.78,4.51,3.66a14.19,14.19,0,0,1,.25,3.38v1.13a16.65,16.65,0,0,0-.14,2.12h.88c.07-.23.14-.48.22-.73.23-.75.46-1.54.53-1.9a25.12,25.12,0,0,0,.37-3.57c.32-2.89.48-5.66-1.31-8.08C37.72,14.51,34.89,13,33.38,13.18Z"/><path class="cls-17" d="M19.65,16.44c-2.72,2.48-2.32,5.67-2,8.74A20.06,20.06,0,0,0,18,28.46a6.62,6.62,0,0,1,.27,1.65v1.27H19.4q0-.3,0-.6,0-.9,0-1.8c0-.84-.06-1.7,0-2.53v-.08a4.61,4.61,0,0,1,4.31-4c1.57-.12,3.15.2,4.73.21a5.12,5.12,0,0,0,.78-.06V12.58C25.91,12.29,22,14.29,19.65,16.44Z"/><path class="cls-1" d="M17.27,57.58l3.52-1.48-4.05-2a29.49,29.49,0,0,1,1.16-3C13.06,52.58,5.46,54.81,5.3,55,.79,60.6,0,86.11,0,95.29H29.43l-.16-14.66Z"/><path class="cls-1" d="M57.77,80.63C57.39,69.09,57.36,58.4,53.65,55c-.18-.16-7.76-2.42-12.6-3.89a29.49,29.49,0,0,1,1.16,3l-4.05,2,3.52,1.48L29.38,80.84l-.11-.21V95.29H57.11L80.75,76.07,74.26,65.82Z"/><path class="cls-1" d="M25.35,62.72l-1.1-3.27-.36-1.07-.43-1.2-2.36-7-.32.1-3.44,1c-.43,1-.82,2-1.16,3l4.05,2-3.52,1.48,12,23v-7l-2.6-8.58Z"/><polygon class="cls-18" points="11.79 95.16 10.81 75.47 10.81 95.16 11.79 95.16"/><polygon class="cls-1" points="46.81 95.29 47.79 95.29 46.81 75.47 46.81 95.29"/><path class="cls-19" d="M39.65,30.08l-.91,1.35a2.53,2.53,0,0,0-.31-.42,5.13,5.13,0,0,0-3.75-1.22,8.13,8.13,0,0,0-4.42,1.44,8,8,0,0,1-2.4,0c-.83-1-2.78-1.48-4.41-1.48A5.13,5.13,0,0,0,19.7,31a2,2,0,0,0-.3.42l-1-1.75-.19.92.87,1.7a1.69,1.69,0,0,0,0,.45c.17,2.24,2.32,3.42,4.37,3.42h.17A4.94,4.94,0,0,0,28.13,33a1.68,1.68,0,0,0,.12-.63,2.86,2.86,0,0,0,.82.12,2.79,2.79,0,0,0,.81-.12A1.68,1.68,0,0,0,30,33a4.93,4.93,0,0,0,3.36,3,4.73,4.73,0,0,0,1.12.16h.17c2,0,4.2-1.18,4.37-3.42a3.38,3.38,0,0,0,0-.45L40,31ZM27.28,32.64a4,4,0,0,1-3.66,2.62h-.14c-1.63,0-3.34-.89-3.47-2.59a1.27,1.27,0,0,1,.36-1.06,4.38,4.38,0,0,1,3.08-.93c1.69,0,3.27.51,3.76,1.22A.71.71,0,0,1,27.28,32.64Zm7.38,2.63h-.14a4.08,4.08,0,0,1-.92-.13,4,4,0,0,1-2.75-2.49.73.73,0,0,1,.07-.73c.49-.71,2.07-1.22,3.76-1.22a4.42,4.42,0,0,1,3.09.93,1.34,1.34,0,0,1,.36,1.06C38,34.38,36.28,35.27,34.66,35.27Z"/><path class="cls-20" d="M36.53,13.09h0l-.1-.12Z"/><path class="cls-21" d="M37.21,14.38c-.32-.23-.66-.44-1-.65l-.1.19a12.23,12.23,0,0,1,1.08.95,98.93,98.93,0,0,0-4.8,8.9c1.75-5.07,3.21-8.7,3.78-10.06h-.05l.16-.22.14-.34V13C36,12.5,34,10.76,29.23,10.5h0V26A93.53,93.53,0,0,0,42.5,25v-.1A12.19,12.19,0,0,0,37.21,14.38Z"/><path class="cls-21" d="M42.94,25a96.88,96.88,0,0,1-13.72,1v2q4.31,0,8.61-.28a7.15,7.15,0,0,0,3.43-1l-.3.36a4.4,4.4,0,0,1-1.38,1,6.09,6.09,0,0,1-2.18.59c-2.72.26-5.45.38-8.18.38v1.17c2.56,0,5.11-.11,7.67-.32a6.19,6.19,0,0,0,3.43-1.38l1.45-.16a1.78,1.78,0,0,0,1.67-1.82,12.9,12.9,0,0,0-.16-1.36Z"/><path class="cls-22" d="M15.16,25.19c-.05.46-.1.91-.16,1.36a1.79,1.79,0,0,0,1.67,1.82l1.41.16A6.25,6.25,0,0,0,21.5,29.9c2.57.22,5.15.33,7.72.33V29.06q-4.12,0-8.25-.38a6.15,6.15,0,0,1-2.18-.59A4,4,0,0,1,17.35,27l-.17-.21a7.46,7.46,0,0,0,3.36.93c2.89.19,5.79.28,8.68.28V26A96.88,96.88,0,0,1,15.5,25Z"/><path class="cls-23" d="M29.22,28v1c2.73,0,5.46-.12,8.18-.38A6.09,6.09,0,0,0,39.58,28,4.4,4.4,0,0,0,41,27l.3-.36a7.15,7.15,0,0,1-3.43,1Q33.53,28,29.22,28Z"/><path class="cls-24" d="M29.22,10.5c-4.82.27-6.78,2-7.21,2.46a.52.52,0,0,1-.1.11h0L22,13v.15l.16.35.14.21h0a103.36,103.36,0,0,1,3.78,10.07,99,99,0,0,0-4.81-8.9,12.23,12.23,0,0,1,1.08-1l-.09-.19c-.35.21-.69.42-1,.65A12.15,12.15,0,0,0,16,24.91V25a94.43,94.43,0,0,0,13.22,1l10.38-.58-10.38-.56Z"/><path class="cls-25" d="M17.18,26.8l.17.21a4.05,4.05,0,0,0,1.44,1.08,6.15,6.15,0,0,0,2.18.59q4.13.38,8.25.38V28c-2.89,0-5.79-.09-8.68-.28A7.58,7.58,0,0,1,17.18,26.8Z"/><path class="cls-26" d="M22.18,13.46,22,13.11V13a.57.57,0,0,1-.08.13h0l.32.62.09.19a12.23,12.23,0,0,0-1.08.95,99,99,0,0,1,4.81,8.9,103,103,0,0,0-3.78-10Z"/><path class="cls-26" d="M36.21,13.73l.33-.62h0L36.45,13v.16l-.14.34a2,2,0,0,0-.11.26c-.57,1.36-2,5-3.78,10.06a98.93,98.93,0,0,1,4.8-8.9,12.23,12.23,0,0,0-1.08-1Z"/><path class="cls-27" d="M45.59,67.48v.66a1.38,1.38,0,0,1-1.37,1.39h-.46a1.38,1.38,0,0,1-1.38-1.38h0v-.66H39.64A1.59,1.59,0,0,0,39,68.72v2.57a1.57,1.57,0,0,0,1.56,1.58h6.77a1.58,1.58,0,0,0,1.58-1.58h0V68.72a1.58,1.58,0,0,0-.61-1.24Zm2.13,4.09H40.25v-.42h7.47Zm0-1H40.25v-.42h7.47Z"/><path class="cls-27" d="M44.21,66.1h-.45a.8.8,0,0,0-.87.72h0v1.45a.82.82,0,0,0,.87.74h.45a.82.82,0,0,0,.87-.74V66.83a.8.8,0,0,0-.86-.73Z"/><path class="cls-14" d="M86.29,62.41c-.26-.44-.28-1-.7-1.31a2.26,2.26,0,0,0-1.73-.1c-1.06.31-2.11.67-3.14,1.08a17.45,17.45,0,0,0-4.23,4.17C74.41,69,74.28,74.64,79,73.84a19.31,19.31,0,0,0,2.6-.63A8.15,8.15,0,0,0,87,68.59a7.82,7.82,0,0,0,.41-3,9.58,9.58,0,0,0-.18-1.51A4.93,4.93,0,0,0,86.29,62.41Z"/><path class="cls-1" d="M136.48,21.35l-1.77,1.34c-4.62,3.49-9.08,7.2-13.57,10.86q-9.51,7.77-19,15.62l-8.79,7.28-3.74,3.1c-.55.45-1.11.89-1.65,1.36-.88.78-.16,1.35-.66,2.24s-2.13.27-2.81.63a13.57,13.57,0,0,0-2.24,1.83l.44,3.28a5.91,5.91,0,0,0,2.6-1.65c5.13-5.39,45.13-39.12,52.2-45.26C138.32,21.29,137.35,20.69,136.48,21.35Z"/></g></g></g></g></g></g></svg>