<svg xmlns="http://www.w3.org/2000/svg" viewBox="0 0 168.15 147.4"><defs><style>.cls-1{fill:#fff;}</style></defs><title>contorno_atomo</title><g id="Capa_2" data-name="Capa 2"><g id="megatron"><path class="cls-1" d="M87,13.46C88,13,107.63-5.26,123.47,2.9s9.6,39.36,9.6,39.36,36.48,10.56,35,27.36-20.64,25.44-20.64,25.44-2.88,9.6-16.32,10.08c0,0,6.24,26.4-7.68,37s-24.48,1-40.32-11c0,0-15.36,19.68-37,15.84s-14.88-29.76-14.88-29.76-7.2-9.12-1.92-16.32c0,0-26.88-3.36-29.28-25.44S34.19,45.14,34.19,45.14,25.77,13,39,3.38C54.83-8.14,87,13.46,87,13.46Z"/></g></g></svg>