<svg xmlns="http://www.w3.org/2000/svg" viewBox="0 0 437.63 104.72"><defs><style>.cls-1{fill:#fff;}</style></defs><title>contorno_megatron</title><g id="Capa_2" data-name="Capa 2"><g id="megatron"><path class="cls-1" d="M9.12,10.41S12.48.81,26.4,1.77s16.32,1,17.76,4.8c0,0,1.44-4.8,15.84-5.28S75.36,5.13,75.36,5.13s1-3.84,17.28-3.84S117.12.81,121,6.09A39.45,39.45,0,0,1,148.8.81c16.32,2.88,20.64,6.24,27.84,17.76,0,0,1.92-19.68,20.16-16.8,0,0,15.36-2.4,19.68,4.8,0,0,0-6.72,29.76-4.8s52.32-5.28,62.88,9.12a43.12,43.12,0,0,1,37-10.08s11,1.44,16.8,7.2a13.17,13.17,0,0,1,13-6.24h11s9.6,1,12,6.72a19.48,19.48,0,0,1,16.8-6.72c11,1,20.64,0,20.64,13s2.4,52.32-1.44,54.72c0,0,2.4,0,2.4,6.72s3.84,19.68-13.92,22.08c0,0-8.64,2.88-9.12-1.44,0,0-3.84,5.76-9.12.48,0,0-1.92,4.32-8.16.48,0,0-4.8,3.84-8.64,0,0,0-1,3.84-6.24.48,0,0-4.32,3.84-7.68,0,0,0,0,3.84-9.12-.48,0,0-4.8,6.24-11.52,1,0,0-5.76,4.32-11.52,0,0,0-5.76,1.44-10.56-.48,0,0-2.4,2.4-7.2-.48,0,0,0,4.32-5.76,1,0,0-1.92,2.88-7.68-.48,0,0-9.12,4.8-15.84,0,0,0-7.2,2.88-10.56-.48,0,0-3.84,4.8-11,0,0,0-1.92,1.92-6.72.48,0,0,0,3.84-5.76,0,0,0-1.92,2.88-7.68-.48,0,0-1.92,2.88-8.64,0,0,0-5.76,6.24-9.6-.48,0,0-3.36,5.28-14.4-1,0,0-1.92,5.28-13.92,1.92,0,0-6.72,3.36-12,0,0,0-2.88,3.84-7.2.48,0,0-5.28,2.4-8.16-1,0,0-4.8,3.84-9.6.48,0,0-3.36,3.84-9.6,0,0,0-.48,2.4-7.68,1,0,0-5.76,1.92-10.56-1.44,0,0-3.84,3.36-11.52.48,0,0-7.68,12-25.44.48,0,0-8.16,1.92-10.08-.48,0,0-4.32,2.88-7.68.48,0,0-7.2,1.44-9.6-1,0,0-5.76,4.32-9.12.48,0,0-4.32,4.8-7.2,0,0,0-5.28,1.44-6.72-.48,0,0-3.36,3.36-6.72.48,0,0-14.4,14.88-26.4-.48,0,0-17.28,5.28-21.6-11Z"/></g></g></svg>