<svg xmlns="http://www.w3.org/2000/svg" viewBox="0 0 160.73 95.29"><defs><style>.cls-1{fill:#e4f4ff;}.cls-2{fill:#62767f;}.cls-3{fill:#f9773d;}.cls-4{fill:#a4b5bc;}.cls-5{fill:#bdcdd6;}.cls-6{fill:#67787f;}.cls-7{fill:#889da7;}.cls-8{fill:#dba18f;}.cls-9{fill:#dbac90;}.cls-10{fill:#f9cfb3;}.cls-11{fill:#e6b494;}.cls-12{fill:#e8bb95;}.cls-13{fill:#d5a378;}.cls-14{fill:#2a2722;}.cls-15{fill:#3d3b36;}.cls-16{fill:#c89374;}.cls-17{fill:#bad1dd;}.cls-18{fill:#9ab9ca;}.cls-19{fill:#4b616c;}.cls-20{fill:#303e43;}.cls-21{fill:#25343a;}.cls-22{fill:#c1daec;}.cls-23{fill:#455256;}.cls-24{fill:#ecbb1a;}.cls-25{fill:#c1c1c1;}.cls-26{fill:#d6d6d6;}.cls-27{fill:#7a7a7a;}.cls-28{fill:#fff;}.cls-29{fill:#adadad;}.cls-30{fill:#777;}.cls-31{fill:#f2f3f4;}</style></defs><title>cursosCover</title><g id="Capa_2" data-name="Capa 2"><g id="_1" data-name="1"><g id="_1-2" data-name="1"><g id="_8" data-name="8"><path class="cls-1" d="M151.79,0H68.4a8.93,8.93,0,0,0-8.93,8.92v59.8a8.93,8.93,0,0,0,8.93,8.92h83.39a8.93,8.93,0,0,0,8.94-8.92V8.92A8.93,8.93,0,0,0,151.79,0Z"/><path class="cls-2" d="M156,0H64.2c-2.62,0-4.73,2.62-4.73,5.84v66c0,3.22,2.11,5.84,4.73,5.84H156c2.61,0,4.73-2.62,4.73-5.84v-66C160.73,2.62,158.61,0,156,0Zm1.39,67.14c0,3.22-2.12,5.84-4.73,5.84H67.53c-2.61,0-4.73-2.62-4.73-5.84V8.4c0-3.23,2.12-5.84,4.73-5.84h85.13c2.61,0,4.73,2.61,4.73,5.84Z"/><path class="cls-3" d="M101.94,28.17a10.66,10.66,0,1,0,11.27,12H101.94Z"/><path class="cls-4" d="M103.47,28.18v10.5h9.83A10.66,10.66,0,0,0,103.47,28.18Z"/><rect class="cls-5" x="67.81" y="58.05" width="20.64" height="1.62"/><rect class="cls-5" x="67.81" y="60.77" width="20.64" height="1.62"/><rect class="cls-5" x="67.81" y="63.48" width="20.64" height="1.62"/><rect class="cls-5" x="67.81" y="66.2" width="20.64" height="1.62"/><path class="cls-6" d="M108.77,29.08a3.63,3.63,0,0,1,.69.66l8.85-17.95h13.61v-.92H117.74Z"/><path class="cls-6" d="M113.21,34.72a3.31,3.31,0,0,1,.44,1.36l8.64-17.69h9.63v-.92h-10.2Z"/><rect class="cls-3" x="134.69" y="9.83" width="18.46" height="3"/><rect class="cls-3" x="134.69" y="16.43" width="18.46" height="3"/><rect class="cls-7" x="132.77" y="27.05" width="22.29" height="1.75"/><rect class="cls-7" x="132.77" y="29.98" width="22.29" height="1.75"/><rect class="cls-7" x="132.77" y="32.92" width="22.29" height="1.75"/><rect class="cls-7" x="132.77" y="35.85" width="22.29" height="1.75"/><rect class="cls-7" x="132.77" y="38.79" width="22.29" height="1.75"/><rect class="cls-5" x="132.77" y="24.11" width="22.29" height="1.75"/><rect class="cls-5" x="132.77" y="27.05" width="22.29" height="1.75"/><rect class="cls-5" x="132.77" y="29.98" width="22.29" height="1.75"/><rect class="cls-5" x="132.77" y="32.92" width="22.29" height="1.75"/><rect class="cls-5" x="132.77" y="35.85" width="22.29" height="1.75"/><rect class="cls-5" x="132.77" y="38.79" width="22.29" height="1.75"/><rect class="cls-5" x="132.77" y="41.72" width="22.29" height="1.75"/><path class="cls-5" d="M78.13,36.29h6.26V13.69H80.23C81.25,19.52,80.77,26.84,78.13,36.29Z"/><path class="cls-4" d="M89.23,13.69H84.39v22.6h6.94C88.7,26.84,88.22,19.52,89.23,13.69Z"/><path class="cls-5" d="M66.71,52.06H73V29.46H68.81C69.83,35.3,69.35,42.61,66.71,52.06Z"/><path class="cls-4" d="M77.81,29.46H73v22.6h6.94C77.28,42.61,76.8,35.3,77.81,29.46Z"/><path class="cls-5" d="M93.21,8.12a1.16,1.16,0,0,0,.18-.2l-.08,0C93.28,8,93.24,8,93.21,8.12Z"/><path class="cls-5" d="M93.39,7.92a1.16,1.16,0,0,1-.18.2c0-.08.07-.15.1-.22l.08,0a1,1,0,0,0,.31-.75,1,1,0,0,0-.64-.86,1.37,1.37,0,0,0-1.23.21,4,4,0,0,0-.89,1,.72.72,0,0,0-.63-.87A1.59,1.59,0,0,0,89.19,7a4.28,4.28,0,0,0-1.57,2.45c-2-.34-2.39,1.75-2.81,3.19-.07.24-.14.48-.2.73a5.61,5.61,0,0,1,3.32-2.18c1-.25,2-.29,3-.63a2.79,2.79,0,0,1,1-.26,4.22,4.22,0,0,0,1.23,0,1.49,1.49,0,0,0,1.08-1.2A1.11,1.11,0,0,0,93.39,7.92Z"/><path class="cls-4" d="M120.12,52.59h-7.59V68.1H129V60.82h4.36V68.1h1.8V52.59h-15Zm-3.61,12.77h-1.94V63.27h1.94Zm0-2.63h-1.94v-2h1.94Zm0-4.17h-2v-1.9h2Zm0-2.44h-2V53.93h2Zm2.4,9.24h-1.88V63.27h1.88Zm0-2.63h-1.88v-2h1.88Zm0-4.17h-1.86v-1.9h1.86Zm0-2.44h-1.86V53.93h1.86Zm4.75,9.24h-1.9V63.27h1.9Zm0-2.63h-1.9v-2h1.9Zm0-4.17h-1.91v-1.9h1.91Zm0-2.44h-1.91V53.93h1.91Zm2.45,9.24h-1.93V63.27h1.93Zm0-2.63h-1.93v-2h1.93Zm0-4.17h-1.91v-1.9h1.91Zm0-2.44h-1.91V53.93h1.91Zm5.25-2.19h2v2.19h-2Zm0,2.73h2v1.9h-2ZM129,53.93h1.86v2.19H129Zm0,2.73h1.86v1.9H129Z"/><polygon class="cls-4" points="120.12 68.5 111.42 68.5 111.42 70.44 120.12 70.44 127.57 70.44 136.5 70.44 136.5 68.5 127.57 68.5 120.12 68.5"/><polygon class="cls-4" points="132.33 47.88 132.33 49.97 128.98 49.97 128.98 47.88 127.57 47.88 120.12 47.88 113.74 47.88 111.44 51.6 120.12 51.6 127.57 51.6 136.5 51.6 134.19 47.88 132.33 47.88"/><rect class="cls-4" x="129.5" y="46.25" width="2.31" height="3.38"/><rect class="cls-4" x="129.42" y="61.18" width="3.43" height="6.94"/><polygon class="cls-4" points="136.36 51.76 127.57 51.76 120.12 51.76 111.63 51.76 111.63 52.28 120.12 52.28 127.57 52.28 135.75 52.28 135.75 67.85 137.23 67.85 137.23 67.21 136.37 67.21 136.36 51.76"/><path class="cls-5" d="M106.08,56.1A.81.81,0,1,0,104.93,55c0-.53,0-1-.54-1.29a.9.9,0,0,0-.78,0,1.37,1.37,0,0,0-.73,1,1.06,1.06,0,0,0-.7-.25,1.12,1.12,0,0,0-.92.42,1.2,1.2,0,0,0,.25,1.6c-.86.28-1.39.29-1.56,1.28-.06.39,0,1.77.73,1.37a1.06,1.06,0,0,0-.55,1.22,1,1,0,0,0,1.21.68c0,1.06,1.16,1.14,1.93.88h0v5h-1.46a.62.62,0,0,0-.63.66h4.94a.62.62,0,0,0-.64-.66h-1.57V61.62c.12,0,.15.2.3.23.37.07.67.22,1-.07a.91.91,0,0,0,0-1.32,1.16,1.16,0,0,0,1.27-.8c.18-.49-.11-.79-.43-1.11V58.3a1.12,1.12,0,0,0,0-2.2Z"/><path class="cls-4" d="M97.32,55.65a1,1,0,1,0-1.47-1.36c0-.68,0-1.29-.7-1.66a1.11,1.11,0,0,0-1-.05,1.76,1.76,0,0,0-.94,1.26,1.41,1.41,0,0,0-.9-.33,1.48,1.48,0,0,0-1.18.54,1.55,1.55,0,0,0,.32,2.06c-1.09.35-1.78.37-2,1.64-.08.5,0,2.28.93,1.75a1.39,1.39,0,0,0-.71,1.58,1.34,1.34,0,0,0,1.55.87c.08,1.35,1.5,1.45,2.49,1.12h0v6.43H91.88a.79.79,0,0,0-.81.84H97.4a.79.79,0,0,0-.81-.84h-2V62.74c.16.06.2.26.38.3.48.09.87.29,1.31-.09a1.16,1.16,0,0,0,0-1.69,1.5,1.5,0,0,0,1.63-1c.23-.64-.14-1-.55-1.42v-.33a1.48,1.48,0,0,0,1.15-1.42A1.51,1.51,0,0,0,97.32,55.65Z"/><path class="cls-5" d="M78.51,10.26a2.05,2.05,0,0,0-2.24-.67,2.85,2.85,0,0,0-1.7,1.71,4.6,4.6,0,0,0-.15,2.47c-5.58.73-3.69,10.5-3.72,14.39.78-1.57,1.59-3.13,2.36-4.7.44-.9,2-2.91,2-3.81,1-1.47,2.83-1.7,3.51-3.53a4.23,4.23,0,0,0-.37-3.65A1.61,1.61,0,0,0,78.51,10.26Z"/><path class="cls-5" d="M147.16,52.2l.78-.58-.6-1.15-.92.29a3.71,3.71,0,0,0-.5-.47l.22-.93-1.2-.5-.51.81a2.72,2.72,0,0,0-.7,0l-.43-.85h0l-1.21.37.13.95a3.2,3.2,0,0,0-.55.42l-.88-.37-.7,1.09.71.65a3,3,0,0,0-.14.67l-.92.28.16,1.28,1,0a3.13,3.13,0,0,0,.32.6l-.53.81,1,.88.78-.6a3.12,3.12,0,0,0,.62.26l.11,1,1.3.06.11-.49.1-.47.31-.08.32-.12.72.67,1-.79-.45-.87a3,3,0,0,0,.36-.56l1,0,.29-1.26-.9-.37A3.85,3.85,0,0,0,147.16,52.2Zm-2.62,2.72-.31.07a2.06,2.06,0,0,1-.92-4l.29-.07a2.06,2.06,0,0,1,.94,4Z"/><path class="cls-5" d="M99.72,19.46l.85-.64-.65-1.27-1,.32a4.43,4.43,0,0,0-.55-.51l.24-1-1.32-.55-.56.89a3.84,3.84,0,0,0-.76,0l-.48-.93h0l-1.33.41.14,1a4.54,4.54,0,0,0-.6.46l-1-.4-.77,1.19.78.71a3.16,3.16,0,0,0-.16.74l-1,.31.18,1.41,1.06,0a3.45,3.45,0,0,0,.35.66l-.58.89,1,1,.86-.66a3.73,3.73,0,0,0,.68.28l.13,1.06,1.42.07.12-.54.11-.51.34-.09.36-.13.78.73,1.14-.86-.51-1a3.06,3.06,0,0,0,.4-.61l1.07.06.32-1.39-1-.41A3,3,0,0,0,99.72,19.46Zm-2.88,3a2,2,0,0,1-.33.08,2.27,2.27,0,0,1-1-4.41l.32-.07a2.26,2.26,0,0,1,1,4.4Z"/><path class="cls-4" d="M151.32,60.65l.76-.57L151.5,59l-.9.29a3.64,3.64,0,0,0-.5-.46l.21-.91-1.17-.49-.5.79a2.57,2.57,0,0,0-.68,0l-.42-.84h0l-1.18.37.12.93a4.26,4.26,0,0,0-.54.41l-.86-.36-.68,1.07.69.63a3.11,3.11,0,0,0-.14.66l-.9.28.16,1.26,1,0a3.56,3.56,0,0,0,.31.58l-.52.8.94.86.76-.58a3.71,3.71,0,0,0,.61.25l.11.95,1.27.06.11-.48.1-.47.31-.07.31-.12.71.66,1-.77-.45-.86a2.85,2.85,0,0,0,.35-.55l1,0,.28-1.24-.88-.36A3.74,3.74,0,0,0,151.32,60.65Zm-2.57,2.67-.3.07a2,2,0,0,1-.91-3.94,1.5,1.5,0,0,1,.29-.06,2,2,0,0,1,.92,3.93Z"/><path class="cls-8" d="M23.77,44l.76.76-.3-.33A4.68,4.68,0,0,0,23.77,44Z"/><path class="cls-9" d="M26.86,46.74a5.35,5.35,0,0,1-1.16-.81l3.57,3.56V47.05A5,5,0,0,1,26.86,46.74Z"/><path class="cls-10" d="M22.71,43.24c.36.25.72.49,1.06.77l-1.06-1Z"/><path class="cls-10" d="M25.7,45.93l-1.17-1.16A14.22,14.22,0,0,0,25.7,45.93Z"/><path class="cls-11" d="M40.46,29.76c-.28.2-.15.71-.41.88h0c-.08.25-.15.5-.22.73h-.88a16.84,16.84,0,0,1,.14-2.12l0-1.13a63.23,63.23,0,0,1-9.83.53V47.05h0a5.05,5.05,0,0,0,2.43-.31,9.52,9.52,0,0,0,2.63-2.3,12.84,12.84,0,0,1,1.92-1.5,4.24,4.24,0,0,0,1-.93A5.12,5.12,0,0,0,38,40.38c.25-.88.13-2.27.8-3s1.21-.9,1.65-1.78a10.56,10.56,0,0,0,.9-5C41.33,30.1,41.07,29.3,40.46,29.76Z"/><path class="cls-10" d="M19.43,29a15.45,15.45,0,0,0,0,1.8,5.46,5.46,0,0,1,0,.6H18.28c0-.2,0-.38,0-.49,0-.28,0-.53,0-.78a.55.55,0,0,0-.19-.35c-.61-.46-.87.34-.89.81a10.44,10.44,0,0,0,.9,5c.44.88,1,1.14,1.64,1.78s.56,2.1.81,3A5.12,5.12,0,0,0,21.35,42a5.52,5.52,0,0,0,1.36,1.23V43l1.06,1h0a4.68,4.68,0,0,1,.46.43l.3.33h0l1.17,1.16h0a5.35,5.35,0,0,0,1.16.81,5,5,0,0,0,2.41.31V28.66c-6-.2-8.75-1.5-9.82-2.21C19.37,27.28,19.47,28.14,19.43,29Z"/><path class="cls-12" d="M23.76,22.35a4.61,4.61,0,0,0-4.31,4v.08c1.07.71,3.86,2,9.82,2.21V22.5a6.18,6.18,0,0,1-.78.06C26.91,22.55,25.33,22.23,23.76,22.35Z"/><path class="cls-13" d="M34.34,21.09c-.24-.15-.6-.53-.88-.6s-.19-.08-.6.18c-1.31.81-2.15,1.61-3.59,1.83v6.16a63.23,63.23,0,0,0,9.83-.53,14.23,14.23,0,0,0-.25-3.38C38.43,22.87,35.8,22,34.34,21.09Z"/><path class="cls-14" d="M33.38,13.18c-.09,0-1.11.11-1,.22a4.84,4.84,0,0,0-2.15-.67,6.44,6.44,0,0,0-1-.15V22.5c1.44-.22,2.28-1,3.59-1.83.41-.26.17-.29.6-.18s.64.45.88.6c1.46.89,4.09,1.78,4.51,3.66a14.23,14.23,0,0,1,.25,3.38l0,1.13a16.84,16.84,0,0,0-.14,2.12h.88c.07-.23.14-.48.22-.73.23-.75.46-1.54.53-1.9a24.61,24.61,0,0,0,.37-3.57c.32-2.89.48-5.66-1.31-8.08C37.72,14.51,34.89,13,33.38,13.18Z"/><path class="cls-15" d="M19.65,16.44c-2.72,2.48-2.32,5.67-2,8.74A19.86,19.86,0,0,0,18,28.46a6.31,6.31,0,0,1,.27,1.65c0,.25,0,.5,0,.78,0,.11,0,.29,0,.49h1.13a5.46,5.46,0,0,0,0-.6,15.45,15.45,0,0,1,0-1.8c0-.84-.06-1.7,0-2.53v-.08a4.61,4.61,0,0,1,4.31-4c1.57-.12,3.15.2,4.73.21a6.18,6.18,0,0,0,.78-.06V12.58C25.91,12.29,22,14.29,19.65,16.44Z"/><path class="cls-12" d="M24.53,44.77,23.77,44c-.34-.28-.7-.52-1.06-.77v3.3l6.56,5.91v-3L25.7,45.93A14.22,14.22,0,0,1,24.53,44.77Z"/><path class="cls-13" d="M29.27,52.45l0,0a.27.27,0,0,0,.36,0L31,51.24l-1.75-1.75Z"/><path class="cls-16" d="M31.71,46.74a5.05,5.05,0,0,1-2.43.31h0v2.44L31,51.24l5.24-4.72V42.94a12.84,12.84,0,0,0-1.92,1.5A9.52,9.52,0,0,1,31.71,46.74Z"/><path class="cls-17" d="M27.5,55.47l-2.71,3.8,1.1,3.27.76,2.5,1.63-7.4a1.36,1.36,0,0,0-.12-.93Z"/><path class="cls-18" d="M30.8,56.71a1.31,1.31,0,0,0-.13.93l1.59,7.23.8-2.33,1-3.06.07-.22-2.7-3.79Z"/><path class="cls-19" d="M30.8,56.71l.66-1.24-.67-.94L29.73,53h-.46V73.65l3-8.78-1.59-7.23A1.31,1.31,0,0,1,30.8,56.71Z"/><path class="cls-2" d="M29.27,53h0l0,0-.64.89L27.5,55.47l.66,1.24a1.36,1.36,0,0,1,.12.93L26.65,65l2.62,8.59V53h.46l0,0A.28.28,0,0,0,29.27,53Z"/><path class="cls-20" d="M17.27,57.58l3.52-1.48-4.05-2a30.5,30.5,0,0,1,1.16-3C13.06,52.58,5.46,54.81,5.3,55,.79,60.6,0,86.11,0,95.29H29.43l-.16-14.66Z"/><path class="cls-21" d="M57.77,80.63C57.39,69.09,57.36,58.4,53.65,55c-.18-.16-7.76-2.42-12.6-3.89a30.5,30.5,0,0,1,1.16,3l-4.05,2,3.52,1.48L29.38,80.84l-.11-.21v.43s0,11.8,0,14.23H57.11L80.75,76.07,74.26,65.82Z"/><polygon class="cls-19" points="34.09 59.48 34.16 59.27 34.16 59.26 34.09 59.48"/><path class="cls-22" d="M36.26,46.52,31,51.24l-1.36,1.23a.27.27,0,0,1-.36,0l0,0v.34l.1-.08c.23-.15.43.11.55.33h-.19l1.06,1.49.67.94,2.7,3.79h0l.4-1.2L37.29,50l.32.1-1.25-3.65Z"/><path class="cls-1" d="M29.37,52.71l-.1.08v-.34l-6.56-5.91-.12-.11-1.25,3.65.32-.1L24,57l.41,1.22.36,1.07,2.71-3.8,1.09-1.54.64-.89,0,0h0a.28.28,0,0,1,.43,0l0,0h.19C29.8,52.82,29.6,52.56,29.37,52.71Z"/><path class="cls-21" d="M25.89,62.54l-1.1-3.27-.36-1.07L24,57l-2.36-7-.32.1-3.44,1a31.5,31.5,0,0,0-1.16,3l4.05,2-3.52,1.48,12,23v-7L26.65,65Z"/><path class="cls-20" d="M41.05,51.11l-3.44-1-.32-.1-2.73,8.09-.4,1.2-.07.21-1,3.06-.8,2.33-3,8.78v7l.11.21,12.3-23.26L38.16,56.1l4.05-2A31.5,31.5,0,0,0,41.05,51.11Z"/><polygon class="cls-19" points="11.79 95.16 10.81 75.47 10.81 95.16 11.79 95.16"/><polygon class="cls-20" points="46.81 95.29 47.79 95.29 46.81 75.47 46.81 95.29"/><path class="cls-23" d="M39.65,30.08l-.91,1.35a2.53,2.53,0,0,0-.31-.42,5.14,5.14,0,0,0-3.75-1.22,8.09,8.09,0,0,0-4.42,1.44,8.14,8.14,0,0,1-2.4,0c-.83-1-2.78-1.48-4.41-1.48A5.16,5.16,0,0,0,19.7,31a2,2,0,0,0-.3.42l-1-1.75-.19.92.87,1.7a1.7,1.7,0,0,0,0,.45c.17,2.24,2.32,3.42,4.37,3.42h.17A4.73,4.73,0,0,0,24.77,36a5,5,0,0,0,3.36-3,1.84,1.84,0,0,0,.12-.63,3.19,3.19,0,0,0,.82.12,3.12,3.12,0,0,0,.81-.12A1.87,1.87,0,0,0,30,33a4.92,4.92,0,0,0,3.36,3,4.66,4.66,0,0,0,1.12.16h.17c2,0,4.2-1.18,4.37-3.42a3.38,3.38,0,0,0,0-.45L40,31ZM27.28,32.64a4,4,0,0,1-3.66,2.62h-.14c-1.63,0-3.34-.89-3.47-2.59a1.29,1.29,0,0,1,.36-1.06,4.37,4.37,0,0,1,3.08-.93c1.69,0,3.27.51,3.76,1.22A.71.71,0,0,1,27.28,32.64Zm7.38,2.63h-.14a3.93,3.93,0,0,1-.92-.13,4.05,4.05,0,0,1-2.75-2.49.73.73,0,0,1,.07-.73c.49-.71,2.07-1.22,3.76-1.22a4.41,4.41,0,0,1,3.09.93,1.36,1.36,0,0,1,.36,1.06C38,34.38,36.28,35.27,34.66,35.27Z"/><path class="cls-24" d="M36.53,13.09v0l-.1-.12A1.17,1.17,0,0,0,36.53,13.09Z"/><path class="cls-25" d="M37.21,14.38c-.32-.23-.66-.44-1-.65l-.1.19a13.84,13.84,0,0,1,1.08.95,99.73,99.73,0,0,0-4.8,8.9c1.75-5.07,3.21-8.7,3.78-10.06l-.05,0,.16-.22.14-.34a.91.91,0,0,1,0-.16C36,12.5,34,10.76,29.23,10.5h0V26A94.25,94.25,0,0,0,42.5,25v-.1A12.18,12.18,0,0,0,37.21,14.38Z"/><path class="cls-25" d="M42.94,25a96.18,96.18,0,0,1-13.72,1V28q4.31,0,8.61-.28a7.15,7.15,0,0,0,3.43-1l-.3.36a4.29,4.29,0,0,1-1.38,1,6.26,6.26,0,0,1-2.18.59c-2.72.26-5.45.38-8.18.38v1.17c2.56,0,5.11-.11,7.67-.32a6.24,6.24,0,0,0,3.43-1.38l1.45-.16a1.78,1.78,0,0,0,1.67-1.82c0-.45-.11-.9-.16-1.36Z"/><path class="cls-26" d="M15.16,25.19c-.05.46-.1.91-.16,1.36a1.79,1.79,0,0,0,1.67,1.82l1.41.16A6.27,6.27,0,0,0,21.5,29.9c2.57.22,5.15.33,7.72.33V29.06q-4.12,0-8.25-.38a6.32,6.32,0,0,1-2.18-.59A4,4,0,0,1,17.35,27l-.17-.21a7.56,7.56,0,0,0,3.36.93c2.89.19,5.79.28,8.68.28V26A96.18,96.18,0,0,1,15.5,25Z"/><path class="cls-27" d="M29.22,28v1c2.73,0,5.46-.12,8.18-.38a6.26,6.26,0,0,0,2.18-.59,4.29,4.29,0,0,0,1.38-1l.3-.36a7.15,7.15,0,0,1-3.43,1Q33.53,28,29.22,28Z"/><path class="cls-28" d="M29.22,10.5c-4.82.27-6.78,2-7.21,2.46a.59.59,0,0,1-.1.11l0,0A1.18,1.18,0,0,0,22,13c0,.09,0,.15,0,.15l.16.35.14.21,0,0a102.75,102.75,0,0,1,3.78,10.07,99.84,99.84,0,0,0-4.81-8.9,13.84,13.84,0,0,1,1.08-.95l-.09-.19c-.35.21-.69.42-1,.65A12.15,12.15,0,0,0,16,24.91V25A94.22,94.22,0,0,0,29.22,26l10.38-.58-10.38-.56Z"/><path class="cls-29" d="M17.18,26.8l.17.21a4,4,0,0,0,1.44,1.08,6.32,6.32,0,0,0,2.18.59q4.13.38,8.25.38V28c-2.89,0-5.79-.09-8.68-.28A7.56,7.56,0,0,1,17.18,26.8Z"/><path class="cls-30" d="M22.18,13.46,22,13.11s0-.06,0-.15a1.18,1.18,0,0,1-.08.13v0l.32.62.09.19a13.84,13.84,0,0,0-1.08.95,99.84,99.84,0,0,1,4.81,8.9A102.75,102.75,0,0,0,22.28,13.7Z"/><path class="cls-30" d="M36.21,13.73l.33-.62v0a1.17,1.17,0,0,1-.09-.14.91.91,0,0,0,0,.16l-.14.34a2.26,2.26,0,0,0-.11.26c-.57,1.36-2,5-3.78,10.06a99.73,99.73,0,0,1,4.8-8.9,13.84,13.84,0,0,0-1.08-.95Z"/><path class="cls-31" d="M45.59,67.48v.66a1.38,1.38,0,0,1-1.38,1.39h-.45a1.38,1.38,0,0,1-1.38-1.39v-.66H39.64A1.58,1.58,0,0,0,39,68.72v2.57a1.57,1.57,0,0,0,1.57,1.58h6.76a1.58,1.58,0,0,0,1.58-1.58V68.72a1.58,1.58,0,0,0-.61-1.24Zm2.13,4.09H40.25v-.42h7.47Zm0-1H40.25v-.42h7.47Z"/><path class="cls-31" d="M44.21,66.1h-.45a.8.8,0,0,0-.87.73v1.45a.81.81,0,0,0,.87.74h.45a.81.81,0,0,0,.87-.74V66.83A.8.8,0,0,0,44.21,66.1Z"/><path class="cls-10" d="M86.29,62.41c-.26-.44-.28-1-.7-1.31A2.26,2.26,0,0,0,83.86,61a31.91,31.91,0,0,0-3.14,1.08,17.26,17.26,0,0,0-4.23,4.17c-2.08,2.7-2.21,8.39,2.49,7.59a19.31,19.31,0,0,0,2.6-.63A8.16,8.16,0,0,0,87,68.59a7.72,7.72,0,0,0,.41-3,9.58,9.58,0,0,0-.18-1.51A5.1,5.1,0,0,0,86.29,62.41Z"/><path class="cls-20" d="M136.48,21.35l-1.77,1.34c-4.62,3.49-9.08,7.2-13.57,10.86q-9.51,7.77-19,15.62l-8.79,7.28-3.74,3.1c-.55.45-1.11.89-1.65,1.36-.88.78-.16,1.35-.66,2.24s-2.13.27-2.81.63a13.21,13.21,0,0,0-2.24,1.83l.44,3.28a5.91,5.91,0,0,0,2.6-1.65c5.13-5.39,45.13-39.12,52.2-45.26C138.32,21.29,137.35,20.69,136.48,21.35Z"/></g></g></g></g></svg>