<svg xmlns="http://www.w3.org/2000/svg" viewBox="0 0 130.59 205.93"><defs><style>.cls-1{isolation:isolate;}.cls-2{fill:#dde7e7;}.cls-3{fill:#acc0c4;opacity:0.29;}.cls-11,.cls-12,.cls-3{mix-blend-mode:multiply;}.cls-4{fill:#afc5c9;}.cls-5{fill:#f8e817;}.cls-6{fill:#41343e;}.cls-7{fill:#929b9d;}.cls-8{fill:#72797a;}.cls-9{fill:#e9734b;}.cls-10{fill:#369ec0;}.cls-10,.cls-11,.cls-12{opacity:0.91;}.cls-11{fill:#dcc8b9;}.cls-12{fill:#c8d8d9;}</style></defs><title>electricidad_industrial</title><g class="cls-1"><g id="Capa_2" data-name="Capa 2"><g id="iconos"><g id="electricidad_industrial" data-name="electricidad industrial"><rect class="cls-2" width="130.51" height="153.53"/><polygon class="cls-3" points="130.59 0 130.59 153.53 0.07 153.53 130.59 0"/><rect class="cls-4" x="19" y="19.25" width="93.02" height="115.85"/><path class="cls-5" d="M43.69,121.44a1.82,1.82,0,0,1-1.71-3L63.89,80.54a2,2,0,0,1,1.7-1.18,2,2,0,0,1,1.7,1.18l21.92,37.95a1.82,1.82,0,0,1-1.7,3Z"/><path class="cls-6" d="M85.05,116.8,66.68,85a1.15,1.15,0,0,0-2.17,0L46.14,116.8c-.6,1-.11,1.88,1.08,1.88H84C85.16,118.68,85.65,117.84,85.05,116.8Zm-35.73-.58L65.59,88l16.28,28.19Z"/><polygon class="cls-6" points="66.3 96.29 60.64 106.37 65.32 106.37 63.33 114.71 69.72 104.18 64.74 104.19 66.3 96.29"/><path class="cls-2" d="M40.37,76.77a7.87,7.87,0,1,1-7.87-7.86A7.87,7.87,0,0,1,40.37,76.77Z"/><path class="cls-7" d="M34.35,75.94a1.82,1.82,0,0,1-1.14,1.69v1.92a.71.71,0,1,1-1.41,0V77.63a1.82,1.82,0,0,1-1.14-1.69,1.85,1.85,0,1,1,3.69,0Z"/><path class="cls-2" d="M89.25,35.41h-48a4.2,4.2,0,0,1,1.19-2.91,4.11,4.11,0,0,1,2.91-1.2H85.16A4.11,4.11,0,0,1,89.25,35.41Z"/><path class="cls-7" d="M88.17,35.41a3.9,3.9,0,0,1-3.9,3.9h-38a3.92,3.92,0,0,1-3.93-3.9Z"/><path class="cls-8" d="M46.27,37.34a2.92,2.92,0,0,1-2.77-1.93H87a2.93,2.93,0,0,1-2.75,1.93Z"/><path class="cls-2" d="M89.25,45.24h-48a4.2,4.2,0,0,1,1.19-2.92,4.15,4.15,0,0,1,2.91-1.19H85.16A4.11,4.11,0,0,1,89.25,45.24Z"/><path class="cls-7" d="M88.17,45.24a3.9,3.9,0,0,1-3.9,3.9h-38a3.92,3.92,0,0,1-3.93-3.9Z"/><path class="cls-2" d="M89.25,55.06h-48a4.2,4.2,0,0,1,1.19-2.91A4.11,4.11,0,0,1,45.37,51H85.16A4.11,4.11,0,0,1,89.25,55.06Z"/><path class="cls-7" d="M88.17,55.06a3.9,3.9,0,0,1-3.9,3.9h-38a3.92,3.92,0,0,1-3.93-3.9Z"/><path class="cls-8" d="M46.27,47.17a2.94,2.94,0,0,1-2.77-1.93H87a2.94,2.94,0,0,1-2.75,1.93Z"/><path class="cls-8" d="M46.27,57a2.92,2.92,0,0,1-2.77-1.93H87A2.93,2.93,0,0,1,84.27,57Z"/><rect class="cls-9" x="43.93" y="153.53" width="17.93" height="52.4"/><rect class="cls-10" x="68.5" y="153.53" width="17.93" height="52.4"/><rect class="cls-11" x="45.16" y="156.48" width="15.35" height="4.3"/><rect class="cls-11" x="45.16" y="164.71" width="15.35" height="4.3"/><rect class="cls-11" x="45.16" y="172.94" width="15.35" height="4.29"/><rect class="cls-11" x="45.16" y="181.17" width="15.35" height="4.3"/><rect class="cls-11" x="45.16" y="189.39" width="15.35" height="4.3"/><rect class="cls-11" x="45.16" y="197.62" width="15.35" height="4.3"/><rect class="cls-12" x="69.79" y="156.48" width="15.35" height="4.3"/><rect class="cls-12" x="69.79" y="164.71" width="15.35" height="4.3"/><rect class="cls-12" x="69.79" y="172.94" width="15.35" height="4.29"/><rect class="cls-12" x="69.79" y="181.17" width="15.35" height="4.3"/><rect class="cls-12" x="69.79" y="189.39" width="15.35" height="4.3"/><rect class="cls-12" x="69.79" y="197.62" width="15.35" height="4.3"/></g></g></g></g></svg>