<svg xmlns="http://www.w3.org/2000/svg" viewBox="0 0 166.92 184.46"><defs><style>.cls-1{isolation:isolate;}.cls-2{fill:#48a3a5;}.cls-3{fill:#56b9bf;}.cls-4{fill:#666;opacity:0.29;mix-blend-mode:multiply;}.cls-5{fill:#ddeaeb;}.cls-6{fill:#fccc12;}.cls-7{fill:#a0c1c7;}.cls-8{fill:#f2f2f2;}.cls-9{fill:#f87011;}</style></defs><title>fabricacion y diseno de sistemas electronicos</title><g class="cls-1"><g id="Capa_2" data-name="Capa 2"><g id="iconos"><g id="fabricacion_y_diseno_de_sistemas_electronicos" data-name="fabricacion y diseno de sistemas electronicos"><rect class="cls-2" x="14.36" y="55.07" width="145.11" height="78.57"/><rect class="cls-3" x="9.81" y="36.48" width="154.21" height="46.17"/><polygon class="cls-2" points="162.96 36.48 9.81 36.48 29.13 18.28 144.75 18.28 162.96 36.48"/><path class="cls-3" d="M118.19,0h-59A4.81,4.81,0,0,0,54.3,4.85V26.06H65.52V10.92h46.31V26.06H123V4.85A4.8,4.8,0,0,0,118.19,0Z"/><rect class="cls-4" x="14.37" y="82.65" width="145.1" height="7.97"/><rect class="cls-5" x="27.84" y="77.18" width="20.18" height="21.96"/><rect class="cls-5" x="127" y="77.18" width="20.18" height="21.96"/><rect class="cls-2" x="32.81" y="80.1" width="10.23" height="14.34"/><rect class="cls-2" x="131.97" y="80.1" width="10.23" height="14.34"/><rect class="cls-4" x="27.84" y="41.74" width="20.18" height="30.81"/><rect class="cls-4" x="127" y="41.74" width="20.18" height="30.81"/><path class="cls-6" d="M148.18,159l-49.3,2.15-3.52.17V181.9l3.54.16h0l49.27,2.12,5.89.25a12.82,12.82,0,0,0,9.08-21.88,13.6,13.6,0,0,0-4.1-2.75,12.42,12.42,0,0,0-5-1Zm9.92,12.61a4.19,4.19,0,1,1-4.19-4.18A4.19,4.19,0,0,1,158.1,171.65Z"/><path class="cls-6" d="M93.71,158.81A2.3,2.3,0,0,1,96,161.1v21.06a2.31,2.31,0,0,1-2.3,2.3H92.59a2.28,2.28,0,0,1-2.29-2.28V161.11a2.29,2.29,0,0,1,2.3-2.3Z"/><polygon class="cls-7" points="11.77 165.15 17.56 167.35 90.29 167.33 90.3 175.94 17.57 175.96 11.78 178.16 0.01 175.67 0.01 167.65 11.77 165.15"/><path class="cls-8" d="M0,168.41l9.37-1c1.8,0,3.23,2.49,3.23,4.3s-1.5,4.1-3.3,4.09L0,174.91Z"/><polygon class="cls-9" points="142.81 159.01 142.81 184.21 109.53 182.78 109.53 160.47 142.81 159.01"/></g></g></g></g></svg>