<svg xmlns="http://www.w3.org/2000/svg" xmlns:xlink="http://www.w3.org/1999/xlink" viewBox="0 0 322.08 518.84"><defs><style>.cls-1{fill:#355689;}.cls-2{fill:#513e29;}.cls-3{fill:url(#Degradado_sin_nombre_45);}.cls-4{fill:url(#Degradado_sin_nombre_195);}.cls-5{fill:#836cd3;}.cls-6{fill:url(#Degradado_sin_nombre_15);}.cls-7{fill:#d8d7ce;}.cls-8{fill:url(#Degradado_sin_nombre_45-2);}.cls-9{fill:url(#Degradado_sin_nombre_45-3);}.cls-10{fill:url(#Degradado_sin_nombre_73);}.cls-11{fill-opacity:0.2;}.cls-12{fill:#b7b2ae;}</style><linearGradient id="Degradado_sin_nombre_45" x1="137.33" y1="152.88" x2="265.76" y2="152.88" gradientUnits="userSpaceOnUse"><stop offset="0" stop-color="#bd9f66"/><stop offset="1" stop-color="#bd9f66"/></linearGradient><linearGradient id="Degradado_sin_nombre_195" x1="287.74" y1="407.56" x2="320.56" y2="407.56" gradientUnits="userSpaceOnUse"><stop offset="0" stop-color="#7f413e"/><stop offset="0.28" stop-color="#7f483e"/><stop offset="0.7" stop-color="#7f5c3e"/><stop offset="0.77" stop-color="#7f603e"/></linearGradient><linearGradient id="Degradado_sin_nombre_15" x1="54.63" y1="353.76" x2="296.66" y2="353.76" gradientUnits="userSpaceOnUse"><stop offset="0" stop-color="blue"/><stop offset="0.22" stop-color="#0302fc"/><stop offset="0.4" stop-color="#0e07f3"/><stop offset="0.57" stop-color="#1f10e5"/><stop offset="0.73" stop-color="#381dd0"/><stop offset="0.89" stop-color="#572db6"/><stop offset="1" stop-color="#723b9f"/></linearGradient><linearGradient id="Degradado_sin_nombre_45-2" x1="221.93" y1="266.72" x2="268.21" y2="266.72" xlink:href="#Degradado_sin_nombre_45"/><linearGradient id="Degradado_sin_nombre_45-3" x1="165.68" y1="400.44" x2="108.01" y2="258.26" xlink:href="#Degradado_sin_nombre_45"/><linearGradient id="Degradado_sin_nombre_73" x1="141.12" y1="60.22" x2="285.6" y2="60.22" gradientUnits="userSpaceOnUse"><stop offset="0" stop-color="#b4b4b5"/><stop offset="0.22" stop-color="#ccc"/><stop offset="0.53" stop-color="#e8e8e8"/><stop offset="0.8" stop-color="#f9f9f9"/><stop offset="1" stop-color="#fff"/></linearGradient></defs><title>3ing</title><g id="Capa_2" data-name="Capa 2"><g id="ilustracion_megatron"><g id="ing2"><path class="cls-1" d="M127.85,195s19-5.31,38.31-5.31l-8.35,21.25Z"/><path class="cls-1" d="M220,200.3c1.14,0,18.21,4.94,25,9.49l-14,13.28Z"/><path class="cls-2" d="M156.3,145.3s-5.31,21.24,9.1,22.76l15.94-22.51S154,118,159.33,101.29,170,108.88,170,108.88l1.52,11.38s11.38-3,17.45-21.25c0,0,8.35-32.62,37.94-22s44,14.42,41.73,5.31-.76-22-36.42-36.42-69-7.58-91,28.83c0,0-14.41,12.9-.76,26.56,0,0-10.62,15.93,3.8,15.93C144.16,117.22,135.81,143.78,156.3,145.3Z"/><path class="cls-3" d="M137.33,198s15.17,7.58,25-8.35a416.62,416.62,0,0,0,6.07-54.25s-14-.38-12.52-28.07,14-11,15.93-4.17c0,0,2.66-44.39,52.35-41.73s41,65.25,41,65.25-6.07,70.56-40.59,75.11c0,0-3.41,10.24,15.94,13.66,0,0-16.7,33.38-45.15,28.45S153.26,222.31,137.33,198Z"/><path class="cls-4" d="M316.89,296.28s-8.09,84,1,109.26-8.1,113.3-8.1,113.3l-13.15-2.53S284.52,315.5,288.57,306.4,316.89,296.28,316.89,296.28Z"/><path class="cls-5" d="M0,344.08s31.11-96.74,34.9-103.94,8.35-44.77,58-44.39c0,0,40.6-1.9,47.8-5.31s4.94,5.31,10.63,14,19.72,35.28,45.9,35.66,35.66-22.39,37.18-28.08,4.17-7.2,9.48-4.55,47.8,26.18,50.46,26.18,17.07,4.55,27.69,61.07l-73.22,26.18L214.34,491.27,126.71,349s-81.95,8.35-89.53,8S14,357.74,0,344.08Z"/><path class="cls-6" d="M59.94,415s68.28,80.05,236.72,101.29c0,0-14.3-181.5-6.07-243.55,6.07-45.77,3.8-39.07,3.8-39.07s-1.52-6.45-42.49-21.63c0,0-10.63-9.86-15.18,8.35s-11.38,8.35-17.45,116.08S214,471.55,214,471.55s-17.45-153.26-32.62-198.79-41-74.35-41-74.35,0-9.11-17.45-6.83-31.86,5.31-41,4.55S69,199.92,71.32,211.31s18.21,110,10.62,124.43L54.63,349.39Z"/><path class="cls-7" d="M290.59,431.34s-5.31-188.93-11.38-204.1c0,0-3-5.31-22-12.14,0,0,24.24,127.3,6.86,218.34l-50.11,4v34.15l-6.07-34.15s-44,.76-59.18-7.58c0,0-17.45-185.89-27.31-220,0,0-3-15.94-11.38-15.18s-19-3-15.18,9.11,25.8,61.45,17.45,223.82l-41.73-3.79s56.91,43.25,85,53.87c0,0,113.81,5.31,136.57-11.38Z"/><path class="cls-8" d="M255.69,280.35c1.52,2.28,6.83,8.34,12.52,1.9,0,0-26.94-28.46-29.21-30s-15.93-9.49-17.07,2.65C221.93,254.93,254.17,278.07,255.69,280.35Z"/><path class="cls-9" d="M247.34,285.28s4.56-10.24-8.72-12.14c0,0,4.93-9.86-7.59-11.76,0,0,4.17-4.55.38-9.48s-11.76-2.28-15.93,6.83-19,38.69-39.46,45.9-36.79,16.69-102.8,34.52c-3.33.9-6.4,1.6-9.27,2.17a23.24,23.24,0,0,1-10,2.53c-10,3.38-20.4,4.73-30.66,2.32-2.6,21.92-.44,47.51,18.86,61.64C80.42,435.89,176,338.39,202.58,328.53s48.18-25,51.21-34.14C253.79,294.39,257.21,285.28,247.34,285.28Z"/><path class="cls-10" d="M198,2.66s22.76-8.35,29.59,4.55c0,0,57.66,12.14,48.56,78.91,0,0,32.62,41-23.52,33.38s-33.39-.76-73.6-22.76c0,0-23.52-3.8-37.94-22C141.12,74.73,141.12,15.55,198,2.66Z"/><path class="cls-11" d="M59.94,415s-.25.13-17.83-7.21c0,0,49.19-11.38,150.35-85.23,0,0,14.17-6.07,39.46-16.18,0,0,15.42-5.82,21.87-12,0,0-21.87,26.93-51.21,34.14,0,0-21.24,12.26-72.84,51.72,0,0,1,32.37-43.5,59.68C86.24,439.93,66,426.53,59.94,415Z"/><polygon class="cls-11" points="289.58 383.28 252.15 510.75 296.66 516.31 289.58 383.28"/><path class="cls-11" d="M77.14,264.92,53.91,343.85l28-8.11S86.24,326.63,77.14,264.92Z"/><path class="cls-11" d="M224.58,201.82c2.81-.48-51.84-9.74-56.14-66.39l-3,32.63S179.82,209.53,224.58,201.82Z"/><path class="cls-12" d="M179.06,96.74s26.55,17.45,52.86,20.48c0,0-48.56-22.25-17.2-22.25,0,0-95.09-23.27-10.12-94.08,0,0-56.14,4-63.48,73.84C141.12,74.73,158.57,94.46,179.06,96.74Z"/></g></g></g></svg>