<svg xmlns="http://www.w3.org/2000/svg" xmlns:xlink="http://www.w3.org/1999/xlink" viewBox="0 0 744.53 786.5"><defs><style>.cls-1{fill:#db6e83;}.cls-2{fill:#dd0222;}.cls-3{fill:#355689;}.cls-4{fill:#404378;}.cls-5{fill:url(#Degradado_sin_nombre_193);}.cls-6{fill:url(#Degradado_sin_nombre_195);}.cls-7{fill:url(#Degradado_sin_nombre_180);}.cls-16,.cls-8{stroke-miterlimit:10;}.cls-8{fill:url(#Degradado_sin_nombre_44);stroke:url(#Naranja_amarillo);}.cls-9{fill:#fcd270;}.cls-10{fill:url(#Degradado_sin_nombre_193-2);}.cls-11{fill:url(#Degradado_sin_nombre_195-2);}.cls-12{fill:url(#Degradado_sin_nombre_229);}.cls-13{fill-opacity:0.2;}.cls-14{fill:#fb8933;}.cls-15{fill:url(#Degradado_sin_nombre_66);}.cls-16{fill:url(#Degradado_sin_nombre_198);stroke:url(#Degradado_sin_nombre_210);}.cls-17{fill:#fcc65a;}.cls-18{fill:url(#Degradado_sin_nombre_66-2);}.cls-19{fill:url(#Degradado_sin_nombre_66-3);}.cls-20{fill:url(#Degradado_sin_nombre_220);}.cls-21{fill:#d1dfea;}.cls-22{fill:#804237;}.cls-23{fill:url(#Degradado_sin_nombre_91);}.cls-24{fill:#d8e2eb;}.cls-25{fill:url(#Degradado_sin_nombre_171);}.cls-26{fill:url(#Degradado_sin_nombre_72);}.cls-27{fill:#ca7454;}.cls-28{fill:#b26b5b;opacity:0.25;}.cls-29{fill:#de3556;}.cls-30{fill:#bdaeb3;}.cls-31{fill:#d6c6d0;}.cls-32{fill:#f2e0de;}</style><linearGradient id="Degradado_sin_nombre_193" x1="165.53" y1="414.43" x2="293.96" y2="414.43" gradientUnits="userSpaceOnUse"><stop offset="0" stop-color="#7f413e"/><stop offset="0.37" stop-color="#7f483e"/><stop offset="0.91" stop-color="#7f5c3e"/><stop offset="1" stop-color="#7f603e"/></linearGradient><linearGradient id="Degradado_sin_nombre_195" x1="315.94" y1="669.11" x2="348.76" y2="669.11" gradientUnits="userSpaceOnUse"><stop offset="0" stop-color="#7f413e"/><stop offset="0.28" stop-color="#7f483e"/><stop offset="0.7" stop-color="#7f5c3e"/><stop offset="0.77" stop-color="#7f603e"/></linearGradient><linearGradient id="Degradado_sin_nombre_180" x1="189.24" y1="752.82" x2="189.24" y2="451.23" gradientUnits="userSpaceOnUse"><stop offset="0" stop-color="#4b7ec0"/><stop offset="0.42" stop-color="#4d80c2"/><stop offset="0.63" stop-color="#5488c8"/><stop offset="0.79" stop-color="#6095d2"/><stop offset="0.93" stop-color="#70a8e0"/><stop offset="1" stop-color="#7bb4e9"/></linearGradient><linearGradient id="Degradado_sin_nombre_44" x1="82.83" y1="615.31" x2="324.86" y2="615.31" gradientUnits="userSpaceOnUse"><stop offset="0" stop-color="#e49d48"/><stop offset="0.32" stop-color="#e39a48"/><stop offset="0.59" stop-color="#e08f49"/><stop offset="0.84" stop-color="#db7e4b"/><stop offset="1" stop-color="#d66e4d"/></linearGradient><linearGradient id="Naranja_amarillo" x1="82.3" y1="615.35" x2="325.41" y2="615.35" gradientUnits="userSpaceOnUse"><stop offset="0" stop-color="#fff241"/><stop offset="0.01" stop-color="#feef3d"/><stop offset="0.07" stop-color="#f7df22"/><stop offset="0.14" stop-color="#f3d40f"/><stop offset="0.21" stop-color="#f0cd04"/><stop offset="0.28" stop-color="#efcb00"/><stop offset="0.67" stop-color="#db933b"/><stop offset="0.89" stop-color="#ce6535"/><stop offset="1" stop-color="#c53830"/></linearGradient><linearGradient id="Degradado_sin_nombre_193-2" x1="250.13" y1="528.27" x2="296.41" y2="528.27" xlink:href="#Degradado_sin_nombre_193"/><linearGradient id="Degradado_sin_nombre_195-2" x1="193.88" y1="661.99" x2="136.21" y2="519.8" xlink:href="#Degradado_sin_nombre_195"/><linearGradient id="Degradado_sin_nombre_229" x1="169.32" y1="321.77" x2="313.8" y2="321.77" gradientUnits="userSpaceOnUse"><stop offset="0" stop-color="#ecb646"/><stop offset="0.22" stop-color="#edba4e"/><stop offset="0.56" stop-color="#f1c663"/><stop offset="0.96" stop-color="#f7d885"/></linearGradient><linearGradient id="Degradado_sin_nombre_66" x1="496.86" y1="608.66" x2="496.86" y2="452.42" gradientUnits="userSpaceOnUse"><stop offset="0" stop-color="#4b7ec0"/><stop offset="0.12" stop-color="#5589c9"/><stop offset="0.49" stop-color="#71a8e0"/><stop offset="0.69" stop-color="#7bb4e9"/><stop offset="0.98" stop-color="#7bcbe9"/></linearGradient><linearGradient id="Degradado_sin_nombre_198" x1="370.38" y1="607.91" x2="613.93" y2="607.91" gradientUnits="userSpaceOnUse"><stop offset="0" stop-color="#d66e4d"/><stop offset="0.13" stop-color="#d9794c"/><stop offset="0.42" stop-color="#df8d4a"/><stop offset="0.71" stop-color="#e39948"/><stop offset="1" stop-color="#e49d48"/></linearGradient><linearGradient id="Degradado_sin_nombre_210" x1="369.8" y1="607.91" x2="614.45" y2="607.91" gradientUnits="userSpaceOnUse"><stop offset="0.41" stop-color="#c53830"/><stop offset="1" stop-color="#fff241"/></linearGradient><linearGradient id="Degradado_sin_nombre_66-2" x1="541.04" y1="580.36" x2="661.82" y2="580.36" xlink:href="#Degradado_sin_nombre_66"/><linearGradient id="Degradado_sin_nombre_66-3" x1="559" y1="698.63" x2="587.66" y2="623.19" xlink:href="#Degradado_sin_nombre_66"/><linearGradient id="Degradado_sin_nombre_220" x1="376.24" y1="625.12" x2="477.56" y2="625.12" gradientUnits="userSpaceOnUse"><stop offset="0.04" stop-color="#ffc493"/><stop offset="0.49" stop-color="#fec292"/><stop offset="0.65" stop-color="#f9bb8c"/><stop offset="0.77" stop-color="#f1b083"/><stop offset="0.86" stop-color="#e69f76"/><stop offset="0.94" stop-color="#d88964"/><stop offset="1" stop-color="#ca7454"/></linearGradient><linearGradient id="Degradado_sin_nombre_91" x1="457.26" y1="535.07" x2="457.26" y2="483.48" gradientUnits="userSpaceOnUse"><stop offset="0" stop-color="#fff"/><stop offset="0.14" stop-color="#f5f3fd"/><stop offset="0.39" stop-color="#dad3f7"/><stop offset="0.73" stop-color="#aea0ed"/><stop offset="1" stop-color="#8772e5"/></linearGradient><linearGradient id="Degradado_sin_nombre_171" x1="396.8" y1="422.52" x2="510.83" y2="422.52" gradientUnits="userSpaceOnUse"><stop offset="0.04" stop-color="#ffc493"/><stop offset="0.38" stop-color="#fdc291"/><stop offset="0.57" stop-color="#f8ba8b"/><stop offset="0.72" stop-color="#efac80"/><stop offset="0.84" stop-color="#e39971"/><stop offset="0.95" stop-color="#d2805e"/><stop offset="1" stop-color="#ca7454"/></linearGradient><linearGradient id="Degradado_sin_nombre_72" x1="378.95" y1="338.48" x2="526.46" y2="338.48" gradientUnits="userSpaceOnUse"><stop offset="0" stop-color="#f7d885"/><stop offset="0.68" stop-color="#ecb646"/></linearGradient></defs><title>ingenieros</title><g id="Capa_2" data-name="Capa 2"><g id="ilustracion_megatron"><g id="ingenieros"><path id="fondo" class="cls-1" d="M3.16,374.89C5.63,352.21,33.51,174.59,164,176.11s147.19,80.42,286.8,33.38,248.86-75.87,241.27,56.15-56.14,182.09,9.11,235.2S777.06,637.41,596.48,740.6-42.36,793.71,3.16,374.89Z"/><g id="torre"><path class="cls-2" d="M668.56,448.82V418.93C667.38,429.68,667.19,439.54,668.56,448.82Z"/><path class="cls-2" d="M677.48,474.37a70.05,70.05,0,0,1-8.92-25.55v25.55Z"/><path class="cls-2" d="M701.19,500.84c-10.79-8.78-18.45-17.47-23.71-26.47h-8.92V448.82c-1.37-9.28-1.18-19.14,0-29.89V313.52H587.74c-3.75-22.86-7.1-43.15-9.63-58.35h67.78v27.21A11.63,11.63,0,0,0,657.52,294h9.7V241.8l-70.7-70.71-19.76-19.76V116.92h69.13v17.49a21.34,21.34,0,0,0,21.33,21.34h0V103.54L576.76,13.07V0H476.54a13.07,13.07,0,0,0-13.07,13.07L373,103.54v52.21h0a21.35,21.35,0,0,0,21.34-21.34V116.92h69.13v34.41l-72,72L373,241.8V294h0a21.35,21.35,0,0,0,21.34-21.34v-17.5h67.77c-4.15,25-10.56,63.8-17.24,105.21l-4.79,5.06,3.42,3.45c-2.27,14.11-4.55,28.42-6.78,42.51h-9.43V340.83H436v-8.72l-35.66-35.66-39.83,39.83v7.59h10.62v71.32H340.79v83.46H285.41V272.55H271.75V255.86H218.64v16.69H208V606.39L189.81,624.6V356H91.17V618.53H65.38V403.05H.83C-21.54,795.92,420,841.43,596.48,740.6,777.06,637.41,766.44,554,701.19,500.84ZM576.76,43.24l52.33,52.34H576.76Zm-95.68,228,23.75,25.84L471,332.82C474.44,311.51,477.87,290.63,481.08,271.25Zm14.21-16.08h49.24l-25,26.39Zm23-138.25h25.6l-25.75,41-27.66-40.95ZM499.17,95.58l20.94-20.79,19.66,20.79h-40.6Zm19.62,101.36,24.92,36.9H495.59Zm40.29,73.9c3.4,20.53,7,42.77,10.72,65.41L534,297.3Zm-3.66-57.77-20.14-29.84-4.08-6,24.22-38.52v74.39Zm0-132L535.25,59.75l20.17-20ZM516.59,21.34h27.07L520.58,44.25,498.91,21.34Zm-31.8,16.12,20.65,21.83L484.76,79.82Zm-.07,109,21,31.12-11,17.5-10.06,16V198.3ZM411.13,95.58l52.34-52.34V95.58Zm0,138.26,17.71-17.71,34.63-34.63v52.34Zm72.3,177.56H458.37q1.85-11.7,3.77-23.71l23.51,23.71Zm-13.64-46.3,49.51-52.27,51.4,55.93-49,48.64-2.57-2.59V411.4h-3.38ZM519.09,460V450l2.44-2.42L533.81,460ZM576,460H563.86l-27.18-27.41,39.32-39Zm.76-278.45,52.33,52.34H576.76Z"/></g><g id="ing2"><path class="cls-3" d="M156,456.54s19-5.31,38.32-5.31L186,472.47Z"/><path class="cls-3" d="M248.23,461.85c1.14,0,18.21,4.93,25,9.49l-14,13.27Z"/><path class="cls-4" d="M184.5,406.84s-5.31,21.25,9.1,22.77l15.93-22.51s-27.31-27.57-22-44.26,10.62,7.59,10.62,7.59l1.52,11.38s11.38-3,17.45-21.25c0,0,8.35-32.62,37.94-22s44,14.41,41.73,5.31-.76-22-36.42-36.42-69-7.59-91.05,28.83c0,0-14.41,12.9-.76,26.56,0,0-10.62,15.93,3.8,15.93C172.36,378.77,164,405.33,184.5,406.84Z"/><path class="cls-5" d="M165.53,459.58s15.17,7.58,25-8.35A416.62,416.62,0,0,0,196.64,397s-14-.38-12.52-28.07,14-11,15.93-4.18c0,0,2.66-44.38,52.35-41.72s41,65.25,41,65.25-6.07,70.56-40.59,75.11c0,0-3.41,10.24,15.93,13.66,0,0-16.69,33.38-45.14,28.45S181.46,483.85,165.53,459.58Z"/><path class="cls-6" d="M345.09,557.83s-8.09,84,1,109.26S338,780.39,338,780.39l-13.15-2.53S312.72,577.05,316.77,568,345.09,557.83,345.09,557.83Z"/><path class="cls-7" d="M28.2,605.63s31.11-96.74,34.9-103.95,8.35-44.76,58-44.38c0,0,40.59-1.9,47.8-5.31s4.93,5.31,10.62,14,19.73,35.29,45.91,35.66,35.66-22.38,37.18-28.07,4.17-7.21,9.48-4.55,47.8,26.18,50.45,26.18,17.08,4.55,27.7,61.07l-73.22,26.18L242.54,752.82,154.91,610.56s-81.95,8.35-89.53,8S42.24,619.29,28.2,605.63Z"/><path class="cls-8" d="M88.14,676.57s68.28,80,236.72,101.29c0,0-14.3-181.5-6.07-243.55,6.07-45.78,3.79-39.07,3.79-39.07s-1.51-6.45-42.48-21.63c0,0-10.63-9.86-15.18,8.35S253.54,490.3,247.47,598s-5.31,135.06-5.31,135.06-17.45-153.27-32.63-198.79-41-74.36-41-74.36,0-9.1-17.45-6.82-31.86,5.31-41,4.55-12.9,3.79-10.62,15.17,18.21,110,10.62,124.43L82.83,610.94Z"/><path class="cls-9" d="M318.79,692.88S313.48,504,307.41,488.79c0,0-3-5.31-22-12.14,0,0,24.24,127.3,6.86,218.33l-50.11,4V733.1L236.09,699s-44,.76-59.18-7.58c0,0-17.45-185.89-27.31-220,0,0-3-15.94-11.39-15.18s-19-3-15.17,9.11,25.8,61.45,17.45,223.82L98.76,685.3s56.9,43.24,85,53.87c0,0,113.81,5.31,136.57-11.39Z"/><path class="cls-10" d="M283.89,541.9c1.52,2.27,6.83,8.34,12.52,1.89,0,0-26.94-28.45-29.21-30s-15.94-9.48-17.07,2.66C250.13,516.48,282.37,539.62,283.89,541.9Z"/><path class="cls-11" d="M275.54,546.83s4.56-10.24-8.72-12.14c0,0,4.93-9.86-7.59-11.76,0,0,4.17-4.55.38-9.48s-11.76-2.28-15.93,6.82-19,38.7-39.46,45.91-36.79,16.69-102.8,34.52c-3.33.9-6.4,1.6-9.27,2.16a23.11,23.11,0,0,1-10,2.54c-10,3.38-20.4,4.73-30.66,2.32-2.6,21.92-.44,47.5,18.86,61.64,38.31,28.08,133.91-69.42,160.47-79.28S279,565,282,555.93C282,555.93,285.41,546.83,275.54,546.83Z"/><path class="cls-12" d="M226.23,264.2s22.76-8.34,29.59,4.56c0,0,57.66,12.14,48.56,78.9,0,0,32.62,41-23.53,33.39s-33.38-.76-73.59-22.76c0,0-23.52-3.8-37.94-22C169.32,336.28,169.32,277.1,226.23,264.2Z"/><path class="cls-13" d="M88.14,676.57s-.25.13-17.83-7.21c0,0,49.19-11.38,150.35-85.23,0,0,14.17-6.07,39.46-16.18,0,0,15.42-5.82,21.87-12,0,0-21.87,26.94-51.21,34.15,0,0-21.25,12.26-72.84,51.72,0,0,1,32.37-43.5,59.68C114.44,701.48,94.21,688.08,88.14,676.57Z"/><polygon class="cls-13" points="317.78 644.83 280.35 772.3 324.86 777.86 317.78 644.83"/><path class="cls-13" d="M105.34,526.47,82.11,605.4l28-8.12S114.44,588.18,105.34,526.47Z"/><path class="cls-13" d="M252.78,463.37c2.81-.49-51.84-9.74-56.14-66.39l-3,32.63S208,471.08,252.78,463.37Z"/><path class="cls-14" d="M207.26,358.29s26.55,17.45,52.86,20.48c0,0-48.56-22.25-17.2-22.25,0,0-95.1-23.27-10.12-94.09,0,0-56.14,4.05-63.48,73.85C169.32,336.28,186.77,356,207.26,358.29Z"/></g><g id="ing"><path class="cls-15" d="M379.49,560.11s3-29.59,15.93-49.32,138.09-64.49,165.4-57.66,45.53,25.79,52.36,53.87-20.49,101.66-47,101.66-55.39-72.83-55.39-72.83-106.22,22-111.53,29.59-1.52,19.72-9.87,20.48S379.49,560.11,379.49,560.11Z"/><path class="cls-16" d="M511.51,435.68c3,0,50.83,0,77.39,29.59,0,0-20.49-16.7-34.15-6.83s-31.1,88.77-11.38,131.26c0,0,4.56,18.21,27.32,20.48s43.24,2.28,43.24,2.28l-3.79,117.6s-43.25,47-239.76,50.08c0,0,26.56-182.1,22-223.83,0,0,0-50.07,7.58-54.63s34.15-22,34.15-22,12.14,42.49,7.58,48.56c0,0,37.18-42.49,56.15-61.46S511.51,435.68,511.51,435.68Z"/><path class="cls-17" d="M538.06,439.47s-50.83-19.73-78.15,276.18l-59.18-6.07s-6.07-163.89,34.9-217l-1.51-12.9S385.56,492.58,381,702l-7.59,51.59s94.08,16.69,116.84,16.69,89.53-18.21,119.88-40.21v-22s-27.31,27.31-121.39,13.65c0,0-13.66-232.16,65.25-277.69Z"/><path class="cls-13" d="M561.58,573.76s-54.63,113,48.56,156.3C610.14,730.06,625.32,630.67,561.58,573.76Z"/><path class="cls-18" d="M541.1,509.27s-2.28-37.18,22.76-43.25,39.45,1.52,54.63,57.67,19.72,63,25.79,78.15,33.39,86.49,4.56,94.08S573,627.63,573,623.08s0-18.21-11.38-49.32S543.37,532,541.1,509.27Z"/><path class="cls-19" d="M499.37,603.35s63.73,21.25,91,21.25,62.22,1.52,62.22,1.52,41,100.91-47,68.28-35.66-22.76-113.81-47Z"/><path class="cls-20" d="M475.57,598.58c-10-1.47-48.5-9.64-65.37-6.42a2.33,2.33,0,0,0-1.81,2.87l.51,2.05a2.33,2.33,0,0,1-1.1,2.59c-8,4.63-44,26.37-27.08,33.27a2.37,2.37,0,0,1,1.41,3c-.93,2.69-1.76,7,2,7.5a2.4,2.4,0,0,1,2.15,2.46c-.15,3.13.35,7.95,5,7.27a2.4,2.4,0,0,1,2.72,1.65c.75,2.81,3.14,6.55,10.79,1.68,11.13-7.08,43.5-7.58,54.63-12.14,7.77-3.17,13.07-4.87,15.56-5.61a2.34,2.34,0,0,0,1.68-2.19l.91-35.56A2.34,2.34,0,0,0,475.57,598.58Z"/><path class="cls-21" d="M475.85,595s-6.83,33.38.76,53.87l27.31,6.83,7.59-58.43Z"/><path class="cls-22" d="M479.64,369.16c1,2.53,4.55,40,4.55,40s4.56,6.07,14.67-31.36c0,0,17.2-9.61,7.59,18.71,0,0-1,9.62-8.6,10.63s-1.52,2-1.52,2l5.57,19.22s13.15-25.29,11.12-59.18S479.64,369.16,479.64,369.16Z"/><polygon class="cls-23" points="436.39 483.48 437.91 535.07 478.12 493.34 452.33 488.03 447.77 504.72 449.29 484.99 436.39 483.48"/><polygon class="cls-24" points="434.12 479.68 429.56 509.27 449.29 484.99 434.12 479.68"/><path class="cls-24" d="M452.33,488s29.59,41.73,29.59,22.76c0-1.52,37.17-31.87,35.66-75.11h-6.07s-3-9.87-7.59-7.59C503.92,428.09,500.88,466,452.33,488Z"/><path class="cls-25" d="M397.7,393.44S403.26,487,448.28,483l-2.53,18.21L463,486s38.95-23.26,41-51.59c0,0-4.05-8.6-8.09-30.35,0,0,4,10.12,8.6-1s8.09-18.21,5.56-25.29-12.14-5.56-13.66,3-6.57,23.27-6.57,23.27-4.56,13.66-7.08-9.1-6.07-51.09-6.07-51.09-76.89,29.34-78.91,36.42A24.29,24.29,0,0,0,397.7,393.44Z"/><path class="cls-26" d="M391.12,356.52s1-61.71,53.11-71.32c0,0,15.68-16.19,31.36,2,0,0,43,9.1,43,61.2,0,0,17.7,8.6,0,18.21s-10.12-12.14-45,16.19S383,395,379.49,380.29,391.12,356.52,391.12,356.52Z"/><path class="cls-27" d="M407.94,614.73c-1.17.68-2.34,1.34-3.49,2s-2.31,1.35-3.45,2.06c-2.28,1.41-4.56,2.82-6.75,4.35a79.22,79.22,0,0,0-6.41,4.8,18.87,18.87,0,0,0-1.5,1.32,15.75,15.75,0,0,0-1.44,1.39c-.46.48-.95.94-1.39,1.45s-.83,1-1.27,1.56a26.09,26.09,0,0,1,5.09-6.29,49.73,49.73,0,0,1,6.35-5,71,71,0,0,1,6.94-4.19A67.78,67.78,0,0,1,407.94,614.73Z"/><path class="cls-27" d="M411.36,626.12c-1.93,1.55-3.9,3-5.87,4.52s-4,2.93-5.95,4.39l-6,4.33c-1,.71-2,1.45-3,2.2a21.28,21.28,0,0,0-2.79,2.4,29.59,29.59,0,0,1,5.28-5.21c1.89-1.59,3.87-3.07,5.86-4.53s4-2.86,6.1-4.21S409.2,627.33,411.36,626.12Z"/><path class="cls-27" d="M415.15,641.67c-2,.63-3.9,1.37-5.81,2.13s-3.78,1.61-5.61,2.54-3.64,1.9-5.39,3-3.47,2.21-5.19,3.37a33.87,33.87,0,0,1,4.76-4,39.94,39.94,0,0,1,5.38-3.2,43.36,43.36,0,0,1,5.78-2.38A31.72,31.72,0,0,1,415.15,641.67Z"/><polygon class="cls-13" points="381.01 651.91 467.5 771.79 370.38 780.14 381.01 651.91"/><path class="cls-13" d="M405.29,651.91l65.25-27.31L475,638.71s16.81-.45,71.44,8.65,39.45,36.42,92.56,34.9c0,0,21.25,0,21.25-27.31,0,0,19.72,65.25-48.56,39.45s-107.74-38.69-107.74-38.69l-33.38-6.83S432.6,651.91,405.29,651.91Z"/><path class="cls-28" d="M496.33,409.12c-.17-1.14-.35-2.17-.52-3.14a10.07,10.07,0,0,1-5.48-1.79,9.33,9.33,0,0,1-5.65,3.15c-.31,1.08-.49,1.78-.49,1.78s-7.58,95.6-62.21,60.7c0,0,31.86,50.07,71.32-34.9C493.3,434.92,500.88,439.47,496.33,409.12Z"/><path class="cls-14" d="M434.12,397s36.42-4.55,51.59-22.76,12.65-3,32.88-7.59,0-18.21,0-18.21-4.55-52.6-43-61.2c0,0,49.57,74.86-33.89,82.45C441.7,369.67,497.85,378.77,434.12,397Z"/></g><g id="planos"><path class="cls-29" d="M250.5,591.9c21.29-9.23,97.09-42.88,115.38-51a5.13,5.13,0,0,1,6.39,1.9l94.46,145a5.14,5.14,0,0,1-2.24,7.51L347.61,746.75a5.15,5.15,0,0,1-6.41-1.94l-93-145.42A5.14,5.14,0,0,1,250.5,591.9Z"/><path class="cls-13" d="M377.47,692.88l-29.86,53.87s-3,6.83-30.34-47.8Z"/><path class="cls-30" d="M377.47,692.88s-34.91,6.07-54.63,21.75-39.46,15.18-39.46,15.18L276.3,573l69.8-25.79s-12.64,11.63,5.06,48.56S377.47,692.88,377.47,692.88Z"/><path class="cls-31" d="M268.21,745.49c-6.36,5,35.41-4,51.09-14.67s44-19.73,44-19.73-54.63-162.87-17.2-163.88l-91.55,43.5S275.29,739.92,268.21,745.49Z"/><path class="cls-32" d="M346.1,547.21s-7.08-4.05-29.33,4.55-63.74,27.82-62.22,44,8.6,139.6,8.6,139.6,77.9-37.43,88.52-35.91-1-2-1-2S304.12,547.71,346.1,547.21Z"/></g></g></g></g></svg>