<svg xmlns="http://www.w3.org/2000/svg" xmlns:xlink="http://www.w3.org/1999/xlink" viewBox="0 0 292.48 501.57"><defs><style>.cls-1{fill:url(#Degradado_sin_nombre_66);}.cls-2{fill:url(#Degradado_sin_nombre_15);}.cls-3{fill:#d8d7ce;}.cls-4{fill-opacity:0.2;}.cls-5{fill:url(#Degradado_sin_nombre_66-2);}.cls-6{fill:url(#Degradado_sin_nombre_66-3);}.cls-7{fill:url(#Degradado_sin_nombre_220);}.cls-8{fill:#d1dfea;}.cls-9{fill:#804237;}.cls-10{fill:url(#Degradado_sin_nombre_91);}.cls-11{fill:#d8e2eb;}.cls-12{fill:url(#Degradado_sin_nombre_171);}.cls-13{fill:url(#Degradado_sin_nombre_63);}.cls-14{fill:#ca7454;}.cls-15{fill:#b26b5b;opacity:0.25;}.cls-16{fill:#b7b2ae;}</style><linearGradient id="Degradado_sin_nombre_66" x1="126.48" y1="330.1" x2="126.48" y2="173.86" gradientUnits="userSpaceOnUse"><stop offset="0" stop-color="#4b7ec0"/><stop offset="0.12" stop-color="#5589c9"/><stop offset="0.49" stop-color="#71a8e0"/><stop offset="0.69" stop-color="#7bb4e9"/><stop offset="0.98" stop-color="#7bcbe9"/></linearGradient><linearGradient id="Degradado_sin_nombre_15" y1="329.34" x2="243.55" y2="329.34" gradientUnits="userSpaceOnUse"><stop offset="0" stop-color="blue"/><stop offset="0.22" stop-color="#0302fc"/><stop offset="0.4" stop-color="#0e07f3"/><stop offset="0.57" stop-color="#1f10e5"/><stop offset="0.73" stop-color="#381dd0"/><stop offset="0.89" stop-color="#572db6"/><stop offset="1" stop-color="#723b9f"/></linearGradient><linearGradient id="Degradado_sin_nombre_66-2" x1="170.66" y1="301.8" x2="291.43" y2="301.8" xlink:href="#Degradado_sin_nombre_66"/><linearGradient id="Degradado_sin_nombre_66-3" x1="188.62" y1="420.06" x2="217.27" y2="344.62" xlink:href="#Degradado_sin_nombre_66"/><linearGradient id="Degradado_sin_nombre_220" x1="5.86" y1="346.55" x2="107.18" y2="346.55" gradientUnits="userSpaceOnUse"><stop offset="0.04" stop-color="#ffc493"/><stop offset="0.49" stop-color="#fec292"/><stop offset="0.65" stop-color="#f9bb8c"/><stop offset="0.77" stop-color="#f1b083"/><stop offset="0.86" stop-color="#e69f76"/><stop offset="0.94" stop-color="#d88964"/><stop offset="1" stop-color="#ca7454"/></linearGradient><linearGradient id="Degradado_sin_nombre_91" x1="86.87" y1="256.5" x2="86.87" y2="204.91" gradientUnits="userSpaceOnUse"><stop offset="0" stop-color="#fff"/><stop offset="0.14" stop-color="#f5f3fd"/><stop offset="0.39" stop-color="#dad3f7"/><stop offset="0.73" stop-color="#aea0ed"/><stop offset="1" stop-color="#8772e5"/></linearGradient><linearGradient id="Degradado_sin_nombre_171" x1="26.41" y1="143.96" x2="140.45" y2="143.96" gradientUnits="userSpaceOnUse"><stop offset="0.04" stop-color="#ffc493"/><stop offset="0.38" stop-color="#fdc291"/><stop offset="0.57" stop-color="#f8ba8b"/><stop offset="0.72" stop-color="#efac80"/><stop offset="0.84" stop-color="#e39971"/><stop offset="0.95" stop-color="#d2805e"/><stop offset="1" stop-color="#ca7454"/></linearGradient><linearGradient id="Degradado_sin_nombre_63" x1="8.57" y1="59.91" x2="156.07" y2="59.91" gradientUnits="userSpaceOnUse"><stop offset="0" stop-color="#fff"/><stop offset="0.17" stop-color="#f8f8f8"/><stop offset="0.43" stop-color="#e5e5e5"/><stop offset="0.73" stop-color="#c5c5c6"/><stop offset="0.87" stop-color="#b4b4b5"/></linearGradient></defs><title>4ing</title><g id="Capa_2" data-name="Capa 2"><g id="ilustracion_megatron"><g id="ing"><path class="cls-1" d="M9.1,281.54S12.14,252,25,232.22s138.09-64.49,165.4-57.66,45.52,25.8,52.35,53.87-20.48,101.67-47,101.67-55.39-72.84-55.39-72.84-106.22,22-111.53,29.59S27.31,306.58,19,307.34,9.1,281.54,9.1,281.54Z"/><path class="cls-2" d="M141.12,157.11c3,0,50.84,0,77.39,29.59,0,0-20.48-16.69-34.14-6.83S153.26,268.64,173,311.13c0,0,4.55,18.21,27.31,20.49s43.25,2.27,43.25,2.27L239.76,451.5S196.51,498.54,0,501.57c0,0,26.56-182.09,22-223.82,0,0,0-50.08,7.59-54.63s34.14-22,34.14-22,12.14,42.48,7.59,48.55c0,0,37.18-42.48,56.15-61.45S141.12,157.11,141.12,157.11Z"/><path class="cls-3" d="M167.68,160.9s-50.84-19.72-78.15,276.18L30.35,431s-6.07-163.88,34.9-217l-1.52-12.89S15.17,214,10.62,423.42L3,475s94.09,16.69,116.85,16.69,89.53-18.21,119.88-40.21v-22s-27.32,27.32-121.4,13.66c0,0-13.66-232.17,65.25-277.69Z"/><path class="cls-4" d="M191.2,295.2s-54.63,113.05,48.56,156.3C239.76,451.5,254.93,352.1,191.2,295.2Z"/><path class="cls-5" d="M170.71,230.71s-2.27-37.18,22.76-43.25,39.46,1.52,54.63,57.66,19.73,63,25.8,78.15,33.38,86.5,4.55,94.08-75.87-68.28-75.87-72.83,0-18.21-11.38-49.32S173,253.47,170.71,230.71Z"/><path class="cls-6" d="M129,324.79S192.72,346,220,346s62.22,1.52,62.22,1.52,41,100.91-47.05,68.29-35.66-22.77-113.8-47Z"/><path class="cls-7" d="M105.19,320c-10-1.47-48.51-9.64-65.38-6.43a2.34,2.34,0,0,0-1.8,2.88l.51,2a2.37,2.37,0,0,1-1.1,2.6c-8,4.62-44,26.36-27.08,33.27a2.36,2.36,0,0,1,1.4,3c-.92,2.69-1.75,7,2,7.49a2.4,2.4,0,0,1,2.15,2.46c-.15,3.13.35,8,5,7.27a2.4,2.4,0,0,1,2.72,1.66c.74,2.81,3.14,6.55,10.79,1.68,11.12-7.08,43.5-7.59,54.62-12.14a164.06,164.06,0,0,1,15.57-5.61,2.34,2.34,0,0,0,1.68-2.19l.91-35.57A2.33,2.33,0,0,0,105.19,320Z"/><path class="cls-8" d="M105.46,316.44s-6.83,33.39.76,53.87l27.32,6.83,7.58-58.42Z"/><path class="cls-9" d="M109.26,90.6c1,2.52,4.55,40,4.55,40s4.55,6.07,14.67-31.36c0,0,17.2-9.61,7.58,18.72,0,0-1,9.61-8.59,10.62s-1.52,2-1.52,2l5.56,19.23s13.15-25.29,11.13-59.18S109.26,90.6,109.26,90.6Z"/><polygon class="cls-10" points="66.01 204.91 67.53 256.5 107.74 214.77 81.94 209.46 77.39 226.15 78.91 206.43 66.01 204.91"/><polygon class="cls-11" points="63.73 201.12 59.18 230.71 78.91 206.43 63.73 201.12"/><path class="cls-11" d="M81.94,209.46s29.59,41.73,29.59,22.76c0-1.51,37.18-31.86,35.66-75.11h-6.07s-3-9.86-7.58-7.59C133.54,149.52,130.5,187.46,81.94,209.46Z"/><path class="cls-12" d="M27.31,114.87s5.57,93.58,50.59,89.53l-2.53,18.21,17.19-15.17s38.95-23.27,41-51.59c0,0-4-8.6-8.1-30.35,0,0,4.05,10.11,8.6-1s8.09-18.21,5.57-25.3-12.14-5.56-13.66,3-6.58,23.27-6.58,23.27-4.55,13.65-7.08-9.11-6.07-51.09-6.07-51.09S29.34,94.64,27.31,101.72A24.41,24.41,0,0,0,27.31,114.87Z"/><path class="cls-13" d="M20.74,78s1-61.71,53.11-71.32c0,0,15.68-16.19,31.36,2,0,0,43,9.11,43,61.21,0,0,17.71,8.6,0,18.21s-10.11-12.14-45,16.18S12.65,116.39,9.1,101.72,20.74,78,20.74,78Z"/><path class="cls-14" d="M37.56,336.17c-1.17.68-2.34,1.33-3.49,2s-2.32,1.36-3.46,2.07c-2.28,1.4-4.55,2.82-6.75,4.35a76.79,76.79,0,0,0-6.4,4.8c-.53.41-1,.85-1.51,1.31s-1,.89-1.44,1.39-.95.94-1.38,1.45-.84,1.05-1.27,1.57a25.71,25.71,0,0,1,5.09-6.3,49.73,49.73,0,0,1,6.35-5,72.9,72.9,0,0,1,6.93-4.19A66.86,66.86,0,0,1,37.56,336.17Z"/><path class="cls-14" d="M41,347.55c-1.92,1.56-3.89,3-5.86,4.52s-4,2.93-5.95,4.39l-6,4.33c-1,.72-2,1.45-3,2.21a20.63,20.63,0,0,0-2.8,2.4,29.65,29.65,0,0,1,5.28-5.22c1.9-1.59,3.88-3.07,5.87-4.53s4-2.86,6.1-4.2S38.82,348.77,41,347.55Z"/><path class="cls-14" d="M44.76,363.1c-2,.63-3.9,1.37-5.8,2.14s-3.78,1.61-5.61,2.54-3.64,1.89-5.39,3-3.47,2.2-5.2,3.37a34,34,0,0,1,4.77-4,42,42,0,0,1,11.16-5.57A31.82,31.82,0,0,1,44.76,363.1Z"/><polygon class="cls-4" points="10.62 373.35 97.12 493.23 0 501.57 10.62 373.35"/><path class="cls-4" d="M34.9,373.35,100.15,346l4.44,14.12s16.81-.46,71.43,8.64,39.46,36.42,92.57,34.91c0,0,21.24,0,21.24-27.32,0,0,19.73,65.25-48.56,39.46s-107.73-38.7-107.73-38.7l-33.39-6.83S62.22,373.35,34.9,373.35Z"/><path class="cls-15" d="M126,130.56c-.17-1.15-.35-2.18-.53-3.15a9.9,9.9,0,0,1-5.47-1.79,9.29,9.29,0,0,1-5.65,3.15c-.32,1.08-.49,1.79-.49,1.79s-7.59,95.59-62.22,60.69c0,0,31.87,50.08,71.32-34.9C122.91,156.35,130.5,160.9,126,130.56Z"/><path class="cls-16" d="M63.73,118.42s36.42-4.56,51.6-22.77,12.64-3,32.87-7.58,0-18.21,0-18.21-4.55-52.61-43-61.21c0,0,49.57,74.86-33.89,82.45C71.32,91.1,127.47,100.21,63.73,118.42Z"/></g></g></g></svg>