<svg xmlns="http://www.w3.org/2000/svg" viewBox="0 0 148.58 134.24"><defs><style>.cls-1{fill:#dd0222;}</style></defs><title>Recurso 10</title><g id="Capa_2" data-name="Capa 2"><g id="megatron"><circle class="cls-1" cx="74.08" cy="66.97" r="10.8"/><path class="cls-1" d="M113.77,77.1q-7.14,1.23-14.39,2a280.61,280.61,0,0,1-50,.94A134.15,134.15,0,0,1,25,76.16,54.26,54.26,0,0,1,13.89,72c-3-1.61-7.6-3.89-7.38-6.15A6.4,6.4,0,0,1,8.08,63a23.37,23.37,0,0,1,3.74-3.77,45.22,45.22,0,0,1,9.62-5.82c1.74-.8,3.56-1.47,5.36-2.18s3.68-1.3,5.56-1.82,3.78-1.07,5.7-1.54l5.78-1.34-6,.28c-2,.11-4,.41-5.95.63s-4,.68-5.94,1c-1,.2-1.95.5-2.93.74s-2,.47-2.93.83l-2.91,1c-1,.34-1.9.79-2.85,1.19a23.57,23.57,0,0,0-2.81,1.38l-1.38.76-1.33.88a28.81,28.81,0,0,0-5,4.16,23.94,23.94,0,0,0-2.12,2.71c-.33.48-.62,1-.92,1.56A5.85,5.85,0,0,0,0,65.89a4.66,4.66,0,0,0,.3,1.83,20.49,20.49,0,0,0,4.39,6,34.54,34.54,0,0,0,5.62,4.37A59.26,59.26,0,0,0,22.7,83.76,126.47,126.47,0,0,0,48.53,89a227.6,227.6,0,0,0,51.92-.91c5.39-.71,10.76-1.59,16.1-2.76a11.39,11.39,0,0,1-2.82-7.5C113.73,77.57,113.75,77.33,113.77,77.1ZM8.08,58.57s-8.4,6.48.48,14.16C8.56,72.73-6.08,67.69,8.08,58.57Z"/><path class="cls-1" d="M148.55,65.81A15.16,15.16,0,0,0,146,58.37a20,20,0,0,0-5.18-5.23,38.14,38.14,0,0,0-12.36-5.47,76.86,76.86,0,0,0-12.82-2.24,92.2,92.2,0,0,0-12.86-.38,115.77,115.77,0,0,1,24.47,6.26,38.35,38.35,0,0,1,10.34,5.95c2.9,2.48,4.65,5.57,4.48,8.79a.75.75,0,0,1,0,.37.37.37,0,0,1-.07.24,3.1,3.1,0,0,1-.31.59,8,8,0,0,1-1.49,1.48,22.4,22.4,0,0,1-4.76,2.67l-.65.25a11.41,11.41,0,0,1,1.28,2.71c11.14-5.71,7.73-13.68,7.73-13.68,5.48,9.7-1.69,13.49-7.41,15a11.16,11.16,0,0,1,.21,2.17,11.46,11.46,0,0,1-.06,1.17c.69-.32,1.38-.63,2.06-1a28.68,28.68,0,0,0,6.06-4,14,14,0,0,0,2.73-3.27,9.39,9.39,0,0,0,.94-2.34,5.68,5.68,0,0,0,.2-1.32A5.55,5.55,0,0,0,148.55,65.81Z"/><path class="cls-1" d="M134.06,76.15q-.08-.41-.18-.78A9.11,9.11,0,0,0,116,76.69a9.63,9.63,0,0,0-.07,1.08,9.12,9.12,0,0,0,17.92,2.37,9.28,9.28,0,0,0,.32-2.37A9.47,9.47,0,0,0,134.06,76.15Z"/><path class="cls-1" d="M112.59,105.1a125.27,125.27,0,0,0-7.1-25.37A227.67,227.67,0,0,0,81.07,33.9C78.21,29.76,75.2,25.7,72,21.77a11.43,11.43,0,0,1-6,6.33c2.6,3.53,5.1,7.16,7.51,10.84a280.44,280.44,0,0,1,23.6,44.12,134.62,134.62,0,0,1,7.61,23.44,54.64,54.64,0,0,1,1.34,11.81c-.07,3.41-1.58,8.81-2.84,9.32a5.19,5.19,0,0,1-2.5-.06,23.2,23.2,0,0,1-5-1.63A44.85,44.85,0,0,1,86.16,120c-1.51-1.18-2.93-2.5-4.38-3.79s-2.83-2.68-4.16-4.12-2.67-2.88-4-4.37l-3.82-4.54,3,5.17c1,1.72,2.17,3.34,3.27,5s2.39,3.21,3.6,4.83c.62.79,1.33,1.51,2,2.28S83,122,83.73,122.73l2.2,2.13c.75.71,1.57,1.34,2.36,2a27.1,27.1,0,0,0,2.5,1.87l1.31.89,1.39.78a28.4,28.4,0,0,0,6,2.57,23,23,0,0,0,3.38.66,17.6,17.6,0,0,0,1.81.11,6.83,6.83,0,0,0,3.83-1.4,16.38,16.38,0,0,0,3.36-6.65,34.67,34.67,0,0,0,1.33-7A58.54,58.54,0,0,0,112.59,105.1ZM101.2,129.85a8.55,8.55,0,0,0,7-8.4C111.28,133.21,101.2,129.85,101.2,129.85Z"/><path class="cls-1" d="M53.34,9.51C42.73.05,36.37,7,36.37,7c7.18-9.89,14.21-3,17.68,1.82a11.46,11.46,0,0,1,3.69-2c-1-.79-2-1.57-3-2.33A29.17,29.17,0,0,0,48.38.94,14.29,14.29,0,0,0,44.23,0a9.51,9.51,0,0,0-2.51.23,5.56,5.56,0,0,0-1.27.42,6.06,6.06,0,0,0-1.09.55,15.12,15.12,0,0,0-5.48,5.61,20.17,20.17,0,0,0-2.31,7,38.07,38.07,0,0,0,.76,13.49,75.69,75.69,0,0,0,3.84,12.44,90.3,90.3,0,0,0,5.51,11.63,115.6,115.6,0,0,1-5.56-24.64,38.52,38.52,0,0,1,.59-11.92c.9-3.7,2.85-6.67,5.79-8a.72.72,0,0,1,.35-.14.39.39,0,0,1,.25,0,2.89,2.89,0,0,1,.66,0,8.14,8.14,0,0,1,2,.66,22.79,22.79,0,0,1,4.54,3c.47.4.93.82,1.39,1.23A11.6,11.6,0,0,1,53.34,9.51Z"/><path class="cls-1" d="M61.25,8.65a9,9,0,0,0-1.28.1,9.06,9.06,0,0,0-4.61,2.07l-.33.29a9.3,9.3,0,0,0-1.64,2.05,9.11,9.11,0,0,0,7.86,13.73,9.12,9.12,0,0,0,8.94-7.33,8.84,8.84,0,0,0,.18-1.79A9.12,9.12,0,0,0,61.25,8.65Z"/><path class="cls-1" d="M115.5,16.91a28,28,0,0,0-1.11-6.43,22.6,22.6,0,0,0-1.28-3.19,16.63,16.63,0,0,0-.9-1.57A5.15,5.15,0,0,0,109,3.26a17.6,17.6,0,0,0-7.41.81A34.49,34.49,0,0,0,95,6.76a58.87,58.87,0,0,0-11.08,7.9A125.59,125.59,0,0,0,66.46,34.44,227.08,227.08,0,0,0,41.32,79.88c-1.72,4.17-3.33,8.4-4.78,12.7.34,0,.68,0,1,0a11.38,11.38,0,0,1,7.25,2.59c1.49-3.93,3.11-7.83,4.81-11.69A280.67,280.67,0,0,1,73.79,39.61,134.62,134.62,0,0,1,89.3,20.46a54.25,54.25,0,0,1,9.18-7.55c2.9-1.8,6.17-4.21,9.08-3.24.68.22,1.23,1.9,1.59,2.68a23.38,23.38,0,0,1,1.39,5.12,45.18,45.18,0,0,1,.25,11.23c-.17,1.91-.51,3.82-.79,5.74s-.71,3.84-1.2,5.73-1,3.81-1.51,5.71l-1.73,5.68,2.73-5.3c.9-1.78,1.62-3.64,2.42-5.47s1.39-3.76,2.09-5.65c.32-1,.55-1.94.83-2.92s.57-1.94.74-2.95l.59-3c.19-1,.27-2,.4-3.06a25.06,25.06,0,0,0,.21-3.13l0-1.57ZM102.16,6.25S113,1.45,113,13.69C113,13.69,111,6.25,102.16,6.25Z"/><path class="cls-1" d="M36.71,115.36c-3.46,13.54,5.55,16,5.55,16-11.73-1.88-9.26-10.8-6.61-16.15a11.28,11.28,0,0,1-4.25-1.64c-.18,1.44-.33,2.89-.4,4.38a29,29,0,0,0,.47,7.27,14.21,14.21,0,0,0,1.48,4,9.12,9.12,0,0,0,1.56,2,4.79,4.79,0,0,0,1,.84,5.31,5.31,0,0,0,1.05.61,15.08,15.08,0,0,0,7.69,1.55,20.18,20.18,0,0,0,7.13-1.88,38.06,38.06,0,0,0,10.9-8,75.85,75.85,0,0,0,8.35-10,93,93,0,0,0,6.75-11,116.23,116.23,0,0,1-17.64,18.08,38.63,38.63,0,0,1-10.32,6c-3.59,1.26-7.14,1.24-9.85-.51a.68.68,0,0,1-.31-.22.33.33,0,0,1-.17-.18,2.72,2.72,0,0,1-.36-.56,8.1,8.1,0,0,1-.54-2,22.83,22.83,0,0,1,.07-5.46c.12-1,.3-2.11.49-3.18-.4,0-.81.07-1.22.07A8.27,8.27,0,0,1,36.71,115.36Z"/><path class="cls-1" d="M44,97.52a9.07,9.07,0,0,0-6.23-2.47,9.38,9.38,0,0,0-2.07.24,9.12,9.12,0,0,0,1.08,17.94l.59,0,.4,0a8.31,8.31,0,0,0,1.51-.14A9.1,9.1,0,0,0,44,97.52Z"/></g></g></svg>