<svg id="megatron" xmlns="http://www.w3.org/2000/svg" viewBox="0 0 500 500"><defs><style>.cls-1{fill:none;}</style></defs><title>logoMesa de trabajo 1</title><path d="M27.53,382.11H25.15v-17h2.38Z"/><path d="M31.51,370h2.38v12.15H31.51Zm7.37,4.79a2.75,2.75,0,0,0-.67-2,2.44,2.44,0,0,0-1.87-.7,2.47,2.47,0,0,0-1.81.62,2.33,2.33,0,0,0-.64,1.74l-.24-2.34a4.21,4.21,0,0,1,1.47-1.69,3.54,3.54,0,0,1,2-.6,3.77,3.77,0,0,1,3.06,1.29,5.55,5.55,0,0,1,1.08,3.66v7.37H38.88Z"/><path d="M46.46,381.74A3.73,3.73,0,0,1,45,380.05a6.53,6.53,0,0,1-.49-2.67V374.7A6.76,6.76,0,0,1,45,372a3.62,3.62,0,0,1,1.4-1.69,4.07,4.07,0,0,1,2.2-.58,3.57,3.57,0,0,1,2,.57A4.15,4.15,0,0,1,52,371.89l-.25,2.48a2.86,2.86,0,0,0-.28-1.32,2,2,0,0,0-.81-.83,2.73,2.73,0,0,0-1.29-.29,2.34,2.34,0,0,0-1.84.74,3,3,0,0,0-.64,2.07v2.64a3,3,0,0,0,.64,2,2.37,2.37,0,0,0,1.84.72,2.62,2.62,0,0,0,1.29-.3,2,2,0,0,0,.81-.86,2.91,2.91,0,0,0,.28-1.34L52,380.2a3.55,3.55,0,0,1-1.19,1.51,3.37,3.37,0,0,1-2,.61A4.34,4.34,0,0,1,46.46,381.74Zm1.13,5.3-1.08-.51a3.93,3.93,0,0,1-1.68-1.43l1.62-1.46a3.26,3.26,0,0,0,1.11,1,2.79,2.79,0,0,0,1.37.35,2.85,2.85,0,0,0,2.11-.75,2.91,2.91,0,0,0,.75-2.14V370h2.39v11.78a6.2,6.2,0,0,1-.62,2.87,4.1,4.1,0,0,1-1.78,1.81A5.87,5.87,0,0,1,49,387Z"/><path d="M61.09,382.28l-1.19-.63a4.23,4.23,0,0,1-1.82-1.85,6.41,6.41,0,0,1-.63-3v-1.37a7,7,0,0,1,.61-3.07,4.28,4.28,0,0,1,1.74-1.94,5.38,5.38,0,0,1,2.76-.67,4.36,4.36,0,0,1,2.6.76,4.74,4.74,0,0,1,1.65,2.2,9.59,9.59,0,0,1,.56,3.45v.8H59.18v-1.92H65.1a4.09,4.09,0,0,0-.76-2.31,2.16,2.16,0,0,0-1.78-.83,2.57,2.57,0,0,0-2.09.89,3.79,3.79,0,0,0-.75,2.52v1.54a3.17,3.17,0,0,0,.8,2.32,3.05,3.05,0,0,0,2.26.8,3.62,3.62,0,0,0,1.43-.29,4,4,0,0,0,1.28-.82l1.57,1.57a6.64,6.64,0,0,1-2,1.34,5.86,5.86,0,0,1-2.25.47Z"/><path d="M70.65,370H73v12.15H70.65ZM78,374.75a2.8,2.8,0,0,0-.67-2,2.44,2.44,0,0,0-1.87-.7,2.47,2.47,0,0,0-1.81.62,2.33,2.33,0,0,0-.64,1.74l-.24-2.34a4.21,4.21,0,0,1,1.47-1.69,3.54,3.54,0,0,1,2-.6,3.77,3.77,0,0,1,3.06,1.29,5.55,5.55,0,0,1,1.08,3.66v7.37H78Z"/><path d="M84,365.1h2.39v2.38H84ZM84,370h2.39v12.15H84Z"/><path d="M93.33,382.28l-1.19-.63a4.17,4.17,0,0,1-1.82-1.85,6.41,6.41,0,0,1-.63-3v-1.37a7.15,7.15,0,0,1,.6-3.07A4.3,4.3,0,0,1,92,370.46a5.38,5.38,0,0,1,2.76-.67,4.36,4.36,0,0,1,2.6.76,4.73,4.73,0,0,1,1.64,2.2,9.37,9.37,0,0,1,.57,3.45v.8H91.42v-1.92h5.92a4.09,4.09,0,0,0-.76-2.31,2.19,2.19,0,0,0-1.78-.83,2.61,2.61,0,0,0-2.1.89,3.84,3.84,0,0,0-.74,2.52v1.54a3.17,3.17,0,0,0,.8,2.32A3,3,0,0,0,95,380a3.63,3.63,0,0,0,1.44-.29,4.12,4.12,0,0,0,1.28-.82l1.56,1.57a6.59,6.59,0,0,1-2,1.34,5.87,5.87,0,0,1-2.26.47Z"/><path d="M102.89,370h2.38v12.15h-2.38Zm5.88,2.3a2.93,2.93,0,0,0-1.11-.2,2.39,2.39,0,0,0-1.76.62,2.35,2.35,0,0,0-.63,1.74l-.24-2.34a4.38,4.38,0,0,1,1.45-1.69,3.41,3.41,0,0,1,2-.6A4.47,4.47,0,0,1,110,370a3.26,3.26,0,0,1,1.17.71l-1.56,2.1A1.92,1.92,0,0,0,108.77,372.26Z"/><path d="M113,366.42l3.35-4.15,1.72,1.42-3.57,3.94Zm.11,3.54h2.39v12.15h-2.39Z"/><path d="M119.65,381.35a4.13,4.13,0,0,1-.1-5.52,4.5,4.5,0,0,1,3.08-.91h3.45l.17,1.92h-3.61a2,2,0,0,0-1.4.42,1.66,1.66,0,0,0-.46,1.27,1.59,1.59,0,0,0,.62,1.37,3.23,3.23,0,0,0,1.86.44,5.51,5.51,0,0,0,2-.29,1,1,0,0,0,.68-.91l.24,1.7a2.74,2.74,0,0,1-.78.81,3.16,3.16,0,0,1-1.07.47,5.21,5.21,0,0,1-1.37.16A5.13,5.13,0,0,1,119.65,381.35Zm6.33-6.94a2.56,2.56,0,0,0-.64-1.85,2.41,2.41,0,0,0-1.81-.67,4.59,4.59,0,0,0-1.42.23,3.85,3.85,0,0,0-1.23.62l-1.75-1.2a4.63,4.63,0,0,1,1.82-1.29,6.52,6.52,0,0,1,2.51-.46,5.86,5.86,0,0,1,2.59.53,3.7,3.7,0,0,1,1.63,1.55,4.85,4.85,0,0,1,.57,2.43v7.81H126Z"/><path d="M134.68,370h2.43l3.73,10.56-1.32,2.58Zm10.75,0-5.17,15a3.49,3.49,0,0,1-.74,1.31,2.51,2.51,0,0,1-1.12.7,5.54,5.54,0,0,1-1.64.21h-.48v-2.29h.48a1.83,1.83,0,0,0,1.06-.27,2.15,2.15,0,0,0,.68-.92L143,370Z"/><path d="M155.75,382.28l-1.1-.23a9.09,9.09,0,0,1-2.06-.7,9.43,9.43,0,0,1-1.78-1.17l1.49-1.83a6.85,6.85,0,0,0,2.14,1.27A7.42,7.42,0,0,0,157,380a5.07,5.07,0,0,0,2.87-.69,2.19,2.19,0,0,0,1-1.93v0a2.1,2.1,0,0,0-.46-1.41,2.86,2.86,0,0,0-1.2-.77,12.78,12.78,0,0,0-1.89-.46h-.15l-.17,0a17.09,17.09,0,0,1-2.78-.66,3.81,3.81,0,0,1-1.83-1.34,4.44,4.44,0,0,1-.76-2.78h0a5,5,0,0,1,.7-2.7,4.44,4.44,0,0,1,2.07-1.7,8.19,8.19,0,0,1,3.26-.59,8.34,8.34,0,0,1,1.8.2,8.71,8.71,0,0,1,1.74.59,9.79,9.79,0,0,1,1.69,1l-1.36,1.9a7.45,7.45,0,0,0-1.93-1.07,5.5,5.5,0,0,0-1.94-.36,4.55,4.55,0,0,0-2.71.7,2.28,2.28,0,0,0-1,2h0a1.9,1.9,0,0,0,.5,1.38,3,3,0,0,0,1.24.74,17.89,17.89,0,0,0,2.06.5l.09,0H158l.13,0,.12,0a13.94,13.94,0,0,1,2.58.75,4,4,0,0,1,1.73,1.4,4.37,4.37,0,0,1,.7,2.63v0a4.64,4.64,0,0,1-.74,2.66,4.52,4.52,0,0,1-2.13,1.68,8.75,8.75,0,0,1-3.38.58Z"/><path d="M169.67,382.28l-1.2-.63a4.28,4.28,0,0,1-1.82-1.85,6.54,6.54,0,0,1-.62-3v-1.37a7.15,7.15,0,0,1,.6-3.07,4.24,4.24,0,0,1,1.75-1.94,5.32,5.32,0,0,1,2.76-.67,4.39,4.39,0,0,1,2.6.76,4.8,4.8,0,0,1,1.64,2.2,9.37,9.37,0,0,1,.57,3.45v.8h-8.19v-1.92h5.92a4.09,4.09,0,0,0-.77-2.31,2.15,2.15,0,0,0-1.77-.83,2.59,2.59,0,0,0-2.1.89,3.79,3.79,0,0,0-.74,2.52v1.54a3.17,3.17,0,0,0,.79,2.32,3.07,3.07,0,0,0,2.26.8,3.7,3.7,0,0,0,1.44-.29,4.07,4.07,0,0,0,1.27-.82l1.57,1.57a6.59,6.59,0,0,1-2,1.34,5.87,5.87,0,0,1-2.26.47Z"/><path d="M179.22,370h2.39v12.15h-2.39Zm5.89,2.3a2.93,2.93,0,0,0-1.11-.2,2.43,2.43,0,0,0-1.77.62,2.39,2.39,0,0,0-.62,1.74l-.25-2.34a4.56,4.56,0,0,1,1.45-1.69,3.46,3.46,0,0,1,2-.6,4.45,4.45,0,0,1,1.5.24,3.3,3.3,0,0,1,1.18.71l-1.56,2.1A1.92,1.92,0,0,0,185.11,372.26Z"/><path d="M196.59,370h2.49l-4.56,12.15h-1.8L188.16,370h2.49l3,8.67Z"/><path d="M201.42,365.1h2.39v2.38h-2.39Zm0,4.86h2.39v12.15h-2.39Z"/><path d="M210.68,382.28l-1.18-.62a4.15,4.15,0,0,1-1.79-1.8,6,6,0,0,1-.62-2.85v-2a5.87,5.87,0,0,1,.62-2.82,4.18,4.18,0,0,1,1.79-1.79,6.08,6.08,0,0,1,2.84-.61,6.83,6.83,0,0,1,1.78.23,5.28,5.28,0,0,1,1.51.66,4.28,4.28,0,0,1,1.11,1.05L215,373.28a3.55,3.55,0,0,0-1.21-.91,3.42,3.42,0,0,0-1.44-.31,2.89,2.89,0,0,0-2.14.77,3,3,0,0,0-.76,2.18v2a3,3,0,0,0,.76,2.22,2.84,2.84,0,0,0,2.14.78,3.19,3.19,0,0,0,1.45-.34,3.45,3.45,0,0,0,1.2-1l1.72,1.67a4.29,4.29,0,0,1-1.13,1,5.09,5.09,0,0,1-1.5.65,6.81,6.81,0,0,1-1.77.22Z"/><path d="M219.37,365.1h2.38v2.38h-2.38Zm0,4.86h2.38v12.15h-2.38Z"/><path d="M227.33,381.66a4,4,0,0,1-1.71-1.81A6.38,6.38,0,0,1,225,377v-2a6.32,6.32,0,0,1,.59-2.83,4.06,4.06,0,0,1,1.71-1.79,6.3,6.3,0,0,1,5.41,0,4.06,4.06,0,0,1,1.71,1.79A6.19,6.19,0,0,1,235,375v2a6.2,6.2,0,0,1-.59,2.84,4.06,4.06,0,0,1-1.71,1.79,6.21,6.21,0,0,1-5.41,0Zm4.64-2.43a3.22,3.22,0,0,0,.69-2.2v-2a3.16,3.16,0,0,0-.69-2.19,2.82,2.82,0,0,0-3.87,0,3.16,3.16,0,0,0-.68,2.19v2a3.22,3.22,0,0,0,.68,2.2,2.79,2.79,0,0,0,3.87,0Z"/><path d="M241.65,382.28l-.94-.21a7.37,7.37,0,0,1-1.76-.63,6.81,6.81,0,0,1-1.51-1.05l1.42-1.75a7.85,7.85,0,0,0,1.95,1.13,5.31,5.31,0,0,0,1.92.37,4,4,0,0,0,2.12-.44,1.45,1.45,0,0,0,.71-1.31,1,1,0,0,0-.39-.88,2,2,0,0,0-1-.39,15.79,15.79,0,0,0-1.61-.18h-.2l-.2,0H242a10,10,0,0,1-2-.34,2.76,2.76,0,0,1-1.36-.95,3.12,3.12,0,0,1-.54-2,4,4,0,0,1,.52-2.14,3.19,3.19,0,0,1,1.57-1.28,6.82,6.82,0,0,1,2.61-.43,9.67,9.67,0,0,1,1.81.17,8.26,8.26,0,0,1,3.15,1.4l-1.44,1.74a8.45,8.45,0,0,0-1.79-.88,5.65,5.65,0,0,0-1.73-.29,3.29,3.29,0,0,0-1.82.41,1.41,1.41,0,0,0-.61,1.25.85.85,0,0,0,.34.74,2.14,2.14,0,0,0,.87.33c.35,0,.85.1,1.5.14h.45a11,11,0,0,1,2.17.34,2.94,2.94,0,0,1,1.5,1,3.47,3.47,0,0,1,.61,2.2,3.87,3.87,0,0,1-.57,2.17,3.36,3.36,0,0,1-1.69,1.29,7.91,7.91,0,0,1-2.83.43Z"/><path d="M252.85,365.1h12v2.27h-12Zm4.8,1.39H260v15.62h-2.39Z"/><path d="M268.49,382.28l-1.2-.63a4.28,4.28,0,0,1-1.82-1.85,6.54,6.54,0,0,1-.62-3v-1.37a7.15,7.15,0,0,1,.6-3.07,4.24,4.24,0,0,1,1.75-1.94,5.32,5.32,0,0,1,2.76-.67,4.39,4.39,0,0,1,2.6.76,4.8,4.8,0,0,1,1.64,2.2,9.37,9.37,0,0,1,.57,3.45v.8h-8.19v-1.92h5.92a4.09,4.09,0,0,0-.77-2.31,2.15,2.15,0,0,0-1.77-.83,2.59,2.59,0,0,0-2.1.89,3.79,3.79,0,0,0-.74,2.52v1.54a3.17,3.17,0,0,0,.79,2.32,3.07,3.07,0,0,0,2.26.8,3.7,3.7,0,0,0,1.44-.29,4.07,4.07,0,0,0,1.27-.82l1.57,1.57a6.59,6.59,0,0,1-2,1.34,5.87,5.87,0,0,1-2.26.47Zm0-15.86,3.35-4.15,1.72,1.42L270,367.63Z"/><path d="M281.28,382.28l-1.17-.62a4.12,4.12,0,0,1-1.8-1.8,6.12,6.12,0,0,1-.62-2.85v-2a6,6,0,0,1,.62-2.82,4.15,4.15,0,0,1,1.8-1.79,6,6,0,0,1,2.83-.61,6.85,6.85,0,0,1,1.79.23,5.1,5.1,0,0,1,1.5.66,4.13,4.13,0,0,1,1.11,1.05l-1.72,1.55a3.44,3.44,0,0,0-2.64-1.22,2.87,2.87,0,0,0-2.14.77,3,3,0,0,0-.76,2.18v2a3.07,3.07,0,0,0,.75,2.22A2.85,2.85,0,0,0,283,380a3.19,3.19,0,0,0,1.45-.34,3.33,3.33,0,0,0,1.19-1l1.72,1.67a4.25,4.25,0,0,1-1.12,1,5.33,5.33,0,0,1-1.5.65,6.84,6.84,0,0,1-1.78.22Z"/><path d="M290,370h2.39v12.15H290Zm7.37,4.79a2.8,2.8,0,0,0-.66-2,2.47,2.47,0,0,0-1.88-.7,2.43,2.43,0,0,0-1.8.62,2.29,2.29,0,0,0-.64,1.74l-.25-2.34a4.36,4.36,0,0,1,1.47-1.69,3.57,3.57,0,0,1,2-.6,3.77,3.77,0,0,1,3.06,1.29,5.55,5.55,0,0,1,1.08,3.66v7.37h-2.39Z"/><path d="M303.35,365.1h2.39v2.38h-2.39Zm0,4.86h2.39v12.15h-2.39Z"/><path d="M312.61,382.28l-1.18-.62a4.15,4.15,0,0,1-1.79-1.8A6,6,0,0,1,309,377v-2a5.87,5.87,0,0,1,.62-2.82,4.18,4.18,0,0,1,1.79-1.79,6.08,6.08,0,0,1,2.84-.61,6.78,6.78,0,0,1,1.78.23,5.28,5.28,0,0,1,1.51.66,4.28,4.28,0,0,1,1.11,1.05L317,373.28a3.55,3.55,0,0,0-1.21-.91,3.42,3.42,0,0,0-1.44-.31,2.89,2.89,0,0,0-2.14.77,3,3,0,0,0-.76,2.18v2a3,3,0,0,0,.76,2.22,2.84,2.84,0,0,0,2.14.78,3.19,3.19,0,0,0,1.45-.34,3.45,3.45,0,0,0,1.2-1l1.72,1.67a4.29,4.29,0,0,1-1.13,1,5.09,5.09,0,0,1-1.5.65,6.81,6.81,0,0,1-1.77.22Z"/><path d="M323.25,381.66a4,4,0,0,1-1.71-1.81A6.38,6.38,0,0,1,321,377v-2a6.32,6.32,0,0,1,.59-2.83,4.06,4.06,0,0,1,1.71-1.79,6.3,6.3,0,0,1,5.41,0,4.06,4.06,0,0,1,1.71,1.79A6.32,6.32,0,0,1,331,375v2a6.34,6.34,0,0,1-.59,2.84,4.06,4.06,0,0,1-1.71,1.79,6.21,6.21,0,0,1-5.41,0Zm4.64-2.43a3.22,3.22,0,0,0,.69-2.2v-2a3.16,3.16,0,0,0-.69-2.19,2.82,2.82,0,0,0-3.87,0,3.16,3.16,0,0,0-.69,2.19v2a3.22,3.22,0,0,0,.69,2.2,2.79,2.79,0,0,0,3.87,0Z"/><path d="M337.57,382.28l-.94-.21a7.21,7.21,0,0,1-1.76-.63,6.81,6.81,0,0,1-1.51-1.05l1.41-1.75a8.09,8.09,0,0,0,2,1.13,5.28,5.28,0,0,0,1.92.37,4,4,0,0,0,2.12-.44,1.45,1.45,0,0,0,.71-1.31,1,1,0,0,0-.39-.88,2.08,2.08,0,0,0-1-.39,15.79,15.79,0,0,0-1.61-.18h-.2l-.2,0h-.19a9.84,9.84,0,0,1-2-.34,2.76,2.76,0,0,1-1.36-.95,3.12,3.12,0,0,1-.54-2,4,4,0,0,1,.52-2.14,3.15,3.15,0,0,1,1.57-1.28,6.78,6.78,0,0,1,2.61-.43,9.67,9.67,0,0,1,1.81.17,7.67,7.67,0,0,1,1.64.53,8,8,0,0,1,1.51.87l-1.44,1.74a8.28,8.28,0,0,0-1.8-.88,5.59,5.59,0,0,0-1.72-.29,3.35,3.35,0,0,0-1.83.41,1.44,1.44,0,0,0-.61,1.25.86.86,0,0,0,.35.74,2.14,2.14,0,0,0,.87.33c.35,0,.85.1,1.5.14h.44a10.75,10.75,0,0,1,2.17.34,2.92,2.92,0,0,1,1.51,1,3.47,3.47,0,0,1,.6,2.2,3.87,3.87,0,0,1-.56,2.17,3.36,3.36,0,0,1-1.69,1.29,8,8,0,0,1-2.83.43Z"/><path d="M353.49,382.11H351.1v-17h2.39Z"/><path d="M357.47,370h2.38v12.15h-2.38Zm7.37,4.79a2.8,2.8,0,0,0-.67-2,2.44,2.44,0,0,0-1.87-.7,2.47,2.47,0,0,0-1.81.62,2.33,2.33,0,0,0-.64,1.74l-.24-2.34a4.21,4.21,0,0,1,1.47-1.69,3.54,3.54,0,0,1,2-.6,3.77,3.77,0,0,1,3.06,1.29,5.55,5.55,0,0,1,1.08,3.66v7.37h-2.38Z"/><path d="M372.42,381.74a3.67,3.67,0,0,1-1.43-1.69,6.53,6.53,0,0,1-.49-2.67V374.7A6.76,6.76,0,0,1,371,372a3.62,3.62,0,0,1,1.4-1.69,4.07,4.07,0,0,1,2.2-.58,3.57,3.57,0,0,1,2,.57,4.15,4.15,0,0,1,1.45,1.57l-.25,2.48a2.86,2.86,0,0,0-.28-1.32,2,2,0,0,0-.81-.83,2.74,2.74,0,0,0-1.3-.29,2.34,2.34,0,0,0-1.83.74,3,3,0,0,0-.65,2.07v2.64a3,3,0,0,0,.65,2,2.36,2.36,0,0,0,1.83.72,2.63,2.63,0,0,0,1.3-.3,2,2,0,0,0,.81-.86,2.91,2.91,0,0,0,.28-1.34l.16,2.56a3.46,3.46,0,0,1-1.18,1.51,3.37,3.37,0,0,1-2,.61A4.34,4.34,0,0,1,372.42,381.74Zm5.33-16.64h2.39v17h-2.39Z"/><path d="M386.15,377.35a2.8,2.8,0,0,0,.65,2,2.38,2.38,0,0,0,1.83.69,2.47,2.47,0,0,0,1.81-.62,2.32,2.32,0,0,0,.65-1.76l.16,2.54a3.47,3.47,0,0,1-1.22,1.5,3.41,3.41,0,0,1-2.07.61,3.84,3.84,0,0,1-3.1-1.29,5.48,5.48,0,0,1-1.1-3.64V370h2.39Zm4.94-7.39h2.37v12.15h-2.37Z"/><path d="M400.3,382.28l-.94-.21a7.37,7.37,0,0,1-1.76-.63,6.81,6.81,0,0,1-1.51-1.05l1.42-1.75a7.85,7.85,0,0,0,1.95,1.13,5.31,5.31,0,0,0,1.92.37,4,4,0,0,0,2.12-.44,1.45,1.45,0,0,0,.71-1.31,1,1,0,0,0-.39-.88,2,2,0,0,0-.95-.39q-.58-.11-1.62-.18h-.2l-.2,0h-.18a9.72,9.72,0,0,1-2-.34,2.78,2.78,0,0,1-1.37-.95,3.12,3.12,0,0,1-.54-2,3.93,3.93,0,0,1,.53-2.14,3.17,3.17,0,0,1,1.56-1.28,6.85,6.85,0,0,1,2.61-.43,9.59,9.59,0,0,1,1.81.17,8.26,8.26,0,0,1,3.15,1.4L405,373.1a8.22,8.22,0,0,0-1.79-.88,5.65,5.65,0,0,0-1.73-.29,3.29,3.29,0,0,0-1.82.41,1.41,1.41,0,0,0-.61,1.25.85.85,0,0,0,.34.74,2.13,2.13,0,0,0,.88.33c.35,0,.84.1,1.49.14h.45a10.87,10.87,0,0,1,2.17.34,2.94,2.94,0,0,1,1.5,1,3.47,3.47,0,0,1,.61,2.2,4,4,0,0,1-.56,2.17,3.45,3.45,0,0,1-1.69,1.29,8,8,0,0,1-2.84.43Z"/><path d="M408.57,370h5.48v2.16h-5.48Zm1.94,11.39a3.62,3.62,0,0,1-.68-2.4V366.43h2.38V379a1.13,1.13,0,0,0,.18.69.58.58,0,0,0,.51.24h1.15v2.27h-1.38A2.68,2.68,0,0,1,410.51,381.35Z"/><path d="M417.32,370h2.39v12.15h-2.39Zm5.89,2.3a2.93,2.93,0,0,0-1.11-.2,2.43,2.43,0,0,0-1.77.62,2.39,2.39,0,0,0-.62,1.74l-.25-2.34a4.56,4.56,0,0,1,1.45-1.69,3.46,3.46,0,0,1,2-.6,4.45,4.45,0,0,1,1.5.24,3.3,3.3,0,0,1,1.18.71l-1.56,2.1A1.92,1.92,0,0,0,423.21,372.26Z"/><path d="M427.55,365.1h2.38v2.38h-2.38Zm0,4.86h2.38v12.15h-2.38Z"/><path d="M434.08,381.35a3.47,3.47,0,0,1-1.11-2.82,3.41,3.41,0,0,1,1-2.7,4.48,4.48,0,0,1,3.08-.91h3.45l.16,1.92h-3.6a2,2,0,0,0-1.4.42,1.62,1.62,0,0,0-.46,1.27,1.59,1.59,0,0,0,.61,1.37,3.24,3.24,0,0,0,1.87.44,5.51,5.51,0,0,0,2-.29,1,1,0,0,0,.67-.91l.25,1.7a2.74,2.74,0,0,1-.78.81,3.25,3.25,0,0,1-1.07.47,5.26,5.26,0,0,1-1.37.16A5.16,5.16,0,0,1,434.08,381.35Zm6.33-6.94a2.56,2.56,0,0,0-.63-1.85,2.41,2.41,0,0,0-1.81-.67,4.54,4.54,0,0,0-1.42.23,3.9,3.9,0,0,0-1.24.62l-1.74-1.2a4.63,4.63,0,0,1,1.82-1.29,6.52,6.52,0,0,1,2.51-.46,5.82,5.82,0,0,1,2.58.53,3.68,3.68,0,0,1,1.64,1.55,4.85,4.85,0,0,1,.56,2.43v7.81h-2.27Z"/><path d="M448.7,379a1.07,1.07,0,0,0,.19.69.66.66,0,0,0,.54.24h1.13v2.27h-1.41a2.68,2.68,0,0,1-2.1-.85,3.49,3.49,0,0,1-.74-2.37V365.1h2.39Z"/><path d="M456.53,382.28l-1.19-.63a4.23,4.23,0,0,1-1.82-1.85,6.41,6.41,0,0,1-.63-3v-1.37a7.15,7.15,0,0,1,.61-3.07,4.24,4.24,0,0,1,1.75-1.94,5.32,5.32,0,0,1,2.76-.67,4.33,4.33,0,0,1,2.59.76,4.74,4.74,0,0,1,1.65,2.2,9.38,9.38,0,0,1,.56,3.45v.8h-8.18v-1.92h5.91a4.09,4.09,0,0,0-.76-2.31,2.15,2.15,0,0,0-1.77-.83,2.58,2.58,0,0,0-2.1.89,3.79,3.79,0,0,0-.75,2.52v1.54a3.17,3.17,0,0,0,.8,2.32,3.05,3.05,0,0,0,2.26.8,3.7,3.7,0,0,0,1.44-.29,4.07,4.07,0,0,0,1.27-.82l1.57,1.57a6.64,6.64,0,0,1-2,1.34,5.82,5.82,0,0,1-2.25.47Z"/><path d="M469.31,382.28l-.95-.21a7.52,7.52,0,0,1-1.76-.63,7,7,0,0,1-1.51-1.05l1.42-1.75a8.23,8.23,0,0,0,1.95,1.13,5.31,5.31,0,0,0,1.92.37,4,4,0,0,0,2.12-.44,1.43,1.43,0,0,0,.71-1.31,1,1,0,0,0-.38-.88,2.08,2.08,0,0,0-1-.39,15.71,15.71,0,0,0-1.62-.18h-.2l-.19,0h-.19a9.72,9.72,0,0,1-2-.34,2.71,2.71,0,0,1-1.36-.95,3.06,3.06,0,0,1-.55-2,4,4,0,0,1,.53-2.14,3.15,3.15,0,0,1,1.57-1.28,6.76,6.76,0,0,1,2.6-.43,9.51,9.51,0,0,1,1.81.17,7.94,7.94,0,0,1,1.65.53,7.59,7.59,0,0,1,1.5.87L474,373.1a8.28,8.28,0,0,0-1.8-.88,5.6,5.6,0,0,0-1.73-.29,3.29,3.29,0,0,0-1.82.41,1.41,1.41,0,0,0-.61,1.25.86.86,0,0,0,.35.74,2.14,2.14,0,0,0,.87.33c.35,0,.85.1,1.5.14h.44a10.87,10.87,0,0,1,2.17.34,2.86,2.86,0,0,1,1.5,1,3.41,3.41,0,0,1,.61,2.2,4,4,0,0,1-.56,2.17,3.4,3.4,0,0,1-1.69,1.29,8,8,0,0,1-2.84.43Z"/><polygon points="25.08 357.73 34.44 302.17 47.88 302.17 59.64 331.57 72 302.29 86.4 302.29 94.56 357.85 80.04 357.85 75 328.69 62.64 357.85 57.24 357.85 44.52 328.69 39.84 357.73 25.08 357.73"/><path d="M102.6,302.05V358h30.6V346h-16v-9.24h16V324.85H117.12v-9.48h17.4V301.93S102.36,301.81,102.6,302.05Z"/><path d="M181.2,321.73l11.88-6.24s-7.68-14.76-23.52-14.76-29.4,12.84-29.4,30.36,12.36,28.32,28.8,28.32,28.92-10.2,28.32-32H169.2v10.56h12s1,9.6-11.76,9.6S154.56,337,154.56,330.25s3.24-16.08,14-16.08S181.2,321.73,181.2,321.73Z"/><path d="M237.12,303.25H221.4l-21.12,54.6,14-.24,5.76-10.2h18.24l4.32,10.32h14.64Zm-13.44,33.6L229,320.77l5.64,16.08Z"/><polygon points="258.48 303.13 296.16 303.13 296.16 315.37 284.04 315.37 284.04 357.85 270.6 357.85 270.6 315.25 258.6 315.25 258.48 303.13"/><path d="M330.36,335.17s10.92-1,10.92-15-10.92-16.8-12.12-16.92-26.88-.24-26.88-.24v55h13.44v-20l14.76,19.92h16.08Zm-14.64-7.8V314.05s12.12-2.16,12.12,6.6S315.72,327.37,315.72,327.37Z"/><path d="M381.69,300.73a30,30,0,1,0,30,30A30,30,0,0,0,381.69,300.73Zm0,46.08a16.09,16.09,0,1,1,16.5-16.08A16.3,16.3,0,0,1,381.69,346.81Z"/><polygon points="419.76 303.13 419.76 357.85 434.4 357.85 434.4 324.73 459.84 357.85 474.6 357.85 474.6 303.25 459.72 303.25 459.72 335.53 434.4 303.13 419.76 303.13"/><circle cx="245.67" cy="187.77" r="10.8"/><path class="cls-1" d="M179.67,179.37c-14.16,9.12.48,14.16.48,14.16C171.27,185.85,179.67,179.37,179.67,179.37Z"/><path class="cls-1" d="M315.4,181.48s3.41,8-7.73,13.68a11,11,0,0,1,.32,1.29C313.71,195,320.88,191.19,315.4,181.48Z"/><path d="M285.36,197.9c-4.76.82-9.56,1.48-14.39,2a282.5,282.5,0,0,1-50,.94A135,135,0,0,1,196.61,197a54.26,54.26,0,0,1-11.13-4.18,22.06,22.06,0,0,1-7.5-6.13c.11-.24.21-.49.35-.74a17.91,17.91,0,0,1,1.34-2.09,23.31,23.31,0,0,1,3.74-3.76,45.25,45.25,0,0,1,9.62-5.83c1.74-.8,3.56-1.46,5.36-2.17s3.68-1.31,5.56-1.83,3.78-1.07,5.7-1.54l5.78-1.34-6,.28c-2,.11-4,.42-5.95.63s-3.95.68-5.94,1c-1,.2-2,.49-2.93.74s-2,.47-2.93.83l-2.91,1c-1,.34-1.9.79-2.85,1.19a23.57,23.57,0,0,0-2.81,1.38l-1.38.76-1.33.88a28.44,28.44,0,0,0-5,4.17,23.82,23.82,0,0,0-2.12,2.7c-.33.48-.62,1-.92,1.57a10.06,10.06,0,0,0-.78,2l-.24.89.53,1.12a20.49,20.49,0,0,0,4.39,6,34.54,34.54,0,0,0,5.62,4.37,58.75,58.75,0,0,0,12.38,5.65,125.14,125.14,0,0,0,25.83,5.22,227.6,227.6,0,0,0,51.92-.9c5.39-.71,10.76-1.6,16.1-2.77a11.39,11.39,0,0,1-2.82-7.5C285.32,198.37,285.34,198.14,285.36,197.9ZM179.67,179.37s-8.4,6.48.48,14.16C180.15,193.53,165.51,188.49,179.67,179.37Z"/><path d="M320.14,186.61a15.09,15.09,0,0,0-2.51-7.43,19.88,19.88,0,0,0-5.18-5.24,37.9,37.9,0,0,0-12.36-5.46,75.85,75.85,0,0,0-12.82-2.24,90.69,90.69,0,0,0-12.86-.38,116.36,116.36,0,0,1,24.47,6.25,38.62,38.62,0,0,1,10.34,5.95c2.9,2.48,4.65,5.57,4.48,8.79a.8.8,0,0,1,0,.38.41.41,0,0,1-.07.24,3.42,3.42,0,0,1-.31.59,8,8,0,0,1-1.49,1.47A22,22,0,0,1,307,192.2l-.65.25a11.41,11.41,0,0,1,1.28,2.71c11.14-5.71,7.73-13.68,7.73-13.68,5.48,9.71-1.69,13.5-7.41,15a11,11,0,0,1,.21,2.16,11.17,11.17,0,0,1-.06,1.17c.69-.32,1.38-.63,2.06-1a28.62,28.62,0,0,0,6.06-4,14.09,14.09,0,0,0,2.73-3.28,9.39,9.39,0,0,0,.94-2.34,9,9,0,0,0,.21-2.54Z"/><path d="M305.65,197c0-.27-.11-.52-.18-.78a9.1,9.1,0,0,0-8.79-6.72,9.12,9.12,0,0,0-9.05,8.05,9.45,9.45,0,0,0-.07,1.07,9.12,9.12,0,0,0,17.92,2.37,9.28,9.28,0,0,0,.32-2.37A9.66,9.66,0,0,0,305.65,197Z"/><path class="cls-1" d="M272.79,250.65s10.08,3.36,7-8.4A8.55,8.55,0,0,1,272.79,250.65Z"/><path d="M284.18,225.91a125.36,125.36,0,0,0-7.1-25.38,227.67,227.67,0,0,0-24.42-45.83q-4.29-6.21-9.06-12.13a11.48,11.48,0,0,1-6,6.34c2.6,3.52,5.1,7.15,7.51,10.83a280.88,280.88,0,0,1,23.6,44.12,134.62,134.62,0,0,1,7.61,23.44,54.64,54.64,0,0,1,1.34,11.81,21.93,21.93,0,0,1-2.05,9.47,7.13,7.13,0,0,1-.81,0,18.07,18.07,0,0,1-2.48-.24,23.2,23.2,0,0,1-5.05-1.63,44.85,44.85,0,0,1-9.56-5.91c-1.51-1.18-2.93-2.5-4.38-3.78s-2.83-2.68-4.16-4.13-2.67-2.87-4-4.37L241.43,224l3,5.17c1,1.73,2.17,3.34,3.27,5s2.39,3.21,3.6,4.83c.62.79,1.33,1.52,2,2.28s1.32,1.54,2.07,2.23l2.2,2.14c.75.7,1.57,1.33,2.36,2a25.5,25.5,0,0,0,2.5,1.88l1.31.88,1.39.78a28.4,28.4,0,0,0,6,2.57,24.35,24.35,0,0,0,3.38.67c.58.07,1.19.08,1.81.1a10.24,10.24,0,0,0,2.17-.23l.9-.19.76-1a20.66,20.66,0,0,0,3.36-6.65,34.54,34.54,0,0,0,1.33-7A58.43,58.43,0,0,0,284.18,225.91Zm-11.39,24.74a8.55,8.55,0,0,0,7-8.4C282.87,254,272.79,250.65,272.79,250.65Z"/><path d="M224.93,130.31c-10.61-9.46-17-2.47-17-2.47,7.18-9.88,14.21-3,17.68,1.83a11.46,11.46,0,0,1,3.69-2c-1-.8-2-1.58-3-2.33a29.19,29.19,0,0,0-6.36-3.57,14.29,14.29,0,0,0-4.15-.94,9.53,9.53,0,0,0-2.51.24,5.08,5.08,0,0,0-1.27.41A5.43,5.43,0,0,0,211,122a15,15,0,0,0-5.48,5.61,20,20,0,0,0-2.31,7,38.09,38.09,0,0,0,.76,13.49,76.29,76.29,0,0,0,3.84,12.44,90.8,90.8,0,0,0,5.51,11.62,115.46,115.46,0,0,1-5.56-24.64,38.52,38.52,0,0,1,.59-11.92c.9-3.7,2.85-6.67,5.79-8a.78.78,0,0,1,.35-.15.47.47,0,0,1,.25,0,3.61,3.61,0,0,1,.66,0,8.59,8.59,0,0,1,2,.66,22.43,22.43,0,0,1,4.54,3c.47.39.93.81,1.39,1.23A11.32,11.32,0,0,1,224.93,130.31Z"/><path d="M232.84,129.45a9,9,0,0,0-1.28.1,9.06,9.06,0,0,0-4.61,2.07l-.33.29A9.3,9.3,0,0,0,225,134a9.12,9.12,0,1,0,16.8,6.41,8.86,8.86,0,0,0,.18-1.8A9.12,9.12,0,0,0,232.84,129.45Z"/><path class="cls-1" d="M273.75,127.05c8.88,0,10.8,7.44,10.8,7.44C284.55,122.25,273.75,127.05,273.75,127.05Z"/><path d="M287.09,137.71a28.07,28.07,0,0,0-1.11-6.43,23.6,23.6,0,0,0-1.28-3.19,16.63,16.63,0,0,0-.9-1.57,9.94,9.94,0,0,0-1.37-1.7l-.65-.65-1.24-.1a20.57,20.57,0,0,0-7.41.8,34.49,34.49,0,0,0-6.59,2.69,58.47,58.47,0,0,0-11.08,7.91,125.52,125.52,0,0,0-17.41,19.77,227.63,227.63,0,0,0-25.14,45.44c-1.72,4.17-3.33,8.4-4.78,12.7.34,0,.68,0,1,0a11.38,11.38,0,0,1,7.25,2.59c1.49-3.93,3.11-7.83,4.81-11.69a280.12,280.12,0,0,1,24.16-43.81,134.06,134.06,0,0,1,15.51-19.15,54.31,54.31,0,0,1,9.18-7.56,22.13,22.13,0,0,1,9.06-3.44,7.92,7.92,0,0,1,.46.67,17.68,17.68,0,0,1,1.15,2.21,23.54,23.54,0,0,1,1.39,5.12,45.25,45.25,0,0,1,.25,11.24c-.17,1.91-.51,3.82-.8,5.73s-.7,3.84-1.19,5.74-1,3.8-1.51,5.7l-1.73,5.68,2.73-5.3c.9-1.78,1.62-3.64,2.42-5.47s1.39-3.76,2.09-5.65c.32-.95.55-1.94.83-2.91s.57-1.95.74-3l.59-3c.19-1,.27-2,.4-3.07a24.9,24.9,0,0,0,.21-3.12l0-1.58Zm-13.34-10.66s10.8-4.8,10.8,7.44C284.55,134.49,282.63,127.05,273.75,127.05Z"/><path d="M208.3,236.17c-3.46,13.53,5.55,16,5.55,16-11.73-1.88-9.26-10.8-6.61-16.14a11.29,11.29,0,0,1-4.25-1.65c-.18,1.44-.33,2.9-.4,4.38a29,29,0,0,0,.47,7.27,14.1,14.1,0,0,0,1.48,4,8.89,8.89,0,0,0,1.56,2,5.14,5.14,0,0,0,1,.85,5.86,5.86,0,0,0,1.05.61,15.17,15.17,0,0,0,7.69,1.54,20,20,0,0,0,7.13-1.88,37.88,37.88,0,0,0,10.9-8,75.85,75.85,0,0,0,8.35-10A93.66,93.66,0,0,0,249,224.21a116.6,116.6,0,0,1-17.64,18.07,38.63,38.63,0,0,1-10.32,6c-3.59,1.27-7.14,1.24-9.85-.51a.8.8,0,0,1-.31-.21.4.4,0,0,1-.17-.19,2.47,2.47,0,0,1-.36-.56,8.1,8.1,0,0,1-.54-2,22.75,22.75,0,0,1,.07-5.45c.12-1.06.3-2.12.49-3.19a9.87,9.87,0,0,1-1.22.07C208.87,236.21,208.59,236.19,208.3,236.17Z"/><path d="M215.55,218.32a9.07,9.07,0,0,0-6.23-2.47,8.82,8.82,0,0,0-2.07.25,9.1,9.1,0,0,0-3.91,15.74,9,9,0,0,0,5,2.19,5.65,5.65,0,0,0,.59,0l.4,0a9.32,9.32,0,0,0,1.51-.13,9.11,9.11,0,0,0,4.72-15.64Z"/></svg>