<svg xmlns="http://www.w3.org/2000/svg" viewBox="0 0 450.39 86.44"><defs><style>.cls-1{fill:#dd0222;}</style></defs><title>Recurso 11</title><g id="Capa_2" data-name="Capa 2"><g id="megatron"><path class="cls-1" d="M4.49,81.37H2.11v-17H4.49Z" transform="translate(-2.04)"/><path class="cls-1" d="M8.47,69.23h2.38V81.37H8.47ZM15.84,74a2.75,2.75,0,0,0-.67-2,2.44,2.44,0,0,0-1.87-.7,2.47,2.47,0,0,0-1.81.62,2.33,2.33,0,0,0-.64,1.74l-.24-2.34a4.31,4.31,0,0,1,1.47-1.7,3.6,3.6,0,0,1,2-.59,3.77,3.77,0,0,1,3.06,1.29A5.55,5.55,0,0,1,18.22,74v7.36H15.84Z" transform="translate(-2.04)"/><path class="cls-1" d="M23.42,81A3.73,3.73,0,0,1,22,79.32a6.56,6.56,0,0,1-.49-2.67V74A6.76,6.76,0,0,1,22,71.29a3.68,3.68,0,0,1,1.4-1.69,4.07,4.07,0,0,1,2.2-.58,3.64,3.64,0,0,1,2,.56A4.19,4.19,0,0,1,29,71.16l-.25,2.48a2.86,2.86,0,0,0-.28-1.32,2,2,0,0,0-.81-.84,2.73,2.73,0,0,0-1.29-.28,2.3,2.3,0,0,0-1.83.73A3,3,0,0,0,23.89,74v2.64a2.91,2.91,0,0,0,.65,2,2.33,2.33,0,0,0,1.83.72,2.62,2.62,0,0,0,1.29-.3,2,2,0,0,0,.81-.86,2.91,2.91,0,0,0,.28-1.34l.17,2.56A3.55,3.55,0,0,1,27.73,81a3.37,3.37,0,0,1-2,.61A4.34,4.34,0,0,1,23.42,81Zm1.13,5.3-1.08-.51a4,4,0,0,1-1.68-1.43l1.62-1.46a3.26,3.26,0,0,0,1.11,1,2.79,2.79,0,0,0,1.37.35A2.85,2.85,0,0,0,28,83.5a2.92,2.92,0,0,0,.75-2.14V69.23h2.39V81a6.2,6.2,0,0,1-.62,2.87,4.15,4.15,0,0,1-1.78,1.81,6,6,0,0,1-2.82.62Z" transform="translate(-2.04)"/><path class="cls-1" d="M38.05,81.55l-1.19-.63A4.2,4.2,0,0,1,35,79.06a6.36,6.36,0,0,1-.63-3V74.74A7,7,0,0,1,35,71.67a4.32,4.32,0,0,1,1.75-2,5.42,5.42,0,0,1,2.76-.66,4.35,4.35,0,0,1,2.59.76A4.69,4.69,0,0,1,43.77,72a9.59,9.59,0,0,1,.56,3.45v.79H36.15V74.34h5.91A4.09,4.09,0,0,0,41.3,72a2.15,2.15,0,0,0-1.77-.82,2.58,2.58,0,0,0-2.1.89,3.78,3.78,0,0,0-.75,2.51v1.55a3.16,3.16,0,0,0,.8,2.31,3,3,0,0,0,2.26.81A3.89,3.89,0,0,0,41.18,79a4.26,4.26,0,0,0,1.27-.82L44,79.74a6.83,6.83,0,0,1-2,1.34,5.82,5.82,0,0,1-2.25.47Z" transform="translate(-2.04)"/><path class="cls-1" d="M47.61,69.23H50V81.37H47.61ZM55,74a2.75,2.75,0,0,0-.67-2,2.44,2.44,0,0,0-1.87-.7,2.47,2.47,0,0,0-1.81.62A2.33,2.33,0,0,0,50,73.69l-.24-2.34a4.31,4.31,0,0,1,1.47-1.7,3.6,3.6,0,0,1,2-.59,3.77,3.77,0,0,1,3.06,1.29A5.55,5.55,0,0,1,57.36,74v7.36H55Z" transform="translate(-2.04)"/><path class="cls-1" d="M61,64.37h2.39v2.38H61Zm0,4.86h2.39V81.37H61Z" transform="translate(-2.04)"/><path class="cls-1" d="M70.29,81.55l-1.19-.63a4.15,4.15,0,0,1-1.82-1.86,6.36,6.36,0,0,1-.63-3V74.74a7.15,7.15,0,0,1,.6-3.07,4.43,4.43,0,0,1,1.75-2,5.47,5.47,0,0,1,2.76-.66,4.36,4.36,0,0,1,2.6.76A4.61,4.61,0,0,1,76,72a9.37,9.37,0,0,1,.57,3.45v.79H68.38V74.34H74.3A4.09,4.09,0,0,0,73.54,72a2.16,2.16,0,0,0-1.78-.82,2.61,2.61,0,0,0-2.1.89,3.83,3.83,0,0,0-.74,2.51v1.55a3.16,3.16,0,0,0,.8,2.31,3,3,0,0,0,2.25.81A3.82,3.82,0,0,0,73.41,79a4.31,4.31,0,0,0,1.28-.82l1.57,1.57a7,7,0,0,1-2,1.34,5.87,5.87,0,0,1-2.26.47Z" transform="translate(-2.04)"/><path class="cls-1" d="M79.85,69.23h2.38V81.37H79.85Zm5.88,2.29a2.93,2.93,0,0,0-1.11-.19,2.4,2.4,0,0,0-1.76.62,2.35,2.35,0,0,0-.63,1.74L82,71.35a4.39,4.39,0,0,1,1.45-1.69,3.43,3.43,0,0,1,2-.6,4.47,4.47,0,0,1,1.51.24,3.38,3.38,0,0,1,1.17.7l-1.55,2.11A2.14,2.14,0,0,0,85.73,71.52Z" transform="translate(-2.04)"/><path class="cls-1" d="M90,65.69l3.35-4.15L95,63l-3.57,3.93Zm.11,3.54h2.39V81.37H90.07Z" transform="translate(-2.04)"/><path class="cls-1" d="M96.61,80.62A3.47,3.47,0,0,1,95.5,77.8a3.42,3.42,0,0,1,1-2.71,4.5,4.5,0,0,1,3.07-.9H103l.17,1.92H99.6a2,2,0,0,0-1.39.42,1.61,1.61,0,0,0-.47,1.27,1.56,1.56,0,0,0,.62,1.36,3.15,3.15,0,0,0,1.86.45,5.44,5.44,0,0,0,2-.29,1,1,0,0,0,.68-.92l.24,1.71a2.74,2.74,0,0,1-.78.81,3.16,3.16,0,0,1-1.07.47,6.33,6.33,0,0,1-4.72-.77Zm6.33-6.94a2.59,2.59,0,0,0-.64-1.86,2.41,2.41,0,0,0-1.81-.66,4.59,4.59,0,0,0-1.42.23,4,4,0,0,0-1.23.62l-1.75-1.2a4.63,4.63,0,0,1,1.82-1.29,6.56,6.56,0,0,1,2.51-.46,5.73,5.73,0,0,1,2.59.53,3.76,3.76,0,0,1,1.64,1.54,5,5,0,0,1,.56,2.44v7.8h-2.27Z" transform="translate(-2.04)"/><path class="cls-1" d="M111.64,69.23h2.43l3.73,10.55-1.32,2.59Zm10.75,0-5.17,15a3.49,3.49,0,0,1-.74,1.31,2.51,2.51,0,0,1-1.12.7,5.5,5.5,0,0,1-1.64.21h-.48V84.15h.48a1.83,1.83,0,0,0,1.06-.27,2.12,2.12,0,0,0,.68-.93L120,69.23Z" transform="translate(-2.04)"/><path class="cls-1" d="M132.71,81.55l-1.1-.23a8.64,8.64,0,0,1-2.06-.71,8.55,8.55,0,0,1-1.78-1.17l1.49-1.82a6.64,6.64,0,0,0,2.14,1.26,7.44,7.44,0,0,0,2.54.42,5.06,5.06,0,0,0,2.86-.68,2.2,2.2,0,0,0,1-1.94h0a2.1,2.1,0,0,0-.46-1.41,2.86,2.86,0,0,0-1.2-.77,12.47,12.47,0,0,0-1.89-.46h-.15L134,74a18.21,18.21,0,0,1-2.78-.66A4,4,0,0,1,129.34,72a4.39,4.39,0,0,1-.76-2.77v0a4.84,4.84,0,0,1,.71-2.69,4.41,4.41,0,0,1,2.06-1.7,8.19,8.19,0,0,1,3.26-.59,8.34,8.34,0,0,1,1.8.2,8.71,8.71,0,0,1,1.74.59,9.43,9.43,0,0,1,1.69,1l-1.35,1.89a8.35,8.35,0,0,0-1.94-1.07,5.72,5.72,0,0,0-1.94-.35,4.57,4.57,0,0,0-2.7.69,2.28,2.28,0,0,0-1,2v0a1.9,1.9,0,0,0,.5,1.38,3,3,0,0,0,1.24.74,20.28,20.28,0,0,0,2.06.5h.09l.09,0,.13,0,.13,0a14.05,14.05,0,0,1,2.57.75A4,4,0,0,1,139.49,74a4.49,4.49,0,0,1,.69,2.64v0A4.41,4.41,0,0,1,137.31,81a8.73,8.73,0,0,1-3.37.58Z" transform="translate(-2.04)"/><path class="cls-1" d="M146.63,81.55l-1.2-.63a4.25,4.25,0,0,1-1.82-1.86,6.49,6.49,0,0,1-.62-3V74.74a7.15,7.15,0,0,1,.6-3.07,4.38,4.38,0,0,1,1.75-2,5.42,5.42,0,0,1,2.76-.66,4.39,4.39,0,0,1,2.6.76,4.68,4.68,0,0,1,1.64,2.2,9.37,9.37,0,0,1,.57,3.45v.79h-8.19V74.34h5.92a4.09,4.09,0,0,0-.77-2.31,2.15,2.15,0,0,0-1.77-.82,2.61,2.61,0,0,0-2.1.89,3.83,3.83,0,0,0-.74,2.51v1.55a3.16,3.16,0,0,0,.79,2.31,3,3,0,0,0,2.26.81,3.89,3.89,0,0,0,1.44-.29,4.14,4.14,0,0,0,1.27-.82l1.57,1.57a6.78,6.78,0,0,1-2,1.34,5.87,5.87,0,0,1-2.26.47Z" transform="translate(-2.04)"/><path class="cls-1" d="M156.18,69.23h2.39V81.37h-2.39Zm5.89,2.29a2.93,2.93,0,0,0-1.11-.19,2.39,2.39,0,0,0-1.76.62,2.35,2.35,0,0,0-.63,1.74l-.25-2.34a4.48,4.48,0,0,1,1.45-1.69,3.46,3.46,0,0,1,2-.6,4.45,4.45,0,0,1,1.5.24,3.42,3.42,0,0,1,1.18.7l-1.56,2.11A2,2,0,0,0,162.07,71.52Z" transform="translate(-2.04)"/><path class="cls-1" d="M173.55,69.23h2.5l-4.57,12.14h-1.8l-4.56-12.14h2.49l3,8.67Z" transform="translate(-2.04)"/><path class="cls-1" d="M178.39,64.37h2.38v2.38h-2.38Zm0,4.86h2.38V81.37h-2.38Z" transform="translate(-2.04)"/><path class="cls-1" d="M187.64,81.55l-1.18-.62a4.15,4.15,0,0,1-1.79-1.8,6,6,0,0,1-.62-2.86v-2a5.81,5.81,0,0,1,.62-2.81,4.18,4.18,0,0,1,1.79-1.79,6.08,6.08,0,0,1,2.84-.61,6.43,6.43,0,0,1,1.78.23,5.28,5.28,0,0,1,1.51.66,4.12,4.12,0,0,1,1.11,1L192,72.54a3.65,3.65,0,0,0-1.21-.9,3.42,3.42,0,0,0-1.44-.31,2.85,2.85,0,0,0-2.14.77,3,3,0,0,0-.76,2.17v2a3.08,3.08,0,0,0,.76,2.23,2.84,2.84,0,0,0,2.14.78,3.19,3.19,0,0,0,1.45-.34,3.45,3.45,0,0,0,1.2-1l1.72,1.66a4.33,4.33,0,0,1-1.13,1,5.36,5.36,0,0,1-1.5.65,6.81,6.81,0,0,1-1.77.22Z" transform="translate(-2.04)"/><path class="cls-1" d="M196.33,64.37h2.39v2.38h-2.39Zm0,4.86h2.39V81.37h-2.39Z" transform="translate(-2.04)"/><path class="cls-1" d="M204.3,80.93a4.13,4.13,0,0,1-1.72-1.81,6.4,6.4,0,0,1-.59-2.86v-2a6.29,6.29,0,0,1,.59-2.83,4.13,4.13,0,0,1,1.72-1.79,6.28,6.28,0,0,1,5.4,0,4.06,4.06,0,0,1,1.71,1.79,6.16,6.16,0,0,1,.59,2.83v2a6.16,6.16,0,0,1-.59,2.83,4,4,0,0,1-1.71,1.8,6.19,6.19,0,0,1-5.4,0Zm4.63-2.43a3.24,3.24,0,0,0,.69-2.2v-2a3.16,3.16,0,0,0-.69-2.19,2.82,2.82,0,0,0-3.87,0,3.16,3.16,0,0,0-.68,2.19v2a3.24,3.24,0,0,0,.68,2.2,2.79,2.79,0,0,0,3.87,0Z" transform="translate(-2.04)"/><path class="cls-1" d="M218.61,81.55l-.94-.21a7.37,7.37,0,0,1-1.76-.63,6.54,6.54,0,0,1-1.51-1.06l1.42-1.74a7.5,7.5,0,0,0,2,1.12,5.33,5.33,0,0,0,1.92.38,4.11,4.11,0,0,0,2.12-.44,1.45,1.45,0,0,0,.71-1.32,1,1,0,0,0-.39-.87,2,2,0,0,0-1-.39c-.38-.07-.92-.13-1.61-.19h-.2l-.2,0H219a9,9,0,0,1-2-.35,2.66,2.66,0,0,1-1.37-.94,3.14,3.14,0,0,1-.54-2,4.05,4.05,0,0,1,.52-2.15,3.3,3.3,0,0,1,1.57-1.28,7.06,7.06,0,0,1,2.61-.42,9.67,9.67,0,0,1,1.81.17,8,8,0,0,1,3.15,1.39l-1.44,1.75a8,8,0,0,0-1.79-.88,5.65,5.65,0,0,0-1.73-.29,3.29,3.29,0,0,0-1.82.41,1.41,1.41,0,0,0-.61,1.25.85.85,0,0,0,.34.74,2,2,0,0,0,.87.32c.35.06.85.1,1.5.14l.15,0h.3a10.19,10.19,0,0,1,2.17.34,2.94,2.94,0,0,1,1.5,1,3.46,3.46,0,0,1,.61,2.19,3.91,3.91,0,0,1-.56,2.17,3.39,3.39,0,0,1-1.7,1.3,7.91,7.91,0,0,1-2.83.43Z" transform="translate(-2.04)"/><path class="cls-1" d="M229.81,64.37h12v2.27h-12Zm4.8,1.39H237V81.37h-2.39Z" transform="translate(-2.04)"/><path class="cls-1" d="M245.45,81.55l-1.2-.63a4.25,4.25,0,0,1-1.82-1.86,6.49,6.49,0,0,1-.62-3V74.74a7.15,7.15,0,0,1,.6-3.07,4.38,4.38,0,0,1,1.75-2,5.42,5.42,0,0,1,2.76-.66,4.39,4.39,0,0,1,2.6.76,4.74,4.74,0,0,1,1.64,2.2,9.37,9.37,0,0,1,.57,3.45v.79h-8.19V74.34h5.92a4.09,4.09,0,0,0-.77-2.31,2.15,2.15,0,0,0-1.77-.82,2.61,2.61,0,0,0-2.1.89,3.78,3.78,0,0,0-.74,2.51v1.55a3.16,3.16,0,0,0,.79,2.31,3,3,0,0,0,2.26.81,3.89,3.89,0,0,0,1.44-.29,4.26,4.26,0,0,0,1.27-.82l1.57,1.57a6.78,6.78,0,0,1-2,1.34,5.87,5.87,0,0,1-2.26.47Zm0-15.86,3.35-4.15L250.55,63,247,66.89Z" transform="translate(-2.04)"/><path class="cls-1" d="M258.24,81.55l-1.17-.62a4.17,4.17,0,0,1-1.8-1.8,6.13,6.13,0,0,1-.62-2.86v-2a5.92,5.92,0,0,1,.62-2.81,4.2,4.2,0,0,1,1.8-1.79,6,6,0,0,1,2.83-.61,6.46,6.46,0,0,1,1.79.23,5.1,5.1,0,0,1,1.5.66,3.85,3.85,0,0,1,1.11,1l-1.72,1.54a3.51,3.51,0,0,0-1.2-.9,3.42,3.42,0,0,0-1.44-.31,2.85,2.85,0,0,0-2.14.77,2.94,2.94,0,0,0-.76,2.17v2a3.12,3.12,0,0,0,.75,2.23,2.86,2.86,0,0,0,2.15.78,3.19,3.19,0,0,0,1.45-.34,3.33,3.33,0,0,0,1.19-1l1.72,1.66a4.28,4.28,0,0,1-1.12,1,5.63,5.63,0,0,1-1.5.65,6.84,6.84,0,0,1-1.78.22Z" transform="translate(-2.04)"/><path class="cls-1" d="M266.93,69.23h2.39V81.37h-2.39ZM274.3,74a2.8,2.8,0,0,0-.66-2A2.9,2.9,0,0,0,270,72a2.29,2.29,0,0,0-.64,1.74l-.25-2.34a4.47,4.47,0,0,1,1.47-1.7,3.66,3.66,0,0,1,2-.59,3.77,3.77,0,0,1,3.06,1.29A5.55,5.55,0,0,1,276.69,74v7.36H274.3Z" transform="translate(-2.04)"/><path class="cls-1" d="M280.31,64.37h2.39v2.38h-2.39Zm0,4.86h2.39V81.37h-2.39Z" transform="translate(-2.04)"/><path class="cls-1" d="M289.57,81.55l-1.18-.62a4.15,4.15,0,0,1-1.79-1.8,6,6,0,0,1-.62-2.86v-2a5.81,5.81,0,0,1,.62-2.81,4.18,4.18,0,0,1,1.79-1.79,6.08,6.08,0,0,1,2.84-.61,6.38,6.38,0,0,1,1.78.23,5.28,5.28,0,0,1,1.51.66,4.12,4.12,0,0,1,1.11,1l-1.72,1.54a3.65,3.65,0,0,0-1.21-.9,3.42,3.42,0,0,0-1.44-.31,2.85,2.85,0,0,0-2.14.77,3,3,0,0,0-.76,2.17v2a3.08,3.08,0,0,0,.76,2.23,2.84,2.84,0,0,0,2.14.78,3.26,3.26,0,0,0,1.46-.34,3.42,3.42,0,0,0,1.19-1l1.72,1.66a4.33,4.33,0,0,1-1.13,1,5.36,5.36,0,0,1-1.5.65,6.81,6.81,0,0,1-1.77.22Z" transform="translate(-2.04)"/><path class="cls-1" d="M300.21,80.93a4.05,4.05,0,0,1-1.71-1.81,6.4,6.4,0,0,1-.59-2.86v-2a6.29,6.29,0,0,1,.59-2.83,4.06,4.06,0,0,1,1.71-1.79,6.3,6.3,0,0,1,5.41,0,4.06,4.06,0,0,1,1.71,1.79,6.16,6.16,0,0,1,.59,2.83v2a6.16,6.16,0,0,1-.59,2.83,4,4,0,0,1-1.71,1.8,6.21,6.21,0,0,1-5.41,0Zm4.64-2.43a3.24,3.24,0,0,0,.69-2.2v-2a3.16,3.16,0,0,0-.69-2.19,2.82,2.82,0,0,0-3.87,0,3.16,3.16,0,0,0-.68,2.19v2a3.24,3.24,0,0,0,.68,2.2,2.79,2.79,0,0,0,3.87,0Z" transform="translate(-2.04)"/><path class="cls-1" d="M314.53,81.55l-.94-.21a7.21,7.21,0,0,1-1.76-.63,6.54,6.54,0,0,1-1.51-1.06l1.41-1.74a7.72,7.72,0,0,0,2,1.12,5.33,5.33,0,0,0,1.92.38,4.11,4.11,0,0,0,2.12-.44,1.45,1.45,0,0,0,.71-1.32,1,1,0,0,0-.39-.87,2.08,2.08,0,0,0-1-.39c-.38-.07-.92-.13-1.61-.19h-.2l-.2,0h-.19a9.15,9.15,0,0,1-2-.35,2.67,2.67,0,0,1-1.36-.94,3.14,3.14,0,0,1-.54-2,4.05,4.05,0,0,1,.52-2.15,3.3,3.3,0,0,1,1.57-1.28,7,7,0,0,1,2.61-.42,9.67,9.67,0,0,1,1.81.17,8.25,8.25,0,0,1,1.64.52,8.53,8.53,0,0,1,1.51.87l-1.44,1.75a7.85,7.85,0,0,0-1.8-.88,5.59,5.59,0,0,0-1.72-.29,3.35,3.35,0,0,0-1.83.41,1.43,1.43,0,0,0-.6,1.25.85.85,0,0,0,.34.74,2,2,0,0,0,.87.32c.35.06.85.1,1.5.14l.15,0h.29a10.09,10.09,0,0,1,2.17.34,2.92,2.92,0,0,1,1.51,1,3.46,3.46,0,0,1,.6,2.19,3.83,3.83,0,0,1-.56,2.17,3.32,3.32,0,0,1-1.69,1.3,8,8,0,0,1-2.83.43Z" transform="translate(-2.04)"/><path class="cls-1" d="M330.45,81.37h-2.39v-17h2.39Z" transform="translate(-2.04)"/><path class="cls-1" d="M334.43,69.23h2.38V81.37h-2.38ZM341.8,74a2.8,2.8,0,0,0-.67-2,2.44,2.44,0,0,0-1.87-.7,2.47,2.47,0,0,0-1.81.62,2.33,2.33,0,0,0-.64,1.74l-.24-2.34a4.31,4.31,0,0,1,1.47-1.7,3.6,3.6,0,0,1,2-.59,3.77,3.77,0,0,1,3.06,1.29A5.55,5.55,0,0,1,344.18,74v7.36H341.8Z" transform="translate(-2.04)"/><path class="cls-1" d="M349.38,81A3.73,3.73,0,0,1,348,79.32a6.56,6.56,0,0,1-.49-2.67V74a6.76,6.76,0,0,1,.48-2.68,3.62,3.62,0,0,1,1.4-1.69,4.07,4.07,0,0,1,2.2-.58,3.64,3.64,0,0,1,2,.56A4.19,4.19,0,0,1,355,71.16l-.25,2.48a2.86,2.86,0,0,0-.28-1.32,2,2,0,0,0-.81-.84,2.74,2.74,0,0,0-1.3-.28,2.33,2.33,0,0,0-1.83.73,3.08,3.08,0,0,0-.64,2.08v2.64a3,3,0,0,0,.64,2,2.36,2.36,0,0,0,1.83.72,2.63,2.63,0,0,0,1.3-.3,2,2,0,0,0,.81-.86,2.91,2.91,0,0,0,.28-1.34l.16,2.56A3.46,3.46,0,0,1,353.69,81a3.37,3.37,0,0,1-2,.61A4.34,4.34,0,0,1,349.38,81Zm5.33-16.64h2.39v17h-2.39Z" transform="translate(-2.04)"/><path class="cls-1" d="M363.11,76.61a2.79,2.79,0,0,0,.65,2,2.35,2.35,0,0,0,1.83.7,2.51,2.51,0,0,0,1.81-.62,2.33,2.33,0,0,0,.65-1.77l.16,2.54a3.44,3.44,0,0,1-3.29,2.12,3.84,3.84,0,0,1-3.1-1.29,5.49,5.49,0,0,1-1.1-3.65V69.23h2.39Zm4.94-7.38h2.37V81.37h-2.37Z" transform="translate(-2.04)"/><path class="cls-1" d="M377.26,81.55l-.94-.21a7.37,7.37,0,0,1-1.76-.63,6.76,6.76,0,0,1-1.51-1.06l1.42-1.74A7.5,7.5,0,0,0,376.42,79a5.33,5.33,0,0,0,1.92.38,4.11,4.11,0,0,0,2.12-.44,1.43,1.43,0,0,0,.71-1.32,1,1,0,0,0-.39-.87,2,2,0,0,0-.95-.39c-.39-.07-.93-.13-1.62-.19H378l-.2,0h-.18a9,9,0,0,1-2-.35,2.7,2.7,0,0,1-1.37-.94,3.14,3.14,0,0,1-.54-2,4.05,4.05,0,0,1,.53-2.15,3.27,3.27,0,0,1,1.56-1.28,7.06,7.06,0,0,1,2.61-.42,9.59,9.59,0,0,1,1.81.17,8.25,8.25,0,0,1,1.64.52,7.88,7.88,0,0,1,1.51.87l-1.44,1.75a7.79,7.79,0,0,0-1.79-.88,5.65,5.65,0,0,0-1.73-.29,3.29,3.29,0,0,0-1.82.41,1.41,1.41,0,0,0-.61,1.25.85.85,0,0,0,.34.74,2,2,0,0,0,.88.32c.35.06.85.1,1.49.14l.15,0h.3a10.19,10.19,0,0,1,2.17.34,2.94,2.94,0,0,1,1.5,1,3.4,3.4,0,0,1,.61,2.19,3.91,3.91,0,0,1-.56,2.17,3.41,3.41,0,0,1-1.69,1.3,8,8,0,0,1-2.84.43Z" transform="translate(-2.04)"/><path class="cls-1" d="M385.53,69.23H391v2.16h-5.48Zm1.94,11.39a3.62,3.62,0,0,1-.68-2.4V65.7h2.38V78.24a1.1,1.1,0,0,0,.18.68.59.59,0,0,0,.51.24H391v2.27h-1.38A2.68,2.68,0,0,1,387.47,80.62Z" transform="translate(-2.04)"/><path class="cls-1" d="M394.28,69.23h2.39V81.37h-2.39Zm5.89,2.29a2.93,2.93,0,0,0-1.11-.19,2.39,2.39,0,0,0-1.76.62,2.35,2.35,0,0,0-.63,1.74l-.25-2.34a4.48,4.48,0,0,1,1.45-1.69,3.46,3.46,0,0,1,2-.6,4.45,4.45,0,0,1,1.5.24,3.42,3.42,0,0,1,1.18.7L401,72.11A2,2,0,0,0,400.17,71.52Z" transform="translate(-2.04)"/><path class="cls-1" d="M404.51,64.37h2.38v2.38h-2.38Zm0,4.86h2.38V81.37h-2.38Z" transform="translate(-2.04)"/><path class="cls-1" d="M411.05,80.62a3.47,3.47,0,0,1-1.11-2.82,3.42,3.42,0,0,1,1-2.71,4.55,4.55,0,0,1,3.08-.9h3.45l.16,1.92H414a2,2,0,0,0-1.4.42,1.61,1.61,0,0,0-.46,1.27,1.58,1.58,0,0,0,.61,1.36,3.18,3.18,0,0,0,1.87.45,5.51,5.51,0,0,0,2-.29,1,1,0,0,0,.67-.92l.25,1.71a2.74,2.74,0,0,1-.78.81,3.25,3.25,0,0,1-1.07.47,5.21,5.21,0,0,1-1.37.16A5.13,5.13,0,0,1,411.05,80.62Zm6.32-6.94a2.59,2.59,0,0,0-.63-1.86,2.41,2.41,0,0,0-1.81-.66,4.59,4.59,0,0,0-1.42.23,3.9,3.9,0,0,0-1.24.62l-1.74-1.2a4.63,4.63,0,0,1,1.82-1.29,6.52,6.52,0,0,1,2.51-.46,5.68,5.68,0,0,1,2.58.53,3.66,3.66,0,0,1,1.64,1.54,4.92,4.92,0,0,1,.56,2.44v7.8h-2.27Z" transform="translate(-2.04)"/><path class="cls-1" d="M425.66,78.24a1,1,0,0,0,.19.68.66.66,0,0,0,.54.24h1.13v2.27h-1.41a2.67,2.67,0,0,1-2.1-.84,3.49,3.49,0,0,1-.74-2.37V64.37h2.39Z" transform="translate(-2.04)"/><path class="cls-1" d="M433.49,81.55l-1.19-.63a4.2,4.2,0,0,1-1.82-1.86,6.36,6.36,0,0,1-.63-3V74.74a7.15,7.15,0,0,1,.61-3.07,4.32,4.32,0,0,1,1.75-2,5.42,5.42,0,0,1,2.76-.66,4.33,4.33,0,0,1,2.59.76,4.69,4.69,0,0,1,1.65,2.2,9.38,9.38,0,0,1,.56,3.45v.79h-8.18V74.34h5.92a4.09,4.09,0,0,0-.77-2.31,2.15,2.15,0,0,0-1.77-.82,2.58,2.58,0,0,0-2.1.89,3.78,3.78,0,0,0-.75,2.51v1.55a3.16,3.16,0,0,0,.8,2.31,3,3,0,0,0,2.26.81,3.89,3.89,0,0,0,1.44-.29,4.26,4.26,0,0,0,1.27-.82l1.57,1.57a6.91,6.91,0,0,1-2,1.34,5.91,5.91,0,0,1-2.26.47Z" transform="translate(-2.04)"/><path class="cls-1" d="M446.27,81.55l-.95-.21a7.52,7.52,0,0,1-1.76-.63,6.7,6.7,0,0,1-1.5-1.06l1.41-1.74A7.84,7.84,0,0,0,445.42,79a5.33,5.33,0,0,0,1.92.38,4.15,4.15,0,0,0,2.13-.44,1.44,1.44,0,0,0,.7-1.32,1,1,0,0,0-.38-.87,2.08,2.08,0,0,0-1-.39c-.38-.07-.92-.13-1.62-.19H447l-.2,0h-.19a9,9,0,0,1-2-.35,2.63,2.63,0,0,1-1.36-.94,3.08,3.08,0,0,1-.55-2,4.05,4.05,0,0,1,.53-2.15,3.25,3.25,0,0,1,1.57-1.28,7,7,0,0,1,2.6-.42,9.51,9.51,0,0,1,1.81.17,8.34,8.34,0,0,1,1.65.52,8.11,8.11,0,0,1,1.5.87L451,72.37a7.85,7.85,0,0,0-1.8-.88,5.6,5.6,0,0,0-1.73-.29,3.31,3.31,0,0,0-1.82.41,1.41,1.41,0,0,0-.61,1.25.86.86,0,0,0,.35.74,2,2,0,0,0,.87.32c.35.06.85.1,1.5.14l.14,0h.3a10.19,10.19,0,0,1,2.17.34,2.86,2.86,0,0,1,1.5,1,3.4,3.4,0,0,1,.61,2.19,3.91,3.91,0,0,1-.56,2.17,3.36,3.36,0,0,1-1.69,1.3,8,8,0,0,1-2.84.43Z" transform="translate(-2.04)"/><polygon class="cls-1" points="0 57 9.36 1.44 22.8 1.44 34.56 30.84 46.92 1.56 61.32 1.56 69.48 57.12 54.96 57.12 49.92 27.96 37.56 57.12 32.16 57.12 19.44 27.96 14.76 57 0 57"/><path class="cls-1" d="M79.56,1.32V57.24h30.6v-12h-16V36h16V24.12H94.08V14.64h17.4V1.2S79.32,1.08,79.56,1.32Z" transform="translate(-2.04)"/><path class="cls-1" d="M158.16,21,170,14.76S162.36,0,146.52,0s-29.4,12.84-29.4,30.36,12.36,28.32,28.8,28.32,28.92-10.2,28.32-32H146.16V37.2h12s1,9.6-11.76,9.6-14.88-10.56-14.88-17.28,3.24-16.08,14-16.08S158.16,21,158.16,21Z" transform="translate(-2.04)"/><path class="cls-1" d="M214.08,2.52H198.36l-21.12,54.6,14-.24L197,46.68h18.24L219.6,57h14.64Zm-13.44,33.6L205.92,20l5.64,16.08Z" transform="translate(-2.04)"/><polygon class="cls-1" points="233.4 2.4 271.08 2.4 271.08 14.64 258.96 14.64 258.96 57.12 245.52 57.12 245.52 14.52 233.52 14.52 233.4 2.4"/><path class="cls-1" d="M307.32,34.44s10.92-1,10.92-15S307.32,2.64,306.12,2.52s-26.88-.24-26.88-.24v55h13.44v-20l14.76,19.92h16.08Zm-14.64-7.8V13.32s12.12-2.16,12.12,6.6S292.68,26.64,292.68,26.64Z" transform="translate(-2.04)"/><path class="cls-1" d="M358.65,0a30,30,0,1,0,30,30A30,30,0,0,0,358.65,0Zm0,46.08A16.3,16.3,0,0,1,342.15,30a16.51,16.51,0,0,1,33,0A16.3,16.3,0,0,1,358.65,46.08Z" transform="translate(-2.04)"/><polygon class="cls-1" points="394.68 2.4 394.68 57.12 409.32 57.12 409.32 24 434.76 57.12 449.52 57.12 449.52 2.52 434.64 2.52 434.64 34.8 409.32 2.4 394.68 2.4"/></g></g></svg>