<svg xmlns="http://www.w3.org/2000/svg" viewBox="0 0 139.75 171.94"><defs><style>.cls-1{isolation:isolate;}.cls-2{opacity:0.3;mix-blend-mode:multiply;}.cls-3{fill:#ffc832;}.cls-4{fill:#fff;}</style></defs><title>maquinas_industriales</title><g class="cls-1"><g id="Capa_2" data-name="Capa 2"><g id="iconos"><g id="maquinas_industriales" data-name="maquinas industriales"><g class="cls-2"><path d="M139.75,39.1A23.21,23.21,0,0,0,98.47,24.52H40.2c-1.39-8.08-4.93-14-10.59-17.73C18.81-.28,5.48,4.61,4,5.19l5.83,14.9c1.35-.53,7.56-2.18,11,.08,3,2,3.84,7.15,4,11.13.19,4.94-.67,8.55-2.3,9.65-2.31,1.56-8,.4-11.21-1L4.66,54.47a38,38,0,0,0,14.57,3.22,21.61,21.61,0,0,0,12.2-3.44c4.75-3.17,7.71-8.12,8.87-14.74L95,47.67a23.24,23.24,0,0,0,6.9,9.42L74.21,105.47a29.69,29.69,0,0,0-15,47.69L40.39,171.94H123l-18.48-18.49a29.72,29.72,0,0,0,4.73-31l18.58-63A23.21,23.21,0,0,0,139.75,39.1Z"/><circle cx="118.15" cy="38.56" r="15.12"/><circle cx="81.83" cy="134.68" r="19.44"/></g><path class="cls-3" d="M135.75,36.1A23.21,23.21,0,0,0,94.47,21.52H36.2c-1.39-8.08-4.93-14-10.59-17.73C14.81-3.28,1.48,1.61,0,2.19l5.83,14.9c1.35-.53,7.56-2.18,11,.08,3,2,3.84,7.15,4,11.13.19,4.94-.67,8.55-2.3,9.65-2.31,1.56-8,.4-11.21-1L.66,51.47a38,38,0,0,0,14.57,3.22,21.61,21.61,0,0,0,12.2-3.44c4.75-3.17,7.71-8.12,8.87-14.74L91,44.67a23.24,23.24,0,0,0,6.9,9.42L70.21,102.47a29.69,29.69,0,0,0-15,47.69L36.39,168.94H119l-18.48-18.49a29.72,29.72,0,0,0,4.73-31l18.58-63A23.21,23.21,0,0,0,135.75,36.1Z"/><circle class="cls-4" cx="114.15" cy="35.56" r="15.12"/><circle class="cls-4" cx="77.83" cy="131.68" r="19.44"/></g></g></g></g></svg>