<svg xmlns="http://www.w3.org/2000/svg" viewBox="0 0 449.52 60"><defs><style>.cls-1{fill:#dd0222;}</style></defs><title>name</title><g id="Capa_2" data-name="Capa 2"><g id="megatron"><polygon class="cls-1" points="0 57 9.36 1.44 22.8 1.44 34.56 30.84 46.92 1.56 61.32 1.56 69.48 57.12 54.96 57.12 49.92 27.96 37.56 57.12 32.16 57.12 19.44 27.96 14.76 57 0 57"/><path class="cls-1" d="M77.52,1.32V57.24h30.6v-12h-16V36h16V24.12H92V14.64h17.4V1.2S77.28,1.08,77.52,1.32Z"/><path class="cls-1" d="M156.12,21,168,14.76S160.32,0,144.48,0s-29.4,12.84-29.4,30.36,12.36,28.32,28.8,28.32,28.92-10.2,28.32-32H144.12V37.2h12s1,9.6-11.76,9.6-14.88-10.56-14.88-17.28,3.24-16.08,14-16.08S156.12,21,156.12,21Z"/><path class="cls-1" d="M212,2.52H196.32L175.2,57.12l14-.24L195,46.68h18.24L217.56,57H232.2ZM198.6,36.12,203.88,20l5.64,16.08Z"/><polygon class="cls-1" points="233.4 2.4 271.08 2.4 271.08 14.64 258.96 14.64 258.96 57.12 245.52 57.12 245.52 14.52 233.52 14.52 233.4 2.4"/><path class="cls-1" d="M305.28,34.44s10.92-1,10.92-15S305.28,2.64,304.08,2.52s-26.88-.24-26.88-.24v55h13.44v-20L305.4,57.12h16.08Zm-14.64-7.8V13.32s12.12-2.16,12.12,6.6S290.64,26.64,290.64,26.64Z"/><path class="cls-1" d="M356.61,0a30,30,0,1,0,30,30A30,30,0,0,0,356.61,0Zm0,46.08A16.3,16.3,0,0,1,340.11,30a16.51,16.51,0,0,1,33,0A16.3,16.3,0,0,1,356.61,46.08Z"/><polygon class="cls-1" points="394.68 2.4 394.68 57.12 409.32 57.12 409.32 24 434.76 57.12 449.52 57.12 449.52 2.52 434.64 2.52 434.64 34.8 409.32 2.4 394.68 2.4"/></g></g></svg>