<svg xmlns="http://www.w3.org/2000/svg" viewBox="0 0 117.33 105.79"><defs><style>.cls-1{fill:#dba18f;}.cls-2{fill:#dbac90;}.cls-3{fill:#e6b494;}.cls-4{fill:#f9cfb3;}.cls-5{fill:#2a2722;}.cls-6{fill:#3d3b36;}.cls-7{fill:#e8bb95;}.cls-8{fill:#455256;}.cls-9{fill:#c89374;}.cls-10{fill:#d5a378;}.cls-11{fill:#303e43;}.cls-12{fill:#20b7ea;}.cls-13{fill:#1c9ec6;}.cls-14{fill:#84969b;}.cls-15{fill:#62767f;}.cls-16{fill:#f7dc54;}.cls-17{fill:#ecbb1a;}.cls-18{fill:#c1c1c1;}.cls-19{fill:#d6d6d6;}.cls-20{fill:#7a7a7a;}.cls-21{fill:#fff;}.cls-22{fill:#adadad;}.cls-23{fill:#777;}.cls-24{fill:#324951;}.cls-25{fill:#3e5057;}.cls-26{fill:#253438;}</style></defs><title>serviciosCover</title><g id="Capa_2" data-name="Capa 2"><g id="_1" data-name="1"><g id="_2" data-name="2"><g id="_2-2" data-name="2"><path class="cls-1" d="M64,49.84h0Z"/><path class="cls-1" d="M64,49.85,65.15,51l-.44-.49A7.93,7.93,0,0,0,64,49.85Z"/><path class="cls-2" d="M68.57,53.86a8.33,8.33,0,0,1-1.7-1.19l5.26,5.24v-3.6A7.38,7.38,0,0,1,68.57,53.86Z"/><path class="cls-3" d="M88.59,28.86c-.41.3-.21,1.05-.59,1.3l0,0c-.11.37-.22.73-.33,1.06H86.34A13.59,13.59,0,0,1,86.46,29a9.83,9.83,0,0,1-2.66.62q-5.83.5-11.67.49V54.31h1l.55,0H74c.21,0,.41-.07.61-.1l.28-.05a3.46,3.46,0,0,0,.8-.29,13.79,13.79,0,0,0,3.86-3.39,20.22,20.22,0,0,1,2.83-2.2,6.84,6.84,0,0,0,1.42-1.37A7.7,7.7,0,0,0,85,44.5c.37-1.31.2-3.35,1.19-4.4s1.78-1.31,2.41-2.61a15.41,15.41,0,0,0,1.33-7.43C89.87,29.36,89.5,28.19,88.59,28.86Z"/><path class="cls-4" d="M57.58,29c0,.45,0,.9,0,1.4a7.87,7.87,0,0,1,0,.87H56c0-.28,0-.55,0-.72,0-.41,0-.78,0-1.14a.78.78,0,0,0-.27-.52c-.9-.67-1.28.5-1.32,1.2a15.42,15.42,0,0,0,1.34,7.43c.63,1.3,1.52,1.67,2.41,2.61s.82,3.1,1.19,4.4a7.7,7.7,0,0,0,1.14,2.4,8.24,8.24,0,0,0,2,1.8c.53.37,1.06.73,1.55,1.14a6.87,6.87,0,0,1,.69.63l.44.49h0a21.34,21.34,0,0,0,1.72,1.71,8.75,8.75,0,0,0,1.7,1.19,7.38,7.38,0,0,0,3.56.45V30.15q-5.88,0-11.76-.51A9.73,9.73,0,0,1,57.58,29Z"/><path class="cls-5" d="M86.34,31.24h1.29c.11-.33.22-.69.33-1.06.26-.87.52-1.75.67-2.36A9,9,0,0,1,86.46,29,13.59,13.59,0,0,0,86.34,31.24Z"/><path class="cls-6" d="M57.59,29a8.66,8.66,0,0,1-1.77-1A9.39,9.39,0,0,1,56,29.38c0,.36,0,.73,0,1.14,0,.17,0,.44,0,.72h1.66a7.87,7.87,0,0,0,0-.87A13.16,13.16,0,0,1,57.59,29Z"/><path class="cls-7" d="M66.87,52.67A21.34,21.34,0,0,1,65.15,51L64,49.84h0c-.49-.41-1-.77-1.55-1.14v3a11.7,11.7,0,0,1-.55,3.56,32.09,32.09,0,0,0-1,3.35l.08.15A14.18,14.18,0,0,0,72.12,64.5h.08l-.07-6.59Z"/><path class="cls-8" d="M61,58.78h0v0a.31.31,0,0,1-.09-.11,2.88,2.88,0,0,0-.44.13c-.74.2-2,.58-3.46,1v20.1H49V62.22C43,64,37,65.82,36.84,66c-6.73,8.36-9.11,26.62-9.11,39.57h17V81.94H72.14V68.48h0v-4h0A14.22,14.22,0,0,1,61,58.78Z"/><path class="cls-9" d="M82.54,52.46l-.13-4.19a20.22,20.22,0,0,0-2.83,2.2,14,14,0,0,1-3.86,3.39,3.46,3.46,0,0,1-.8.29l-.28.05c-.2,0-.4.08-.61.1h-.4l-.54,0h-1v3.6l6,5.41a14.2,14.2,0,0,0,5.85-4.68h0c.09,0-.7-2.84-1.12-4.34A8.09,8.09,0,0,1,82.54,52.46Z"/><path class="cls-10" d="M72.2,64.5h.34c.35,0,.7,0,1,0h0a14.05,14.05,0,0,0,4.49-1.13h0l-6-5.41Z"/><path class="cls-11" d="M96.08,62.3V79.91h-8v-20l-3.69-1.1c-.19-.07-.35-.1-.46-.14h0a14.12,14.12,0,0,1-5.85,4.68h0a14.05,14.05,0,0,1-4.49,1.13h0c-.35,0-.7,0-1,0h-.39v4h0V81.94h28.17v23.65h17C117.33,91,115.58,73,108,66,107.82,65.84,102,64.07,96.08,62.3Z"/><path class="cls-12" d="M44.77,81.94h0v23.65h5V93.77H67.33v11.82h4.91l-.16-23.65ZM56,84.85H49.83V83.07H56Z"/><path class="cls-13" d="M72.14,81.94h-.06l.16,23.65h28.07V81.94H72.14ZM89,83.07h6.21v1.78H89Z"/><path class="cls-12" d="M49,62.22V79.91h8V59.81l-1.61.48C53.46,60.89,51.22,61.55,49,62.22Zm7,16.45H49.83V76.89H56Z"/><path class="cls-13" d="M88.08,59.88v20h8V62.3l-6.62-2Zm7.16,18.79H89V76.89h6.21Z"/><rect class="cls-8" x="49.83" y="83.07" width="6.21" height="1.78"/><rect class="cls-8" x="49.83" y="76.89" width="6.21" height="1.78"/><rect class="cls-11" x="89.03" y="83.07" width="6.21" height="1.78"/><rect class="cls-11" x="89.03" y="76.89" width="6.21" height="1.78"/><rect class="cls-13" x="49.76" y="93.77" width="17.57" height="11.82"/><path class="cls-14" d="M96.92,76.66l-4.56.87,0,0-7,20.11,3-.27L94,81.24a6,6,0,0,0,4.39-8.82Z"/><path class="cls-15" d="M90.79,69.8a6,6,0,0,0-2,9.65L82.42,97.88l3-.26,7-20.11-3-3.47Z"/><path class="cls-16" d="M98.79,83.29l-4.61.47,0,0-8.7,19.42h3l7-15.56a6,6,0,0,0,5.15-8.4Z"/><path class="cls-17" d="M93.29,75.92a6,6,0,0,0-2.84,9.44l-8,17.8h3l8.7-19.42L91.46,80Z"/><rect class="cls-12" x="76.68" y="93.77" width="17.57" height="11.82"/><path class="cls-17" d="M83.54,4l0,0-.15-.19Z"/><path class="cls-18" d="M84.59,5.94c-.48-.36-1-.68-1.53-1l-.16.29a18.93,18.93,0,0,1,1.66,1.45c-2.69,4.15-5.16,9.32-7.34,13.6C79.89,12.53,82.13,7,83,4.9l-.08-.05.24-.34L83.38,4a1.51,1.51,0,0,1,0-.25C82.72,3.05,79.7.4,72.39,0h0V23.62a144.43,144.43,0,0,0,20.29-1.45c0-.05,0-.09,0-.14A18.64,18.64,0,0,0,84.59,5.94Z"/><path class="cls-18" d="M93.35,22.07a144,144,0,0,1-21,1.55v3.14q6.57,0,13.15-.42a11.18,11.18,0,0,0,5.25-1.52l-.46.54a6.55,6.55,0,0,1-2.11,1.52,9.75,9.75,0,0,1-3.32.91q-6.26.57-12.51.57v1.79q5.87,0,11.72-.5a9.44,9.44,0,0,0,5.24-2.1l2.22-.24a2.73,2.73,0,0,0,2.55-2.78l-.24-2.08Z"/><path class="cls-19" d="M50.89,22.45c-.07.7-.15,1.39-.23,2.08a2.72,2.72,0,0,0,2.54,2.78l2.16.24a9.52,9.52,0,0,0,5.22,2.1q5.9.51,11.8.5V28.36q-6.3,0-12.61-.58a9.8,9.8,0,0,1-3.33-.9,6.47,6.47,0,0,1-2.21-1.65L54,24.92a11.65,11.65,0,0,0,5.13,1.41q6.63.42,13.26.43V23.62a144,144,0,0,1-21-1.55Z"/><path class="cls-20" d="M72.38,26.76v1.6q6.25,0,12.51-.57a9.75,9.75,0,0,0,3.32-.91,6.55,6.55,0,0,0,2.11-1.52l.46-.54a11.18,11.18,0,0,1-5.25,1.52Q79,26.76,72.38,26.76Z"/><path class="cls-21" d="M72.38,0C65,.41,62,3.09,61.36,3.76a1.76,1.76,0,0,1-.14.17l0,0,.12-.2a1.8,1.8,0,0,1,0,.23l.24.53.22.33-.06,0a159.86,159.86,0,0,1,5.77,15.39A153.5,153.5,0,0,0,60.2,6.68a20.5,20.5,0,0,1,1.66-1.45l-.15-.29a17.65,17.65,0,0,0-1.54,1A18.58,18.58,0,0,0,52.1,22s0,.1,0,.14a144.15,144.15,0,0,0,20.27,1.45l15.86-.89-15.86-.84Z"/><path class="cls-22" d="M54,24.92l.24.31a6.47,6.47,0,0,0,2.21,1.65,9.8,9.8,0,0,0,3.33.9q6.3.59,12.61.58v-1.6q-6.63,0-13.26-.43A11.65,11.65,0,0,1,54,24.92Z"/><path class="cls-23" d="M61.62,4.52,61.38,4a1.8,1.8,0,0,0,0-.23l-.12.2,0,0,.49,1,.15.29A20.5,20.5,0,0,0,60.2,6.68a153.5,153.5,0,0,1,7.35,13.6A159.86,159.86,0,0,0,61.78,4.89C61.72,4.75,61.66,4.63,61.62,4.52Z"/><path class="cls-23" d="M83.06,4.94l.5-1,0,0-.13-.22a1.51,1.51,0,0,0,0,.25l-.22.52c0,.11-.1.24-.16.39-.87,2.09-3.11,7.63-5.78,15.38,2.18-4.28,4.65-9.45,7.34-13.6A18.93,18.93,0,0,0,82.9,5.23Z"/><polygon class="cls-15" points="48.75 100.29 45.91 100.29 45.91 91.35 45.91 21.19 42.47 21.19 42.47 91.35 42.47 100.29 7.19 100.29 7.19 99.6 3.67 99.6 3.67 105.79 51.53 105.79 51.53 99.6 48.75 99.6 48.75 100.29"/><path class="cls-24" d="M38.88,18.44h-.19v.1L27.06,25.13l11.63,10,3.09,2.65v3.62l-3.09-2.65L24.6,26.64a2.56,2.56,0,0,1-.49.16L.92,49.73,0,58.1,25,43.66,38.69,54.42V86.17H7.19v14.12H42.47V21.19h3.44v79.1h2.84V91.35h0V18.21h-9.5Zm.83,78.41H10.33V94.33H39.71Zm0-5.73H10.33V88.59H39.71Zm2.07-39.26-3.09-2.64L24.14,36.73a3.43,3.43,0,1,1,1.8-2.08L38.69,45.59l3.09,2.65Z"/><path class="cls-15" d="M15.07,54.41a14.32,14.32,0,0,0-2.61,1.43L9,53.68,5.31,57.83,7.89,61a14.69,14.69,0,0,0-1.07,2.74l-4.06.58L2.61,69.9l4.07.8a14.15,14.15,0,0,0,.94,2.75L4.84,76.53l3.45,4.35,3.68-2a14.42,14.42,0,0,0,2.44,1.48l-.14,4.18,4.22.87,1.23.25.09-.25.68-1.76V79a11.5,11.5,0,0,1-9-4.36,11.42,11.42,0,0,1,9-18.57V49.54l-5.34.79Z"/><path class="cls-24" d="M36.63,59.28l-4.09.63a14.5,14.5,0,0,0-1.82-2.3l1.53-3.8L27.52,50.9,24.82,54a13.42,13.42,0,0,0-2.91-.59l-1.26-3.87-.16,0v6.52a11.48,11.48,0,0,1,3.8.63,12,12,0,0,1,1.17.48,11.43,11.43,0,0,1,5.81,6.29,11,11,0,0,1,.63,2.38A10.53,10.53,0,0,1,32,67.51a11.45,11.45,0,0,1-2.68,7.36A11.57,11.57,0,0,1,27,77a11.32,11.32,0,0,1-6.51,2v4.64l.75-1.92c.46,0,.92-.07,1.38-.14a13.59,13.59,0,0,0,1.44-.29l2.59,3.31L31.53,82l-1.36-4a14.2,14.2,0,0,0,1.89-2.14l4.11.87,2-5.16-3.58-2.16a13.24,13.24,0,0,0,.08-2.89l3.67-1.95Z"/><path class="cls-25" d="M9.17,69.2a11.38,11.38,0,0,0,2.36,5.43,11.49,11.49,0,0,0,9,4.35V76.63A9.11,9.11,0,0,1,19.2,58.5a11.18,11.18,0,0,1,1.29-.09V56.06h0A11.4,11.4,0,0,0,9.17,69.2Z"/><path class="cls-26" d="M31.27,63.46a11.43,11.43,0,0,0-5.81-6.29,12,12,0,0,0-1.17-.48,11.48,11.48,0,0,0-3.8-.63v2.35a9.11,9.11,0,0,1,1.39,18.13,8.18,8.18,0,0,1-1.39.09V79h0A11.32,11.32,0,0,0,27,77a11.57,11.57,0,0,0,2.35-2.12A11.45,11.45,0,0,0,32,67.51a10.53,10.53,0,0,0-.13-1.67A11,11,0,0,0,31.27,63.46Z"/><path class="cls-16" d="M25.94,34.65a3.46,3.46,0,1,0-1.8,2.08L38.69,49.22l3.09,2.64V48.24l-3.09-2.65Z"/><path class="cls-16" d="M27.06,25.13l-.67-.57a3.44,3.44,0,1,0-5.53,1.6,3.45,3.45,0,0,0,3.25.64,2.56,2.56,0,0,0,.49-.16L38.69,38.73l3.09,2.65V37.76l-3.09-2.65Z"/><polygon class="cls-16" points="10.33 88.59 10.33 91.12 38.69 91.12 39.71 91.12 39.71 88.59 38.69 88.59 10.33 88.59"/><rect class="cls-16" x="10.33" y="94.33" width="29.38" height="2.52"/></g></g></g></g></svg>