<svg xmlns="http://www.w3.org/2000/svg" viewBox="0 0 117.55 105.63"><defs><style>.cls-1{fill:#f3b70e;}.cls-2{fill:#f2b100;}.cls-3{fill:#dba18f;}.cls-4{fill:#dbac90;}.cls-5{fill:#e6b494;}.cls-6{fill:#f9cfb3;}.cls-7{fill:#2a2722;}.cls-8{fill:#3d3b36;}.cls-9{fill:#e8bb95;}.cls-10{fill:#455256;}.cls-11{fill:#ecbb1a;}.cls-12{fill:#c89374;}.cls-13{fill:#d5a378;}.cls-14{fill:#303e43;}.cls-15{fill:#f9cb31;}.cls-16{fill:#20b7ea;}.cls-17{fill:#1c9ec6;}.cls-18{fill:#84969b;}.cls-19{fill:#62767f;}.cls-20{fill:#f7dc54;}.cls-21{fill:#324951;}.cls-22{fill:#3e5057;}.cls-23{fill:#253438;}</style></defs><title>serviciosCover</title><g id="Capa_2" data-name="Capa 2"><g id="_1" data-name="1"><g id="_2" data-name="2"><g id="_2-2" data-name="2"><path class="cls-1" d="M61.62,4.5c-.14-.33-.23-.52-.23-.52a1.22,1.22,0,0,0,0-.23,1.87,1.87,0,0,1-.11.2l0,0,.48.94.15.29a20.49,20.49,0,0,0-1.65,1.44c2.69,4.13,5.14,9.29,7.32,13.55A157.81,157.81,0,0,0,61.78,4.87Z"/><path class="cls-2" d="M83,4.92l.5-.94,0,0-.14-.22a2.25,2.25,0,0,0,0,.25l-.22.51c0,.11-.1.24-.16.39-.87,2.08-3.1,7.6-5.75,15.33a153.47,153.47,0,0,1,7.3-13.56c-.52-.51-1.08-1-1.64-1.44Z"/><path class="cls-3" d="M64.24,49.73l0,0,0,0Z"/><path class="cls-3" d="M64.26,49.75l1.1,1.1-.44-.48A5.51,5.51,0,0,0,64.26,49.75Z"/><path class="cls-4" d="M68.79,53.75a8.41,8.41,0,0,1-1.71-1.19l5.26,5.24V54.2A7.32,7.32,0,0,1,68.79,53.75Z"/><path class="cls-5" d="M88.8,28.75c-.41.31-.21,1.05-.59,1.3l0,0c-.12.37-.23.73-.33,1.07h-1.3a16.34,16.34,0,0,1,.12-2.22,9.85,9.85,0,0,1-2.65.62q-5.83.5-11.68.49V54.2h.48l.48,0,.55,0h.39a6,6,0,0,0,.61-.1,2.5,2.5,0,0,0,.29-.05,3.38,3.38,0,0,0,.79-.29,14,14,0,0,0,3.87-3.38,19.18,19.18,0,0,1,2.83-2.21A6.54,6.54,0,0,0,84,46.79a7.6,7.6,0,0,0,1.14-2.4c.37-1.3.21-3.35,1.19-4.39s1.78-1.32,2.42-2.62A15.53,15.53,0,0,0,90.12,30C90.08,29.25,89.71,28.08,88.8,28.75Z"/><path class="cls-6" d="M57.8,28.86c0,.45,0,.9,0,1.4,0,.2,0,.53,0,.88H56.17c0-.29,0-.55,0-.73,0-.41,0-.78,0-1.14a.88.88,0,0,0-.27-.52c-.91-.67-1.28.5-1.32,1.2a15.41,15.41,0,0,0,1.33,7.43c.64,1.3,1.53,1.67,2.42,2.62s.82,3.09,1.19,4.39a7.39,7.39,0,0,0,1.14,2.4,8.06,8.06,0,0,0,2,1.8c.52.37,1.06.73,1.55,1.14a6.76,6.76,0,0,1,.68.63l.44.49h0a19.82,19.82,0,0,0,1.72,1.71,8.41,8.41,0,0,0,1.71,1.19,7.32,7.32,0,0,0,3.55.45V30q-5.86,0-11.75-.51A9.27,9.27,0,0,1,57.8,28.86Z"/><path class="cls-7" d="M86.55,31.14h1.3c.1-.34.21-.7.33-1.07.26-.87.52-1.75.67-2.36a9.08,9.08,0,0,1-2.18,1.21A16.34,16.34,0,0,0,86.55,31.14Z"/><path class="cls-8" d="M57.8,28.86a8.33,8.33,0,0,1-1.76-1,11,11,0,0,1,.15,1.38c0,.36,0,.73,0,1.14,0,.17,0,.44,0,.73h1.65a8.47,8.47,0,0,0,0-.88C57.79,29.76,57.79,29.31,57.8,28.86Z"/><path class="cls-9" d="M67.08,52.56a18.4,18.4,0,0,1-1.71-1.71l-1.13-1.12h0c-.49-.41-1-.77-1.55-1.14v3a11.72,11.72,0,0,1-.56,3.56c-.47,1.48-1.07,3.38-1,3.35l.08.15a14.19,14.19,0,0,0,11.12,5.72h.07l-.07-6.59Z"/><path class="cls-10" d="M61.22,58.67h0a.94.94,0,0,1-.09-.12,2.88,2.88,0,0,0-.44.13c-.74.21-2,.58-3.46,1V79.8h-8V62.11c-6,1.8-12,3.6-12.16,3.8C30.32,74.27,28,92.53,28,105.48H45V81.84H72.35l0-13.47h0v-4h0A14.19,14.19,0,0,1,61.22,58.67Z"/><path class="cls-11" d="M84.51,5.91c-.49-.35-1-.68-1.53-1l-.15.29c.56.45,1.12.93,1.64,1.44-2.67,4.13-5.14,9.29-7.3,13.55C79.82,12.48,82.05,7,82.92,4.88l-.08,0,.24-.34L83.3,4a2.25,2.25,0,0,1,0-.25C82.64,3,79.64.4,72.35,0h0V23.53c1.71,0,3.42,0,5.13-.1.57,0,1.14-.06,1.7-.09,1.15-.05,2.29-.11,3.44-.19.68,0,1.36-.12,2-.18,1-.09,2.07-.18,3.1-.29.57-.06,1.14-.14,1.71-.21l.5-.06c.86-.11,1.73-.21,2.59-.33,0,0,0-.09,0-.14A18.6,18.6,0,0,0,84.51,5.91Z"/><path class="cls-2" d="M93.23,22l-.68.09c-.86.12-1.73.22-2.59.33l-.5.06c-.57.07-1.14.15-1.71.21-1,.11-2.06.2-3.1.29-.68.06-1.36.13-2,.18-1.15.08-2.29.14-3.44.19-.56,0-1.13.07-1.7.09-1.71.07-3.42.1-5.13.1v3.12q6.55,0,13.1-.42a11,11,0,0,0,5.23-1.51l-.46.54a6.5,6.5,0,0,1-2.1,1.52,10,10,0,0,1-3.31.9q-6.24.57-12.46.57V30q5.84,0,11.68-.49a9.85,9.85,0,0,0,2.65-.62,9.08,9.08,0,0,0,2.18-1.21,3.28,3.28,0,0,0,.38-.27l2.22-.24A2.71,2.71,0,0,0,94,24.44l-.24-2.08C93.55,22.21,93.43,22.13,93.23,22Z"/><path class="cls-1" d="M65.52,23.34c-1.14-.05-2.29-.11-3.44-.19L60,23c-1-.09-2.06-.18-3.09-.29-.57-.06-1.13-.14-1.69-.21l-.5-.06-2.6-.33L51.46,22l-.52.37-.24,2.08a2.71,2.71,0,0,0,2.54,2.76l2.15.24c.2.16.43.3.65.45a8.33,8.33,0,0,0,1.76,1,9.27,9.27,0,0,0,2.79.67q5.88.51,11.75.51V28.25q-6.27,0-12.56-.58a9.91,9.91,0,0,1-3.31-.89,6.33,6.33,0,0,1-2.2-1.65L54,24.82a11.65,11.65,0,0,0,5.11,1.4q6.6.44,13.21.43V23.53c-1.71,0-3.42,0-5.13-.1Z"/><path class="cls-12" d="M82.75,52.35l-.12-4.19a18.53,18.53,0,0,0-2.83,2.21,14,14,0,0,1-3.87,3.38,3.38,3.38,0,0,1-.79.29l-.29.05a5.55,5.55,0,0,1-.61.1h-.39c-.18,0-.36,0-.55,0l-.49,0h-.47v3.6l6,5.41a14.05,14.05,0,0,0,5.85-4.68h0c.09,0-.7-2.84-1.12-4.34A7.58,7.58,0,0,1,82.75,52.35Z"/><path class="cls-13" d="M72.41,64.39h.34c.35,0,.7,0,1,0h0a14,14,0,0,0,4.48-1.13h0l-6-5.41Z"/><path class="cls-14" d="M96.3,62.19V79.8h-8v-20l-3.68-1.1c-.2-.07-.35-.1-.47-.14h0a14.05,14.05,0,0,1-5.85,4.68h0a14,14,0,0,1-4.48,1.13h0c-.35,0-.7,0-1,0h-.38v4h0l0,13.47h28.17v23.64h17c0-14.57-1.75-32.63-9.31-39.57C108,65.73,102.21,64,96.3,62.19Z"/><path class="cls-11" d="M72.34,26.65v1.6q6.22,0,12.46-.57a9.76,9.76,0,0,0,3.31-.91,6.34,6.34,0,0,0,2.1-1.51l.46-.54a11,11,0,0,1-5.23,1.51Q78.9,26.65,72.34,26.65Z"/><path class="cls-15" d="M54,24.82l.25.31a6.19,6.19,0,0,0,2.2,1.64,9.69,9.69,0,0,0,3.31.9q6.28.58,12.56.58v-1.6q-6.6,0-13.21-.43A11.65,11.65,0,0,1,54,24.82Z"/><path class="cls-16" d="M45,81.84h0v23.64h5V93.66H67.54v11.82h4.91L72.3,81.84Zm11.27,2.91H50V83h6.21Z"/><path class="cls-17" d="M72.35,81.84h0l.15,23.64h28.07V81.84H72.35ZM89.24,83h6.21v1.79H89.24Z"/><path class="cls-16" d="M49.21,62.11V79.8h8V59.71l-1.61.47C53.67,60.78,51.44,61.44,49.21,62.11Zm7,16.45H50V76.78h6.21Z"/><path class="cls-17" d="M88.3,59.77v20h8V62.19l-6.63-2Zm7.15,18.79H89.24V76.78h6.21Z"/><rect class="cls-10" x="50.04" y="82.96" width="6.21" height="1.78"/><rect class="cls-10" x="50.04" y="76.78" width="6.21" height="1.78"/><rect class="cls-14" x="89.24" y="82.96" width="6.21" height="1.78"/><rect class="cls-14" x="89.24" y="76.78" width="6.21" height="1.78"/><rect class="cls-17" x="49.97" y="93.66" width="17.57" height="11.82"/><path class="cls-18" d="M97.13,76.55l-4.55.87,0,0-7,20.11,3-.27L94.2,81.13a6,6,0,0,0,4.82-4,5.93,5.93,0,0,0-.43-4.85Z"/><path class="cls-19" d="M91,69.69a6,6,0,0,0-2,9.65L82.63,97.77l3-.26,7-20.11-3-3.47Z"/><path class="cls-20" d="M99,83.18l-4.61.47,0,0-8.7,19.42h3l7-15.56a6,6,0,0,0,5.16-8.4Z"/><path class="cls-11" d="M93.51,75.81a6,6,0,0,0-2.84,9.44l-8,17.8h3l8.7-19.42-2.7-3.73Z"/><rect class="cls-16" x="76.89" y="93.66" width="17.57" height="11.82"/><path class="cls-20" d="M72.34,0C65,.41,62,3.08,61.36,3.74a1.76,1.76,0,0,1-.14.17l0,0s0-.08.11-.2a1.22,1.22,0,0,1,0,.23s.09.19.23.52l.23.33-.07,0A157.81,157.81,0,0,1,67.53,20.2c-2.18-4.26-4.63-9.42-7.32-13.55.52-.51,1.09-1,1.65-1.44l-.15-.29c-.52.31-1.05.64-1.53,1a18.54,18.54,0,0,0-8,16s0,.09,0,.14l2.6.33.5.06,1.69.21c1,.11,2.06.2,3.09.29l2,.18c1.15.08,2.3.14,3.44.19l1.69.09c1.71.07,3.42.1,5.13.1l14.75-.85-14.75-1Z"/><polygon class="cls-19" points="48.75 100.11 45.91 100.11 45.91 91.13 45.91 20.66 42.47 20.66 42.47 91.13 42.47 100.11 7.19 100.11 7.19 99.42 3.67 99.42 3.67 105.63 51.53 105.63 51.53 99.42 48.75 99.42 48.75 100.11"/><path class="cls-21" d="M38.88,17.9h-.19V18L27.06,24.62l11.63,10,3.09,2.66v3.64l-3.09-2.66L24.6,26.14a2.56,2.56,0,0,1-.49.16L.92,49.33,0,57.74,25,43.23,38.69,54V85.93H7.19v14.18H42.47V20.66h3.44v79.45h2.84v-9h0V17.67h-9.5Zm.83,78.75H10.33V94.12H39.71Zm0-5.76H10.33V88.36H39.71Zm2.07-39.42-3.09-2.66L24.14,36.27a3.44,3.44,0,1,1,1.8-2.09l12.75,11,3.09,2.66Z"/><path class="cls-19" d="M15.07,54a14.32,14.32,0,0,0-2.61,1.43L9,53.3,5.31,57.46l2.58,3.22a15.06,15.06,0,0,0-1.07,2.75L2.76,64l-.15,5.57,4.07.81a14.25,14.25,0,0,0,.94,2.76l-2.78,3.1,3.45,4.36,3.68-2a13.85,13.85,0,0,0,2.44,1.49l-.14,4.2,4.22.87,1.23.25.09-.25.68-1.76V78.71a11.51,11.51,0,1,1,0-23V49.14l-5.34.79Z"/><path class="cls-21" d="M36.63,58.92l-4.09.63a15,15,0,0,0-1.82-2.31l1.53-3.82-4.73-2.91-2.7,3.09a14.05,14.05,0,0,0-2.91-.6l-1.26-3.88-.16,0v6.55a11.23,11.23,0,0,1,3.8.63,12,12,0,0,1,1.17.48,11.51,11.51,0,0,1,5.81,6.31,11.3,11.3,0,0,1,.63,2.4A10.75,10.75,0,0,1,32,67.19a11.51,11.51,0,0,1-5,9.52,11.36,11.36,0,0,1-4.78,1.89,11.25,11.25,0,0,1-1.73.11v4.67l.75-1.93c.46,0,.92-.07,1.38-.14A13.59,13.59,0,0,0,24.06,81l2.59,3.32,4.88-2.65-1.36-4a13.8,13.8,0,0,0,1.89-2.15l4.11.87,2-5.18-3.58-2.17a13.32,13.32,0,0,0,.08-2.9l3.67-2Z"/><path class="cls-22" d="M9.17,68.89a11.52,11.52,0,0,0,11.32,9.82V76.35A9.16,9.16,0,0,1,19.2,58.14a8,8,0,0,1,1.29-.09V55.69h0a11.39,11.39,0,0,0-1.64.11A11.53,11.53,0,0,0,9.17,68.89Z"/><path class="cls-23" d="M31.27,63.11a11.51,11.51,0,0,0-5.81-6.31,12,12,0,0,0-1.17-.48,11.23,11.23,0,0,0-3.8-.63v2.36a9.16,9.16,0,0,1,1.39,18.21,9.36,9.36,0,0,1-1.39.09v2.36h0a11.25,11.25,0,0,0,1.73-.11A11.36,11.36,0,0,0,27,76.71a11.51,11.51,0,0,0,5-9.52,10.75,10.75,0,0,0-.13-1.68A11.3,11.3,0,0,0,31.27,63.11Z"/><path class="cls-20" d="M25.94,34.18a3.46,3.46,0,1,0-1.8,2.09L38.69,48.81l3.09,2.66V47.83l-3.09-2.66Z"/><path class="cls-20" d="M27.06,24.62l-.67-.57a3.47,3.47,0,1,0-2.28,2.25,2.56,2.56,0,0,0,.49-.16L38.69,38.28l3.09,2.66V37.3l-3.09-2.66Z"/><polygon class="cls-20" points="10.33 88.36 10.33 90.89 38.69 90.89 39.71 90.89 39.71 88.36 38.69 88.36 10.33 88.36"/><rect class="cls-20" x="10.33" y="94.12" width="29.38" height="2.53"/></g></g></g></g></svg>