<svg xmlns="http://www.w3.org/2000/svg" viewBox="0 0 337.48 344.63"><defs><style>.cls-1{fill:#0053cc;}.cls-2{fill:#267fea;}.cls-3{fill:#fff;}.cls-4{fill:#ffb573;}.cls-5{fill:#14365b;}.cls-6{fill:#0e2942;}.cls-7{fill:#ff8b7b;}.cls-8{fill:#0f264c;}.cls-9{fill:#ff5652;}.cls-10{fill:#9fc6ff;}.cls-11{fill:#407bff;}.cls-12{fill:#dd0222;}.cls-13{fill:#84061e;}.cls-14{fill:#ef9f5e;}.cls-15{fill:#001850;}.cls-16{fill:#318fff;}.cls-17{fill:#37454c;}.cls-18{fill:#77b3fc;}</style></defs><title>Recurso 1</title><g id="Capa_2" data-name="Capa 2"><g id="Objects"><rect class="cls-1" x="247.23" y="28.98" width="1" height="6.67" transform="translate(-1.15 10.51) rotate(-2.43)"/><rect class="cls-1" x="246.54" y="8.69" width="1" height="14.47" transform="translate(-0.45 10.47) rotate(-2.43)"/><polygon class="cls-1" points="0 10.31 8.12 201.95 18.65 253.33 253.67 243.38 243.36 0 0 10.31"/><path class="cls-2" d="M245.23,235.37h0l-.45-10.79h0l-.46-10.79h0L243.86,203h0l-.46-10.79h0L243,181.4h0l-.46-10.79h0L242,159.81h0L241.57,149h0l-.45-10.79h0l-.46-10.79h0l-.23-5.39-.23-5.4h0l-.45-10.79h0L239.29,95h0l-.46-10.79h0l-.46-10.79h0l-.45-10.79h0l-.46-10.79h0L237,41.07h0l-.46-10.78h0l-.45-10.79h0l-.46-10.79h0a.26.26,0,0,0-.25-.24h0l-10.8.46h0l-10.79.46h0L203,9.82h0L8.68,18.05a.21.21,0,0,0-.17.08.29.29,0,0,0-.07.18l4.8,113.34,4,93.52L8.12,202l10.53,51.38,4.09-8.28,6.36-.27h0l10.8-.46h0l10.79-.46h0l10.79-.46h0L72.28,243h0l10.79-.46h0L93.86,242h0l10.79-.45h0l10.79-.45h0l10.78-.46h0L137,240.2h0l10.78-.45h0l10.79-.46h0l10.78-.46h0l10.79-.46h0l10.78-.45h0l10.78-.46h0L212.6,237h0l10.78-.45h0l10.78-.45h0l10.78-.46h0a.25.25,0,0,0,.18-.08A.23.23,0,0,0,245.23,235.37Zm-228-22.53,10.29-.44.44,10.3-10.3.43ZM16.73,202,27,201.61l.44,10.29-10.3.44Zm-.46-10.79,10.3-.44.43,10.3-10.29.43Zm-.46-10.79,10.3-.44.43,10.29-10.29.44Zm-.45-10.8,10.29-.44.44,10.3-10.3.44Zm-.46-10.79,10.29-.44.44,10.29-10.3.44Zm-.46-10.8,10.3-.43.43,10.29-10.29.44ZM14,137.28l10.3-.44.43,10.3-10.29.43Zm-.24-5.65-.21-5.15,10.29-.43.22,5.14.22,5.15-10.3.44Zm-.67-15.94,10.29-.44.44,10.3L13.51,126Zm-.46-10.8,10.3-.43.43,10.29-10.29.44ZM12.15,94.1l10.3-.44.44,10.3-10.3.43ZM11.7,83.3,22,82.87l.44,10.29-10.3.44Zm-.46-10.79,10.29-.44L22,82.37l-10.29.43Zm-.46-10.8,10.3-.43.43,10.29L11.22,72Zm-.45-10.79,10.29-.44.44,10.3-10.3.43ZM9.87,40.13l10.29-.44L20.6,50l-10.3.44Zm-.46-10.8,10.3-.44.43,10.3-10.29.44ZM9,18.54l10.3-.44.43,10.29-10.29.44Zm226.63.71-10.3.44-.43-10.3L235.14,9ZM236,30l-10.29.44-.44-10.29,10.3-.44Zm.46,10.8-10.29.43L225.76,31l10.3-.44ZM237,51.63l-10.3.44-.43-10.3,10.29-.43Zm.46,10.8-10.3.43-.43-10.29L237,52.13Zm.45,10.79-10.29.44-.44-10.3,10.3-.43Zm.46,10.8L228,84.45l-.44-10.29,10.29-.44Zm.46,10.79-10.3.44L228.05,85l10.29-.43Zm.45,10.8-10.29.43-.44-10.29,10.3-.44Zm.46,10.79-10.29.44-.44-10.3,10.3-.43Zm.24,5.65.22,5.15-10.29.43-.22-5.15-.22-5.14,10.29-.44Zm.68,15.94-10.3.44-.43-10.3,10.29-.43Zm.45,10.79-10.29.44-.44-10.29,10.3-.44Zm.46,10.8-10.29.43-.44-10.29,10.3-.44Zm.46,10.79-10.3.44-.43-10.3,10.29-.43Zm.46,10.8-10.3.43-.43-10.29,10.29-.44Zm.45,10.79-10.29.44-.44-10.3,10.3-.43Zm.46,10.8-10.29.43-.44-10.29,10.29-.44Zm.46,10.79-10.3.44-.43-10.3,10.29-.43Zm.46,10.8-10.3.43-.44-10.29,10.3-.44ZM24.54,131.17,24.32,126l10.3-.44.21,5.15.22,5.14-10.29.44Zm204.6-8.66.21,5.14-10.29.44-.22-5.15-.22-5.15,10.3-.43ZM35.33,130.72l-.21-5.15,10.29-.44.22,5.15.22,5.15-10.3.43Zm183-7.76.22,5.15-10.29.44-.22-5.15-.22-5.15,10.29-.43Zm-172.21,7.3-.22-5.15,10.3-.44.21,5.15.22,5.15-10.29.44Zm161.42-6.84.22,5.15-10.3.43-.22-5.14-.21-5.15,10.29-.44ZM56.92,129.8l-.21-5.15L67,124.22l.22,5.14.22,5.15-10.3.44Zm139.83-5.92L197,129l-10.29.44-.22-5.15-.22-5.14,10.3-.44Zm-129,5.46-.22-5.14,10.29-.44.22,5.15.22,5.14-10.29.44Zm118.24-5,.22,5.15-10.3.44-.22-5.15-.21-5.15,10.29-.43ZM78.51,128.89l-.22-5.15,10.3-.44.22,5.15L89,133.6l-10.3.43Zm96.65-4.1.22,5.15-10.29.43-.22-5.14-.22-5.15,10.3-.44Zm-85.85,3.64-.22-5.15,10.29-.43L99.6,128l.22,5.15-10.29.44Zm75.06-3.18.22,5.15-10.3.43-.22-5.14-.21-5.15,10.29-.44ZM100.1,128l-.22-5.15,10.3-.43.22,5.15.21,5.14-10.29.44Zm53.47-2.26.22,5.14-10.29.44-.22-5.15-.22-5.15,10.3-.43Zm-31.88,1.35-.22-5.15,10.3-.44.22,5.15.21,5.15-10.29.43Zm-.67-16,10.29-.43.44,10.29-10.3.44ZM121,121.43l-10.29.44-.44-10.3,10.3-.43Zm21.83,4.73.22,5.15-10.3.44-.21-5.15-.22-5.15,10.29-.43ZM132.25,121l-.44-10.29,10.29-.44.44,10.3Zm0,11.32.44,10.29-10.29.44-.44-10.3Zm.5,0,10.3-.44.44,10.3-10.3.43Zm10.8-.46,10.29-.44.44,10.3-10.29.43Zm-.48-11.3-.44-10.29,10.3-.44.44,10.3Zm-.46-10.79-.43-10.29L152.44,99l.44,10.29Zm-.5,0-10.29.44-.44-10.3,10.3-.43Zm-10.79.46-10.3.43-.43-10.29,10.29-.44Zm-10.8.46-10.29.43-.44-10.29,10.3-.44Zm-10.79.45-10.29.44L99,101.23l10.29-.43Zm0,.5.44,10.3-10.3.43L99.43,112Zm1.18,15.92-.22-5.14,10.29-.44.22,5.15.22,5.15-10.3.43Zm10.53,5.22.44,10.29-10.3.44-.43-10.3Zm.46,10.79.43,10.29-10.29.44L111.59,144Zm.5,0,10.29-.44.44,10.3-10.3.43Zm10.79-.46,10.3-.43.43,10.29-10.29.44Zm10.8-.46,10.29-.43.44,10.29-10.3.44Zm10.79-.45,10.3-.44.43,10.3-10.29.43Zm0-.5-.44-10.3,10.3-.43.43,10.29ZM153.84,120l-.44-10.3,10.29-.43.44,10.29Zm-.46-10.8L152.94,99l10.3-.44.43,10.3Zm-.46-10.79-.44-10.3,10.3-.43L163.22,98Zm-.5,0-10.29.44-.44-10.3L152,88.18Zm-10.79.46-10.3.43-.43-10.29,10.29-.44Zm-10.8.45-10.29.44-.44-10.29,10.3-.44ZM120,99.84l-10.3.44L109.31,90l10.29-.43Zm-10.8.46L99,100.73l-.44-10.29,10.3-.44Zm-10.79.46-10.3.43L87.72,90.9,98,90.46Zm0,.5.44,10.29-10.3.44-.44-10.3Zm.46,10.79.43,10.3-10.29.43-.44-10.29Zm.91,21.59.44,10.29-10.3.44-.43-10.29Zm.5,0,10.3-.44.43,10.3-10.29.43ZM111.09,144l.44,10.29-10.3.44-.43-10.3Zm.46,10.79.44,10.3-10.3.43-.43-10.29Zm.5,0,10.29-.44.44,10.3-10.29.44Zm10.79-.46,10.3-.43.44,10.29-10.3.44Zm10.8-.45,10.29-.44.44,10.29-10.29.44Zm10.79-.46,10.3-.44.43,10.3-10.29.43Zm10.8-.46,10.29-.43.44,10.29-10.3.44Zm10.79-.46,10.3-.43.43,10.29-10.29.44Zm0-.5-.43-10.29,10.29-.44.44,10.3Zm-.46-10.79-.43-10.3,10.29-.43.44,10.29Zm-.91-21.59-.44-10.29,10.3-.44.43,10.29Zm-.46-10.79-.43-10.3L174,98.06l.44,10.29ZM163.72,98l-.44-10.29,10.29-.44.44,10.3Zm-.46-10.79-.44-10.3,10.3-.43.43,10.29Zm-.5,0-10.3.43L152,77.36l10.29-.44Zm-10.8.46-10.29.43-.44-10.29,10.3-.44Zm-10.79.45-10.3.44-.43-10.3,10.29-.43Zm-10.8.46L120.08,89l-.44-10.3,10.3-.43Zm-10.79.46-10.29.43-.44-10.29,10.29-.44Zm-10.79.45-10.3.44-.44-10.29,10.3-.44ZM98,90,87.7,90.4l-.44-10.3,10.29-.43Zm-10.79.46-10.3.43-.43-10.29,10.29-.44Zm0,.5.43,10.29-10.29.44-.44-10.3Zm.45,10.79.44,10.3-10.29.43-.44-10.29Zm.46,10.8.44,10.29-10.3.44-.43-10.3Zm.92,21.59.43,10.29-10.29.44-.44-10.3Zm.45,10.79.44,10.3-10.29.43-.44-10.29Zm.5,0,10.3-.44.43,10.3-10.29.44Zm10.76,10.36.43,10.29L90.9,166l-.44-10.29Zm.45,10.79.44,10.3-10.3.43-.43-10.29Zm.5,0,10.3-.43.43,10.29-10.29.44Zm10.8-.45,10.29-.44.44,10.29-10.3.44Zm10.79-.46,10.3-.44L134,175l-10.29.43Zm10.8-.46,10.29-.44.44,10.3-10.3.44Zm10.79-.46,10.3-.43.43,10.29-10.29.44Zm10.8-.45,10.29-.44.44,10.29-10.3.44Zm10.79-.46,10.3-.44.43,10.3-10.29.43Zm10.8-.46,10.29-.43.44,10.29-10.3.44Zm0-.5L176.82,152l10.29-.44.44,10.3Zm-.45-10.79-.44-10.3,10.3-.43.43,10.29Zm-.46-10.8-.44-10.29,10.3-.44.43,10.3Zm-.92-21.59L175,108.83l10.29-.44.44,10.3ZM175,108.33,174.53,98l10.3-.43.43,10.29Zm-.46-10.8-.44-10.29,10.3-.44.43,10.3Zm-.46-10.79-.43-10.3L183.91,76l.44,10.29Zm-.45-10.8-.44-10.29,10.29-.44.44,10.3Zm-.5,0-10.3.43-.44-10.29,10.3-.44Zm-10.8.45L152,76.86l-.44-10.3,10.29-.43Zm-10.79.46-10.3.44L140.78,67l10.29-.43Zm-10.8.46-10.29.43L130,67.48l10.3-.44Zm-10.79.46-10.3.43-.43-10.29,10.29-.44Zm-10.8.45-10.29.44-.44-10.3,10.3-.43Zm-10.79.46L98,79.15l-.43-10.3,10.29-.43Zm-10.8.46-10.29.43L86.8,69.31l10.3-.44Zm-10.79.45-10.3.44L76,69.77l10.29-.44Zm-10.8.46-10.29.44-.44-10.3,10.3-.43Zm0,.5.43,10.3-10.29.43L65.67,81Zm.45,10.8.44,10.29-10.3.44-.43-10.3Zm.46,10.79.44,10.3L67,112.9l-.43-10.29Zm.46,10.8.43,10.29-10.29.44L67,113.4Zm.91,21.58.44,10.3-10.3.44L68,135Zm.46,10.8.44,10.29-10.3.44-.44-10.29Zm.46,10.79.43,10.3-10.29.43-.44-10.29Zm.5,0L90,155.69,90.4,166l-10.3.44Zm10.75,10.36.43,10.3-10.29.43-.44-10.29Zm.46,10.8.43,10.29L81,188l-.44-10.3Zm.5,0,10.29-.43.44,10.29-10.3.44Zm10.79-.45,10.29-.44.44,10.3-10.29.43Zm10.79-.46,10.3-.44.44,10.3-10.3.43Zm10.8-.46,10.29-.43.44,10.29-10.29.44Zm10.79-.45,10.3-.44.43,10.29-10.29.44Zm10.8-.46,10.29-.44.44,10.3-10.3.43Zm10.79-.46,10.3-.44.43,10.3-10.29.44Zm10.8-.46,10.29-.43.44,10.29-10.3.44Zm10.79-.45,10.3-.44.43,10.29-10.29.44Zm10.8-.46,10.29-.44.44,10.3-10.3.43Zm0-.5-.44-10.3,10.29-.43.44,10.29Zm-.46-10.8-.44-10.29,10.3-.44.43,10.3Zm-.46-10.79-.43-10.3,10.29-.43.44,10.29Zm-.46-10.8L186.7,130l10.29-.44.44,10.3Zm-.91-21.58-.44-10.3,10.3-.43.43,10.29Zm-.46-10.8-.43-10.29,10.29-.44.44,10.3Zm-.46-10.79-.43-10.3,10.29-.43.44,10.29Zm-.45-10.8L184.41,76l10.3-.44.43,10.3Zm-.46-10.79L184,65.19l10.3-.43.43,10.29Zm-.46-10.8L183.5,54.4,193.79,54l.44,10.3Zm-.5,0-10.29.44-.44-10.29,10.3-.44Zm-10.79.46-10.3.44-.43-10.3,10.29-.43Zm-10.8.46-10.29.43-.44-10.29,10.3-.44Zm-10.79.46-10.3.43-.43-10.29,10.29-.44Zm-10.8.45L130,67l-.44-10.3,10.3-.43ZM129.46,67l-10.29.44-.44-10.3L129,56.71Zm-10.79.46-10.3.43-.44-10.29,10.3-.44Zm-10.8.46-10.29.43-.44-10.29,10.29-.44Zm-10.79.45-10.3.44-.43-10.3,10.29-.43Zm-10.8.46L76,69.27,75.55,59l10.3-.44Zm-10.79.46-10.3.43-.43-10.29L75.05,59Zm-10.8.45-10.29.44L54,59.89l10.3-.44Zm0,.5.44,10.3L54.85,81l-.43-10.29ZM65.17,81l.44,10.29-10.3.44-.43-10.3Zm.46,10.79.43,10.3-10.29.43-.44-10.29Zm.46,10.8.43,10.29-10.29.44-.44-10.3Zm.45,10.79.44,10.3-10.3.43-.43-10.29ZM67.46,135l.43,10.3-10.29.43-.44-10.29Zm.45,10.8.44,10.29-10.29.44-.44-10.3Zm.46,10.79.44,10.3-10.3.43L58.08,157Zm.46,10.8.44,10.29-10.3.44-.44-10.3Zm.5,0,10.29-.43.44,10.29-10.29.44Zm10.75,10.36.44,10.3-10.3.43-.43-10.29Zm.46,10.8L81,198.82l-10.29.44L70.24,189Zm.5,0,10.29-.44.44,10.29-10.3.44Zm10.79-.46,10.3-.44.43,10.3-10.29.43Zm10.8-.46,10.29-.43.44,10.29-10.3.44Zm10.79-.46,10.3-.43.43,10.29-10.29.44Zm10.8-.45,10.29-.44.44,10.3-10.3.43Zm10.79-.46,10.3-.44.43,10.3-10.29.43Zm10.8-.46,10.29-.43.44,10.29-10.3.44Zm10.79-.45,10.3-.44.43,10.29L157,195.6Zm10.8-.46,10.29-.44.44,10.3-10.3.43Zm10.79-.46,10.29-.44.44,10.3-10.29.44Zm10.79-.46,10.3-.43.44,10.29-10.3.44Zm10.8-.45,10.29-.44.44,10.29-10.29.44Zm0-.5-.44-10.3,10.3-.43.43,10.29Zm-.46-10.8-.44-10.29,10.3-.44.44,10.3Zm-.46-10.79-.43-10.3,10.29-.43.44,10.29Zm-.45-10.8L198,140.3l10.29-.44.44,10.3Zm-.46-10.79-.44-10.3,10.3-.43.43,10.29ZM197,118.21l-.43-10.3,10.29-.43.44,10.29Zm-.45-10.8-.44-10.29,10.3-.44.43,10.3Zm-.46-10.79-.44-10.3,10.3-.43.43,10.29Zm-.46-10.8-.43-10.29,10.29-.44.44,10.3ZM195.18,75l-.43-10.29L205,64.3l.44,10.29Zm-.45-10.79-.44-10.3,10.3-.43L205,63.8Zm-.46-10.8-.44-10.29,10.3-.44.43,10.3Zm-.5,0-10.29.44L183,43.6l10.29-.43ZM183,53.92l-10.3.44-.44-10.3,10.3-.43Zm-10.8.46-10.29.43-.44-10.29,10.29-.44Zm-10.79.45-10.3.44L150.66,45,161,44.54Zm-10.8.46-10.29.44-.44-10.3,10.3-.43Zm-10.79.46-10.3.43-.43-10.29,10.29-.44Zm-10.8.46-10.29.43-.44-10.29,10.3-.44Zm-10.79.45-10.3.44-.43-10.3,10.29-.43Zm-10.8.46-10.29.44-.44-10.3,10.3-.43Zm-10.79.46L86.32,58l-.43-10.29,10.29-.44ZM85.82,58l-10.29.44-.44-10.29,10.3-.44ZM75,58.49l-10.3.44-.43-10.3,10.29-.43ZM64.23,59l-10.29.44-.44-10.3,10.3-.44Zm-10.79.46-10.29.43-.44-10.29L53,49.11Zm0,.5L53.9,70.2l-10.3.44-.43-10.3Zm.46,10.79L54.35,81l-10.29.43-.44-10.29Zm.46,10.8.43,10.29-10.29.44-.44-10.3Zm.45,10.79.44,10.3L45,103l-.43-10.29Zm.46,10.8.44,10.29-10.3.44L45,103.52Zm.46,10.79.43,10.29-10.29.44-.44-10.29Zm.91,21.59.44,10.29-10.3.44-.43-10.29Zm.46,10.79.44,10.3-10.3.43-.43-10.29Zm.46,10.8L58,167.35l-10.29.44-.44-10.3ZM58,167.85l.44,10.3-10.29.43-.44-10.29Zm.46,10.8.44,10.29-10.3.44-.43-10.3Zm.5,0,10.3-.44.43,10.29-10.29.44ZM69.74,189l.44,10.3-10.29.44-.44-10.3Zm.46,10.8.44,10.29-10.3.44-.43-10.29Zm.5,0,10.3-.44.43,10.3-10.29.43Zm10.8-.46,10.29-.44.44,10.3-10.3.44Zm10.79-.46,10.29-.43L103,208.7l-10.29.44Zm10.79-.45,10.3-.44.44,10.29-10.3.44Zm10.8-.46,10.29-.44.44,10.3-10.29.43Zm10.79-.46L135,197l.43,10.29-10.29.44Zm10.8-.46,10.29-.43.44,10.29-10.3.44Zm10.79-.45,10.3-.44.43,10.3-10.29.43Zm10.8-.46,10.29-.44.44,10.3-10.3.43Zm10.79-.46,10.3-.43.43,10.29-10.29.44Zm10.8-.45,10.29-.44.44,10.29-10.3.44Zm10.79-.46,10.3-.44.43,10.3-10.29.43Zm10.8-.46,10.29-.44.44,10.3-10.3.43Zm10.79-.46,10.3-.43.43,10.29-10.29.44Zm0-.5L210.57,183l10.3-.44.43,10.3Zm-.46-10.79-.43-10.3,10.29-.43.44,10.29Zm-.45-10.8-.44-10.29L220,161l.44,10.3Zm-.46-10.79-.44-10.3,10.3-.43.43,10.29Zm-.46-10.8-.44-10.29,10.3-.44.43,10.3Zm-.46-10.79-.43-10.29,10.29-.44L219,138.9Zm-.91-21.59-.44-10.29,10.3-.44.43,10.3ZM207.35,107l-.43-10.3,10.29-.43.44,10.29Zm-.46-10.8-.43-10.29,10.29-.44.44,10.3Zm-.45-10.79L206,75.07l10.3-.43.43,10.29ZM206,74.57l-.44-10.29,10.3-.44.43,10.3Zm-.46-10.79-.43-10.3,10.29-.43.44,10.29ZM205.06,53l-.43-10.29,10.29-.44.44,10.3Zm-.45-10.79-.44-10.3,10.3-.43.43,10.29Zm-.5,0-10.3.44-.43-10.3,10.29-.43Zm-10.8.46L183,43.1l-.44-10.29,10.3-.44Zm-10.79.46-10.3.43-.43-10.29,10.29-.44Zm-10.8.45L161.43,44,161,33.72l10.3-.43ZM160.93,44l-10.3.44-.43-10.3,10.29-.43Zm-10.8.46-10.29.43-.44-10.29,10.3-.44ZM139.34,45l-10.29.44-.44-10.29,10.29-.44Zm-10.79.46-10.3.44-.44-10.3,10.3-.43Zm-10.8.46-10.29.43L107,36l10.29-.44ZM107,46.33l-10.3.43-.43-10.29L106.52,36Zm-10.8.45-10.29.44-.44-10.3,10.3-.43Zm-10.79.46-10.3.44-.43-10.3L84.93,37Zm-10.8.46-10.29.43-.44-10.29,10.3-.44Zm-10.79.45-10.3.44L53.05,38.3l10.29-.44ZM53,48.61l-10.29.44-.44-10.3,10.3-.43Zm-10.79.46-10.3.44-.43-10.3,10.29-.44Zm0,.5.44,10.29-10.3.44L31.91,50Zm.46,10.79.43,10.3-10.29.43L32.37,60.8Zm.45,10.8.44,10.29-10.29.44-.44-10.3ZM43.58,82,44,92.25l-10.3.43-.43-10.29ZM44,92.75,44.47,103l-10.29.44-.44-10.3Zm.46,10.79.43,10.3-10.29.43L34.2,104Zm.45,10.8.44,10.29-10.3.44-.43-10.3Zm.92,21.59.43,10.29L36,146.66l-.44-10.3Zm.46,10.79.43,10.3-10.29.43L36,147.16Zm.45,10.8.44,10.29-10.3.44L36.49,158Zm.46,10.79.44,10.29-10.3.44L37,168.75Zm.46,10.79.43,10.3-10.29.44-.44-10.3Zm.45,10.8.44,10.29-10.29.44-.44-10.29Zm.5,0,10.3-.44.44,10.3-10.3.43Zm10.76,10.36.43,10.29L49.55,211l-.44-10.3ZM59.86,211l.44,10.3L50,221.76l-.44-10.29Zm.5,0,10.3-.44.43,10.3-10.29.43Zm10.8-.46,10.29-.43.44,10.29-10.3.44ZM82,210.1l10.3-.44L92.68,220l-10.29.44Zm10.8-.46L103,209.2l.44,10.3-10.3.43Zm10.79-.46,10.3-.44.43,10.3-10.29.44Zm10.8-.46,10.29-.43.44,10.29-10.3.44Zm10.79-.45,10.3-.44.43,10.29-10.29.44Zm10.8-.46,10.29-.44.44,10.3-10.3.43Zm10.79-.46,10.3-.43.43,10.29-10.29.44Zm10.8-.46,10.29-.43.44,10.29-10.3.44Zm10.79-.45L178.6,206l.44,10.3-10.29.43ZM179.1,206l10.3-.44.44,10.3-10.3.43Zm10.8-.46,10.29-.43.44,10.29-10.29.44Zm10.79-.46,10.3-.43.43,10.29-10.29.44Zm10.8-.45,10.29-.44.44,10.3-10.3.43Zm10.79-.46,10.3-.44L233,214l-10.29.43Zm0-.5-.43-10.29,10.29-.44.44,10.29Zm-.46-10.79-.43-10.3,10.29-.43.44,10.29Zm-.45-10.8-.44-10.29,10.3-.44.43,10.3Zm-.46-10.79-.44-10.3,10.3-.43.43,10.29Zm-.46-10.8L220,150.18l10.29-.44.44,10.3ZM220,149.68l-.44-10.3,10.29-.43.44,10.29Zm-.46-10.8-.44-10.29,10.3-.44.43,10.3Zm-.92-21.59L218.17,107l10.29-.44.44,10.3Zm-.45-10.79-.44-10.3L228,95.77l.44,10.29Zm-.46-10.8-.44-10.29,10.3-.44.43,10.3Zm-.46-10.79-.43-10.29,10.29-.44.44,10.29Zm-.46-10.79-.43-10.3,10.29-.43.44,10.29Zm-.45-10.8L215.88,53l10.3-.44.43,10.3Zm-.46-10.79-.44-10.3,10.3-.43.43,10.29Zm-.46-10.8L215,31.44,225.26,31l.44,10.3Zm-.46-10.79-.43-10.3,10.29-.43.44,10.29Zm-.5,0-10.29.43-.44-10.29,10.3-.44Zm-10.79.46-10.29.43-.44-10.29,10.29-.44Zm-10.79.45-10.3.44L182.12,22l10.3-.43Zm-10.8.46-10.29.44-.44-10.3L181.62,22Zm-10.79.46-10.3.43-.43-10.29,10.29-.44Zm-10.8.46-10.29.43-.44-10.29L160,23Zm-10.79.45-10.3.44L139,23.84l10.29-.43Zm-10.8.46-10.29.44-.44-10.3,10.3-.44Zm-10.79.46-10.3.43-.43-10.29,10.29-.44Zm-10.8.45L107,35.51l-.44-10.29,10.3-.44Zm-10.79.46L96.2,36l-.43-10.3,10.29-.43ZM95.7,36l-10.29.43L85,26.13l10.3-.44Zm-10.79.46-10.3.43-.43-10.29,10.29-.44Zm-10.8.45-10.29.44L63.38,27l10.3-.43Zm-10.79.46L53,37.8l-.44-10.3,10.29-.43Zm-10.79.46-10.3.43L41.79,28l10.3-.44Zm-10.8.45-10.29.44L31,28.42,41.29,28Zm-10.79.46-10.3.44-.43-10.3,10.29-.43Zm0,.5.43,10.3L21.1,50l-.44-10.29ZM31.41,50l.44,10.29-10.29.44-.44-10.3Zm.46,10.79.44,10.3L22,71.55l-.43-10.29Zm.46,10.8.44,10.29-10.3.44L22,72.05Zm.46,10.79.43,10.3-10.29.43-.44-10.29Zm.45,10.8.44,10.29-10.29.44L23,93.64ZM33.7,104l.44,10.29-10.3.44-.43-10.29Zm.46,10.79.43,10.3-10.29.44-.44-10.3Zm.91,21.59.44,10.3-10.3.43-.43-10.29Zm.46,10.8L36,157.47l-10.3.44-.43-10.3ZM36,158l.43,10.3-10.29.43-.44-10.29Zm.46,10.8.43,10.29-10.29.44-.44-10.3Zm.45,10.79.44,10.3-10.3.43L26.61,180Zm.46,10.8.44,10.29-10.3.44-.43-10.3Zm.46,10.79.43,10.3L28,211.88l-.44-10.29Zm.5,0,10.29-.44.44,10.3-10.3.43Zm10.75,10.36.44,10.29-10.3.44-.44-10.3Zm.46,10.79.43,10.3L39.67,233l-.44-10.29Zm.5,0,10.29-.43.44,10.29-10.3.44Zm10.79-.46,10.3-.43.43,10.29-10.29.44Zm10.8-.45,10.29-.44.44,10.3-10.3.43Zm10.79-.46,10.29-.44.44,10.3-10.29.43Zm10.79-.46,10.3-.43.44,10.29-10.3.44ZM104,220l10.29-.44.44,10.29-10.29.44Zm10.79-.46,10.3-.44.43,10.3-10.29.43Zm10.8-.46,10.29-.44.44,10.3-10.3.44Zm10.79-.46,10.3-.43.43,10.29-10.29.44Zm10.8-.45,10.29-.44.44,10.29-10.3.44Zm10.79-.46,10.3-.44.43,10.3-10.29.43Zm10.8-.46,10.29-.43.44,10.29-10.3.44Zm10.79-.46,10.3-.43.43,10.29-10.29.44Zm10.8-.45,10.29-.44.44,10.3-10.3.43Zm10.79-.46,10.3-.44.43,10.3-10.29.43Zm10.8-.46,10.29-.43.44,10.29-10.3.44Zm10.79-.46,10.29-.43.44,10.29-10.29.44Zm2-195.23-10.29.43-.44-10.29,10.3-.44ZM214,20.16l-10.3.44-.43-10.29,10.29-.44Zm-10.8.46-10.29.44-.44-10.3,10.3-.43Zm-10.79.46-10.3.43-.43-10.29L192,10.78Zm-10.8.46L171.31,22l-.44-10.29,10.3-.44ZM170.81,22l-10.3.44-.43-10.3,10.29-.43Zm-10.8.46-10.29.44-.44-10.3,10.3-.43Zm-10.79.46-10.29.43-.44-10.29,10.29-.44Zm-10.79.45-10.3.44-.44-10.29,10.3-.44Zm-10.8.46-10.29.44L116.9,14l10.29-.43Zm-10.79.46-10.3.44-.43-10.3L116.4,14Zm-10.8.46-10.29.43-.44-10.29,10.3-.44Zm-10.79.45L85,25.63l-.43-10.29,10.29-.44Zm-10.8.46-10.29.44-.44-10.3L84,15.36Zm-10.79.46-10.3.43-.43-10.28h0l10.29-.44Zm-10.8.46L52.57,27l-.44-10.27v0l10.3-.44ZM52.07,27l-10.3.44-.43-10.25v-.05l10.29-.43Zm-10.8.46L31,27.92l-.43-10.24v-.06l10.3-.43Zm-10.79.46-10.3.43-.43-10.22v-.07L30,17.64ZM28,212.38,38.27,212l.44,10.29-10.29.44Zm10.75,10.36L39.17,233l-10.3.44-.43-10.29Zm.46,10.79.43,10.3-10.29.44L28.89,234Zm.5,0L50,233.08l.44,10.29-10.29.44Zm10.79-.45,10.3-.44.43,10.29-10.29.44Zm10.8-.46,10.29-.44.44,10.3-10.3.43Zm10.79-.46,10.3-.43L82.8,242l-10.29.44Zm10.8-.46,10.29-.43.44,10.29L83.3,242Zm10.79-.45,10.3-.44.43,10.3-10.29.43Zm10.8-.46,10.29-.44.44,10.3-10.3.43Zm10.79-.46,10.3-.43.43,10.29-10.29.44Zm10.8-.45,10.29-.44.44,10.29-10.3.44Zm10.79-.46,10.3-.44.43,10.3-10.29.43Zm10.8-.46,10.29-.44.44,10.3-10.3.44Zm10.79-.46,10.29-.43.44,10.29-10.29.44Zm10.79-.45,10.3-.44.44,10.29-10.3.44Zm10.8-.46,10.29-.44.44,10.3-10.29.43Zm10.79-.46,10.3-.43.43,10.29-10.29.44Zm10.8-.46,10.29-.43.44,10.29L202,237Zm10.79-.45,10.3-.44.43,10.3-10.29.43Zm10.8-.46,10.29-.44.44,10.3-10.3.43Zm10.79-.46,10.3-.43.43,10.29-10.29.44ZM17.64,223.63l10.3-.43.43,10.29-7.78.33-2.82-7.22Zm3.15,10.68,7.6-.32.44,10.3-5.84.24,1-2Z"/><path class="cls-3" d="M112.63,63.55q-4.65,0-9.23-.16a.26.26,0,0,1-.19-.1.25.25,0,0,1,0-.22A254.88,254.88,0,0,1,121,18a1.37,1.37,0,0,1,1.19-.76,1.42,1.42,0,0,1,1.26.65A256.64,256.64,0,0,1,145,61.3a.25.25,0,0,1,0,.22.28.28,0,0,1-.19.12c-6.75.81-13.71,1.37-20.67,1.67C120.3,63.47,116.45,63.55,112.63,63.55Zm-8.89-.65c6.69.23,13.54.2,20.38-.09s13.67-.84,20.31-1.63a257.92,257.92,0,0,0-21.41-43,.88.88,0,0,0-.81-.42.9.9,0,0,0-.77.49A258,258,0,0,0,103.74,62.9Z"/><path class="cls-3" d="M95.51,158.17a.27.27,0,0,1-.25-.22c-1-7.94-1.58-15-1.86-21.46-1-23.31,2.3-48,9.77-73.42a.3.3,0,0,1,.25-.18c6.79.24,13.75.21,20.7-.08S138,62,144.75,61.14a.25.25,0,0,1,.27.16,245.8,245.8,0,0,1,12.77,44.5.26.26,0,0,1-.2.29.26.26,0,0,1-.29-.2,245.42,245.42,0,0,0-12.68-44.23c-6.69.8-13.58,1.35-20.48,1.65s-13.8.32-20.54.09c-7.42,25.29-10.68,49.87-9.7,73.07.27,6.49.88,13.5,1.86,21.42a.25.25,0,0,1-.22.28Zm65.17-2.76h0a.25.25,0,0,1-.24-.26c.3-8,.31-15,0-21.5a.25.25,0,0,1,.5,0c.27,6.51.26,13.56,0,21.55A.26.26,0,0,1,160.68,155.41Z"/><path class="cls-3" d="M125.9,127.87a22.07,22.07,0,0,1-22.11-20.72V107l0-.37a22.2,22.2,0,1,1,44.37-1.88c0,.13,0,.26,0,.38v.18a22.07,22.07,0,0,1-21.25,22.57ZM126,84c-.31,0-.63,0-.94,0a21.72,21.72,0,0,0-20.77,22.6l0,.35v.19a21.7,21.7,0,0,0,43.34-1.83v-.18c0-.12,0-.25,0-.37A21.7,21.7,0,0,0,126,84Zm0,37.92a16.35,16.35,0,1,1,.7,0h0Zm.69-.27h0ZM126,90h-.68a15.71,15.71,0,0,0,1.33,31.4h0A15.71,15.71,0,0,0,126,90Z"/><path class="cls-3" d="M125.92,121.88a16.35,16.35,0,1,1,.7,0h0Zm.69-.27h0ZM126,90h-.68a15.71,15.71,0,0,0,1.33,31.4h0a15.71,15.71,0,0,0,10-27.27A15.58,15.58,0,0,0,126,90Z"/><path class="cls-3" d="M84.35,237.06a4.72,4.72,0,0,1-1.62-.3c-2.11-.79-4.16-3.26-4-7l1.77-33.47a7.78,7.78,0,0,1,.53-2.47l14.21-36a.23.23,0,0,1,.26-.16.24.24,0,0,1,.22.22c1.35,11,3.2,21.88,5,32.46.55,3.29,1.1,6.54,1.63,9.75l18.61-.79L120,195a8.13,8.13,0,0,1-.09-3.26,9.9,9.9,0,0,1,19.33-.82,8.1,8.1,0,0,1,.19,3.25l-.63,4.36,18.62-.79c.25-3.24.53-6.52.8-9.85.88-10.69,1.8-21.74,2.22-32.76a.25.25,0,0,1,.19-.24.26.26,0,0,1,.28.13l17.2,34.68a7.78,7.78,0,0,1,.74,2.41l4.59,33.2c.51,3.7-1.32,6.34-3.36,7.31a4.65,4.65,0,0,1-5.56-1.26l-17.9-19.24-19.88.84-.75,5.23a5.36,5.36,0,0,1-10.53.44l-1.19-5.14-19.88.84L88.18,235A4.86,4.86,0,0,1,84.35,237.06Zm11-78.14L81.53,194a7.44,7.44,0,0,0-.49,2.31l-1.77,33.47h0c-.18,3.48,1.7,5.77,3.64,6.5a4.16,4.16,0,0,0,4.87-1.56L104.06,214a.27.27,0,0,1,.19-.1l20.2-.85a.24.24,0,0,1,.25.19l1.24,5.35a4.86,4.86,0,0,0,9.54-.4l.78-5.44a.25.25,0,0,1,.24-.21l20.2-.86a.26.26,0,0,1,.19.08l18,19.33a4.19,4.19,0,0,0,5,1.15c1.88-.9,3.55-3.34,3.08-6.79l-4.6-33.2a7.24,7.24,0,0,0-.69-2.26l-16.76-33.8c-.44,10.72-1.32,21.43-2.18,31.81-.28,3.4-.56,6.76-.82,10.07a.26.26,0,0,1-.24.24l-19.14.81a.25.25,0,0,1-.19-.09.24.24,0,0,1-.06-.2l.66-4.66a7.61,7.61,0,0,0-.17-3,9.4,9.4,0,0,0-18.36.77,7.88,7.88,0,0,0,.09,3.06l1.06,4.58a.27.27,0,0,1-.05.21.22.22,0,0,1-.19.09l-19.13.82a.25.25,0,0,1-.26-.21c-.54-3.28-1.1-6.61-1.66-10C98.51,180.16,96.72,169.56,95.38,158.92ZM79,229.78h0Z"/><path class="cls-4" d="M334.94,142.28l-4.73-.22,2.13,9a24.66,24.66,0,0,0,4.59-4,2.29,2.29,0,0,0-.24-3.21Z"/><polygon class="cls-4" points="324.72 146.91 326.84 154.24 332.34 151.04 330.21 142.06 324.72 146.91"/><rect class="cls-5" x="249.3" y="41.58" width="6.47" height="160.18" transform="translate(428.62 -96.43) rotate(103.19)"/><rect class="cls-5" x="246.34" y="54.17" width="6.47" height="160.18" transform="translate(437.25 -78.09) rotate(103.19)"/><rect class="cls-6" x="247.82" y="47.87" width="6.47" height="160.18" transform="translate(432.93 -87.26) rotate(103.19)"/><polygon class="cls-7" points="161.48 109.96 162.81 104.29 175.29 100.24 170.86 119.14 161.48 109.96"/><polygon class="cls-3" points="157.46 106.03 162.81 104.29 161.48 109.96 157.46 106.03"/><path class="cls-4" d="M258.34,99.73c-3.36,4.51-6.82,8.74-10.5,12.91-1.85,2.08-3.72,4.14-5.69,6.13s-4,4-6.13,5.88l-.41.36c-.14.12-.21.2-.55.48a10.08,10.08,0,0,1-1.76,1.16,11.27,11.27,0,0,1-3.44,1.07,17.81,17.81,0,0,1-5.55-.21,38.61,38.61,0,0,1-8.68-2.85A80.34,80.34,0,0,1,201,116l2.84-4.73c2.39,1,4.88,2.08,7.35,3s4.92,1.83,7.37,2.54a34.92,34.92,0,0,0,7,1.45,7.66,7.66,0,0,0,2.58-.14c.28-.08.42-.17.42-.2s0,0-.09,0l.2-.21.33-.35c3.57-3.7,7-7.76,10.4-11.86s6.75-8.32,10-12.44Z"/><polygon class="cls-4" points="193.23 102.51 189.09 107.78 196.23 113.05 200.34 105.31 193.23 102.51"/><path class="cls-4" d="M204.16,111.38l-3.82-6.07-4.11,7.74s3.51,5.2,8,3.18Z"/><path class="cls-4" d="M299.05,92.12q4.13,7.3,7.94,14.77c1.3,2.48,2.53,5,3.8,7.48l1.86,3.76.46.94c.1.16.12.27.27.49s.25.41.42.64.32.45.5.69a70.36,70.36,0,0,0,5.14,5.88c1.85,2,3.8,3.91,5.74,5.87L337,144.3l-3.43,4.32c-4.76-3.1-9.35-6.34-13.83-9.84-2.25-1.73-4.44-3.54-6.63-5.42a71.7,71.7,0,0,1-6.44-6.22c-.27-.29-.53-.61-.8-.94s-.54-.69-.81-1.07-.56-.85-.83-1.28l-.54-.9-2.15-3.59c-1.41-2.41-2.84-4.81-4.22-7.23q-4.19-7.25-8.08-14.66Z"/><path class="cls-8" d="M261.22,63.71c.12.58-.08,1.12-.46,1.22s-.78-.3-.9-.88.08-1.13.46-1.22S261.1,63.13,261.22,63.71Z"/><path class="cls-9" d="M261.19,64.82a22.52,22.52,0,0,1-1.69,5.66,3.35,3.35,0,0,0,2.85-.18Z"/><path class="cls-8" d="M259.68,60.19a.35.35,0,0,1-.2-.64,3.44,3.44,0,0,1,3.16-.23.35.35,0,1,1-.27.64,2.74,2.74,0,0,0-2.49.16A.31.31,0,0,1,259.68,60.19Z"/><path class="cls-4" d="M281.44,65.92c-1.26,5.37-2.69,15.22.93,18.8,0,0-1.68,5.46-11.66,5.46-11,0-5-5.46-5-5.46,6.05-1.43,6.06-5.87,5.18-10Z"/><path class="cls-10" d="M283.74,86.6c.85-1.73,1.8-3.71,0-4.32-1.95-.68-12.72-1.38-16.49-.1A4,4,0,0,0,264.43,87Z"/><path class="cls-11" d="M300,337.13s-2.78-2-3.44-.85C295.78,337.6,298.83,337.41,300,337.13Z"/><path class="cls-11" d="M300,337.13s-.12-3.14-1.46-3S299.08,336.61,300,337.13Z"/><path class="cls-11" d="M256.24,337.13s-3.46-2-4.18-.85S254.81,337.41,256.24,337.13Z"/><path class="cls-11" d="M256.24,337.13s-.18-3.14-1.8-3S255.11,336.61,256.24,337.13Z"/><polygon class="cls-4" points="264.31 337.13 256.97 337.13 256.89 320.12 264.24 320.12 264.31 337.13"/><polygon class="cls-4" points="308.42 337.13 301.07 337.13 298.04 320.12 305.39 320.12 308.42 337.13"/><path class="cls-5" d="M300.59,336.28h8.25a.62.62,0,0,1,.61.5l1.19,6.53a1.12,1.12,0,0,1-1.12,1.31c-2.88-.05-4.27-.22-7.9-.22-2.24,0-6.85.23-9.93.23s-3.37-3.05-2.1-3.33c5.71-1.23,7.91-2.94,9.79-4.57A1.85,1.85,0,0,1,300.59,336.28Z"/><path class="cls-5" d="M257.05,336.28h8a.62.62,0,0,1,.61.5l1.2,6.53a1.12,1.12,0,0,1-1.11,1.31c-2.89-.05-7.07-.22-10.71-.22-4.25,0-7.93.23-12.92.23-3,0-3.73-3.05-2.46-3.33,5.79-1.25,10.49-1.39,15.58-4.45A3.51,3.51,0,0,1,257.05,336.28Z"/><path class="cls-12" d="M296.39,86.39c6.82,1.57,14,20.35,14,20.35l-14.2,9.47a110.59,110.59,0,0,1-8.53-15.52C283.91,92.09,289.41,84.77,296.39,86.39Z"/><path class="cls-13" d="M291,98.36l5.87,17.4-.67.45s-2.67-4-5.53-9.33Z"/><path class="cls-12" d="M250.56,119.2c.05,8.2.55,18.4,1.77,31.06h39.3c.5-6-2.15-35.46,4.76-63.88a101.07,101.07,0,0,0-13.09-1.66,145.28,145.28,0,0,0-16.7,0,75.12,75.12,0,0,0-11.38,2s-3.36,3.64-4.38,20.71C250.64,110.84,250.53,114.72,250.56,119.2Z"/><path class="cls-13" d="M250.56,119.2c2.38-4.34,6.69-13,6.08-18l-5.8,6.28C250.64,110.84,250.53,114.72,250.56,119.2Z"/><path class="cls-12" d="M262.93,93.41c.62,7-15.25,23.84-15.25,23.84L235,106.89a81.91,81.91,0,0,1,11.89-15.51C254.28,84.19,262.23,85.56,262.93,93.41Z"/><polygon class="cls-14" points="256.89 320.12 256.93 328.89 264.28 328.89 264.24 320.12 256.89 320.12"/><polygon class="cls-14" points="305.39 320.12 298.04 320.12 299.61 328.89 306.96 328.89 305.39 320.12"/><path class="cls-4" d="M280.12,57.64c1.08,7.23,2.07,11.4-.72,16a9.48,9.48,0,0,1-16.78-.89c-2.88-6-4.15-16.84,2.15-21.42A9.58,9.58,0,0,1,280.12,57.64Z"/><path class="cls-8" d="M287.34,61.21c-2.51,6.47-4.33,9.33-7.36,10.38-7.87,2.73-12.74-6.87-14.57-15.23a14.87,14.87,0,0,1-7-2.15c-3.48-2.23-4.69-6.17,1.3-9.56.05.22,1.27,2.64,5.86,1,7.68-2.75,22.38-5.67,20.08,2.72C289.29,48.43,289.86,54.73,287.34,61.21Z"/><path class="cls-4" d="M271,62.11a8.67,8.67,0,0,1-1.77,5.09c-1.48,1.92-3.2,1-3.6-1.16-.36-1.92,0-5.23,1.85-6.39S271,59.91,271,62.11Z"/><path class="cls-8" d="M284.33,48.26a6.11,6.11,0,0,0,4.14-4S289.84,50,284.33,48.26Z"/><path class="cls-15" d="M266.27,150.26s6.17,56.14,9.94,77.18c4.12,23,20,99.75,20,99.75H309.7s-9.56-74.86-11.54-97.67c-2.14-24.75-6.53-79.26-6.53-79.26Z"/><path class="cls-16" d="M294.29,322.23c-.06,0,1.19,5.17,1.19,5.17h15.14l-.1-4.61Z"/><path class="cls-17" d="M270.77,170.26c9.56,1.89,7.16,37.84,5.28,56.33-2.27-13.07-5.37-38.22-7.46-56.07A3.33,3.33,0,0,1,270.77,170.26Z"/><path class="cls-15" d="M252.33,150.26s-3.13,54.93-3.2,77.33c-.06,23.3,5.13,99.6,5.13,99.6H266.7s3.35-74.94,4.79-97.82c1.57-25,6.67-79.11,6.67-79.11Z"/><path class="cls-18" d="M257.2,318.25a.12.12,0,0,1-.12-.12c-1.38-21.11-4.58-72.21-4.53-90.54.06-18.75,2.28-60.7,3-73.11a.13.13,0,0,1,.25,0c-.69,12.41-2.91,54.36-3,73.1-.05,18.32,3.15,69.41,4.53,90.53a.12.12,0,0,1-.12.13Z"/><path class="cls-16" d="M252.06,322.23c-.06,0,.5,5.17.5,5.17H267.7l.58-4.61Z"/></g></g></svg>