<svg xmlns="http://www.w3.org/2000/svg" viewBox="0 0 220.68 182.5"><defs><style>.cls-1{fill:#80bf1f;}.cls-2{fill:#974332;}.cls-3{fill:#5eb22c;}.cls-4{fill:#4b3c48;}</style></defs><title>sistemas_aterramiento</title><g id="Capa_2" data-name="Capa 2"><g id="iconos"><g id="sistemas_de_aterramiento" data-name="sistemas de aterramiento"><path class="cls-1" d="M186.33,133.06c0,17.11-9.51,31-21.23,31s-21.22-13.86-21.22-31,9.5-31,21.22-31S186.33,116,186.33,133.06Z"/><polygon class="cls-2" points="174.54 139.7 165.08 148.09 165.08 181.8 160.92 181.8 162.71 132.63 165.08 133.05 165.08 146.1 173.9 139.19 174.54 139.7"/><path class="cls-1" d="M57.52,135.87a28.76,28.76,0,1,1-28.76-28.76A28.76,28.76,0,0,1,57.52,135.87Z"/><polygon class="cls-2" points="31.79 181.8 31.79 130.25 30.1 130.25 29.63 142.66 18.44 135.87 17.78 136.75 29.44 146.24 28.07 181.8 31.79 181.8"/><path class="cls-3" d="M220.68,144.81a23.61,23.61,0,1,1-23.6-23.6A23.6,23.6,0,0,1,220.68,144.81Z"/><polygon class="cls-2" points="199.57 182.5 199.57 140.2 198.18 140.2 197.79 150.39 188.61 144.81 188.06 145.53 197.63 153.32 196.52 182.5 199.57 182.5"/><path class="cls-4" d="M151.72,32.61a2.27,2.27,0,0,0-1.38-4.08h-35L98.46,1.08A2.24,2.24,0,0,0,96.53,0h0a2.3,2.3,0,0,0-1.93,1.06L77.36,28.53H42.5a2.22,2.22,0,0,0-2.14,1.53,2.25,2.25,0,0,0,.76,2.55L76.36,59.7v54.4s0,0,0,.07a1.46,1.46,0,0,0,0,.29s0,.05,0,.07v0a.24.24,0,0,0,0,.12v0l-17.86,58.8a2.28,2.28,0,0,0,2.18,2.95,2.21,2.21,0,0,0,1.09-.28l34.66-18.86,34.67,18.86a1.09,1.09,0,0,0,.25.1.62.62,0,0,0,.19.07,2,2,0,0,0,.64.11,2.22,2.22,0,0,0,.67-.1l0,0a2.11,2.11,0,0,0,.74-.39l0,0,0,0a2.35,2.35,0,0,0,.47-.58l.1-.2a2.78,2.78,0,0,0,.17-.56,1.72,1.72,0,0,0,0-.24,2.48,2.48,0,0,0-.08-.81l-17.87-58.8a2.24,2.24,0,0,0-.25-1.81s0,0,0-.06V86.34s0,0,0,0V59.85Zm-50.84,92.46,11.86-7.29,5.45,17.92Zm16.69,15.61L96.51,152.14,75.46,140.68l21.05-12.93ZM96.51,111.81H85.25l11.06-8.69,11.09,8.69H96.51Zm15.23-30.17-11.67-9.15,11.67-9.1Zm0,27.76L100,100.21,111.73,91ZM85.27,84.05l11.11-8.67,11,8.67Zm0-23.21h22.35L96.38,69.6Zm-4.31,2.4,11.75,9.25L80.91,81.66Zm0,27.78,11.7,9.19-11.7,9.19Zm4.31-2.41h22.19L96.31,97.32Zm0-32.33,11.15-8.69,11.13,8.69ZM80.91,53.9V35.48l11.79,9.2Zm30.83-.15-11.62-9.07,11.62-9.06Zm-15.32-12L85.27,33.08h22.3Zm.09,74.59h9.81l-9.81,6-9.8-6Zm20-83.3h27.16L116.47,53.94Zm-20-26.47,13.45,21.92H82.76ZM49.22,33.08H76.36V53.94Zm31.06,84.7,11.87,7.29L74.84,135.7ZM64.56,169.52l7.71-25.38,19.47,10.59Zm36.72-14.79,19.47-10.59,7.71,25.38Z"/></g></g></g></svg>