<svg xmlns="http://www.w3.org/2000/svg" viewBox="0 0 125.91 174.91"><defs><style>.cls-1{isolation:isolate;}.cls-2{fill:#c28610;}.cls-3{fill:#fccc12;}.cls-4{fill:#8f6966;opacity:0.29;mix-blend-mode:multiply;}.cls-5{fill:#6c5668;}.cls-6{fill:#fff;opacity:0.6;}</style></defs><title>sistemas_prototipos</title><g class="cls-1"><g id="Capa_2" data-name="Capa 2"><g id="iconos"><g id="sistemas_de_prototipos" data-name="sistemas de prototipos"><path class="cls-2" d="M92.09,17.2,116,154.83,43.84,167.39l-9.3-53.46L3.78,92.29a8.89,8.89,0,0,1-2.15-12.4A8.08,8.08,0,0,1,7,76.46a11.07,11.07,0,0,1,7,1.27l15.81,9L19.36,26.7A7.92,7.92,0,1,1,35,24L41.42,61.1l3.26-.57-8.17-47A7.92,7.92,0,0,1,43,4.41a7.93,7.93,0,0,1,9.16,6.45l8.16,47,3.27-.56L56.08,14.31a7.92,7.92,0,0,1,15.6-2.72l7.47,42.94L82.41,54l-5.92-34a7.92,7.92,0,0,1,15.6-2.72Z"/><path class="cls-3" d="M125.81,29.55,102.94,174.91l-76.25-12,8.88-56.47-23.32-32a9.36,9.36,0,0,1,2.06-13.09,8.55,8.55,0,0,1,6.53-1.6,11.78,11.78,0,0,1,6.56,3.65L40.08,77.76l10-63.45A8.34,8.34,0,1,1,66.54,16.9L60.37,56.1l3.45.54,7.8-49.59A8.34,8.34,0,1,1,88.1,9.64l-7.8,49.6,3.45.54,7.13-45.35A8.34,8.34,0,0,1,107.36,17l-7.14,45.35,3.45.54L109.33,27a8.34,8.34,0,1,1,16.48,2.59Z"/><polygon class="cls-4" points="125.81 29.55 102.94 174.91 26.68 162.91 93.51 152.31 125.81 29.55"/><polygon class="cls-5" points="88.12 139.48 78.92 151.14 84.86 152.08 80.66 162.27 90.89 150.18 84.57 149.19 88.12 139.48"/><path class="cls-5" d="M87.44,134.54a16.54,16.54,0,1,0,13.76,18.91A16.54,16.54,0,0,0,87.44,134.54ZM82.7,164.69a14,14,0,1,1,16-11.64A14,14,0,0,1,82.7,164.69Z"/><polygon class="cls-6" points="44.92 80.09 49.32 60.36 104.6 69.06 53.78 67.16 44.92 80.09"/></g></g></g></g></svg>