<svg xmlns="http://www.w3.org/2000/svg" viewBox="0 0 108.64 105.9"><defs><style>.cls-1{fill:#455256;}.cls-2{fill:#ea811f;}.cls-3{fill:#c66d1c;}.cls-4{fill:#dba18f;}.cls-5{fill:#dbac90;}.cls-6{fill:#f9cfb3;}.cls-7{fill:#e6b494;}.cls-8{fill:#e8bb95;}.cls-9{fill:#d5a378;}.cls-10{fill:#2a2722;}.cls-11{fill:#3d3b36;}.cls-12{fill:#c89374;}.cls-13{fill:#bad1dd;}.cls-14{fill:#9ab9ca;}.cls-15{fill:#4b616c;}.cls-16{fill:#62767f;}.cls-17{fill:#c1daec;}.cls-18{fill:#e4f4ff;}.cls-19{fill:#303e43;}.cls-20{fill:#ecbb1a;}.cls-21{fill:#c1c1c1;}.cls-22{fill:#d6d6d6;}.cls-23{fill:#7a7a7a;}.cls-24{fill:#fff;}.cls-25{fill:#adadad;}.cls-26{fill:#777;}.cls-27{fill:#f2f3f4;}.cls-28{fill:#d0d5d8;}</style></defs><title>trabajoCover</title><g id="Capa_2" data-name="Capa 2"><g id="_1" data-name="1"><g id="_3" data-name="3"><path class="cls-1" d="M95,68.37h0v0l-.08-.09a2.37,2.37,0,0,0-.34.1l-2.74.82v15.9H85.51v-14c-4.75,1.42-9.49,2.85-9.62,3-5.32,6.62-7.2,21.06-7.2,31.3H82.17V86.69h21.65V76h0V72.89h0A11.24,11.24,0,0,1,95,68.37Z"/><path class="cls-2" d="M82.17,86.69h0v18.7h3.94V96H100v9.35h3.89l-.13-18.7ZM91.08,89H86.17V87.58h4.91Z"/><path class="cls-2" d="M85.51,71.09v14h6.33V69.18l-1.27.38Zm5.57,13H86.17V82.69h4.91Z"/><rect class="cls-1" x="86.17" y="87.58" width="4.92" height="1.41"/><rect class="cls-1" x="86.17" y="82.69" width="4.92" height="1.41"/><rect class="cls-3" x="85.51" y="96.04" width="14.5" height="9.35"/><path class="cls-4" d="M56.41,49.92l1.13,1.13-.44-.49C56.88,50.33,56.65,50.13,56.41,49.92Z"/><path class="cls-5" d="M61,54a8.94,8.94,0,0,1-1.72-1.2L64.55,58V54.42A7.4,7.4,0,0,1,61,54Z"/><path class="cls-6" d="M54.85,48.78c.53.37,1.07.74,1.56,1.14l-1.56-1.55Z"/><path class="cls-6" d="M59.26,52.77l-1.72-1.72A19.94,19.94,0,0,0,59.26,52.77Z"/><path class="cls-7" d="M81.07,28.87c-.41.3-.21,1.05-.59,1.3l0,0-.32,1.07h-1.3A23.6,23.6,0,0,1,79,28.13c0-.56,0-1.11,0-1.67a93,93,0,0,1-14.52.78V54.42h0A7.49,7.49,0,0,0,68.15,54,14,14,0,0,0,72,50.56a20.38,20.38,0,0,1,2.84-2.21A6.42,6.42,0,0,0,76.29,47a7.41,7.41,0,0,0,1.15-2.4c.37-1.31.2-3.37,1.19-4.42s1.79-1.31,2.43-2.62a15.55,15.55,0,0,0,1.33-7.46C82.36,29.37,82,28.19,81.07,28.87Z"/><path class="cls-6" d="M50,27.71a23.79,23.79,0,0,0,0,2.67,8,8,0,0,1,0,.88H48.31c0-.29,0-.55,0-.73,0-.41,0-.78,0-1.14a.88.88,0,0,0-.27-.52c-.91-.68-1.29.5-1.33,1.2a15.56,15.56,0,0,0,1.34,7.46c.64,1.31,1.53,1.68,2.43,2.62s.82,3.11,1.19,4.42A7.41,7.41,0,0,0,52.84,47a7.91,7.91,0,0,0,2,1.81v-.41l1.56,1.55h0c.24.21.47.41.69.64l.44.49h0l1.72,1.72h0A8.94,8.94,0,0,0,61,54a7.4,7.4,0,0,0,3.57.45V27.24C55.74,27,51.62,25,50,24,49.92,25.21,50.06,26.48,50,27.71Z"/><path class="cls-8" d="M56.39,17.92A6.81,6.81,0,0,0,50,23.86V24c1.59,1,5.71,3,14.52,3.26v-9.1a8.28,8.28,0,0,1-1.16.09C61.06,18.22,58.72,17.74,56.39,17.92Z"/><path class="cls-9" d="M72,16.05c-.36-.22-.88-.78-1.3-.89-.63-.16-.27-.11-.88.27-1.94,1.21-3.18,2.39-5.3,2.71v9.1a93,93,0,0,0,14.52-.78,21.41,21.41,0,0,0-.37-5C78.07,18.68,74.19,17.37,72,16.05Z"/><path class="cls-10" d="M70.61,4.37c-.12,0-1.63.16-1.44.33C68.37,4,67,3.93,66,3.7a9.81,9.81,0,0,0-1.44-.22V18.14c2.12-.32,3.36-1.5,5.3-2.71.61-.38.25-.43.88-.27.42.11.94.67,1.3.89,2.16,1.32,6,2.63,6.67,5.42a21.41,21.41,0,0,1,.37,5c0,.56,0,1.11,0,1.67a23.6,23.6,0,0,0-.21,3.13h1.3l.32-1.07c.34-1.12.68-2.28.78-2.81a35.71,35.71,0,0,0,.55-5.28c.47-4.27.71-8.36-1.93-11.94C77,6.33,72.85,4.09,70.61,4.37Z"/><path class="cls-11" d="M50.32,9.18c-4,3.67-3.42,8.39-3,12.92a27.72,27.72,0,0,0,.59,4.84,9.73,9.73,0,0,1,.39,2.45c0,.36,0,.73,0,1.14,0,.18,0,.44,0,.73H50a8,8,0,0,0,0-.88,23.79,23.79,0,0,1,0-2.67c.06-1.23-.08-2.5,0-3.73v-.12a6.81,6.81,0,0,1,6.36-5.94c2.33-.18,4.67.3,7,.31a8.28,8.28,0,0,0,1.16-.09V3.48C59.58,3.05,53.79,6,50.32,9.18Z"/><path class="cls-8" d="M57.54,51.05l-1.13-1.13c-.49-.4-1-.77-1.56-1.14v4.88l9.7,8.74V58l-5.29-5.26A19.94,19.94,0,0,1,57.54,51.05Z"/><path class="cls-9" d="M64.55,62.4l0,0a.39.39,0,0,0,.53,0l2-1.82L64.55,58Z"/><path class="cls-12" d="M68.15,54a7.49,7.49,0,0,1-3.59.45h0V58l2.59,2.58,7.73-7V48.35A20.38,20.38,0,0,0,72,50.56,14,14,0,0,1,68.15,54Z"/><path class="cls-13" d="M61.92,66.86l-4,5.62,1.63,4.83L60.68,81l2.41-10.92a2.09,2.09,0,0,0-.19-1.39Z"/><path class="cls-14" d="M66.8,68.69a2.09,2.09,0,0,0-.19,1.39L69,80.76l1.17-3.45,1.52-4.52.1-.33-4-5.6Z"/><path class="cls-15" d="M66.8,68.69l1-1.83-1-1.39-1.57-2.21h-.67V93.72l4.42-13L66.61,70.08A2.09,2.09,0,0,1,66.8,68.69Z"/><path class="cls-16" d="M64.55,63.18l0,0,0,.06-.94,1.33-1.62,2.27,1,1.83a2.09,2.09,0,0,1,.19,1.39L60.68,81l3.87,12.7V63.26h.67l0-.06A.39.39,0,0,0,64.55,63.18Z"/><path class="cls-16" d="M46.82,70,52,67.79l-6-2.94a45.75,45.75,0,0,1,1.71-4.43c-7.15,2.17-18.39,5.47-18.61,5.75-6.77,8.4-7.84,26.73-7.84,39.73h43.5L64.55,104Z"/><path class="cls-15" d="M82,60.42a41,41,0,0,1,1.71,4.43l-6,2.94L82.89,70,64.71,104.36l-.16-.32v.64s0,.47,0,1.22h44.08c0-14.62-.46-32.76-8.06-39.73C100.31,65.93,89.11,62.59,82,60.42Z"/><polygon class="cls-15" points="71.66 72.79 71.77 72.47 71.77 72.46 71.66 72.79"/><path class="cls-17" d="M74.87,53.64l-7.73,7-2,1.82a.39.39,0,0,1-.53,0l0,0v.51a.74.74,0,0,1,.13-.12c.35-.23.65.15.83.47h-.29l1.57,2.21,1,1.39,4,5.6h0l.6-1.76,4-11.95.47.14L75,53.5Z"/><path class="cls-18" d="M64.68,62.79a.74.74,0,0,0-.13.12V62.4l-9.7-8.74-.18-.16-1.84,5.4.47-.14L56.78,69.1l.61,1.8.53,1.58,4-5.62,1.62-2.27.94-1.33,0-.06,0,0a.39.39,0,0,1,.62,0l0,.06h.29C65.33,62.94,65,62.56,64.68,62.79Z"/><path class="cls-1" d="M59.55,77.31l-1.63-4.83-.53-1.58-.61-1.8L53.3,58.76l-.47.14-5.09,1.52A46.77,46.77,0,0,0,46,64.85l6,2.94L46.82,70,64.55,104V93.7L60.68,81Z"/><path class="cls-19" d="M82,60.42,76.87,58.9l-.47-.14-4,11.95-.6,1.76-.11.32-1.52,4.52L69,80.76l-4.42,13V104l.16.32L82.89,70l-5.21-2.19,6-2.94A41.81,41.81,0,0,0,82,60.42Z"/><path class="cls-20" d="M75.71,4l0,0a2.28,2.28,0,0,0-.16-.19Z"/><path class="cls-21" d="M76.76,5.94c-.49-.36-1-.68-1.54-1l-.15.29a20.5,20.5,0,0,1,1.66,1.45C74,10.83,71.57,16,69.39,20.28,72.06,12.53,74.3,7,75.16,4.9l-.07-.05.24-.34c.13-.33.22-.52.22-.52a2.25,2.25,0,0,1,0-.25c-.69-.69-3.7-3.34-11-3.74h0V23.62a144.4,144.4,0,0,0,20.28-1.45.66.66,0,0,0,0-.14A18.63,18.63,0,0,0,76.76,5.94Z"/><path class="cls-21" d="M85.52,22.07a144,144,0,0,1-21,1.55v3.14q6.57,0,13.15-.42A11.26,11.26,0,0,0,83,24.82l-.46.54a6.55,6.55,0,0,1-2.11,1.52,9.81,9.81,0,0,1-3.33.91q-6.26.57-12.5.57v1.79q5.85,0,11.72-.5a9.44,9.44,0,0,0,5.24-2.1l2.22-.24a2.72,2.72,0,0,0,2.54-2.78c-.08-.69-.16-1.38-.23-2.08Z"/><path class="cls-22" d="M43.06,22.45l-.24,2.08a2.73,2.73,0,0,0,2.55,2.78l2.16.24a9.49,9.49,0,0,0,5.22,2.1q5.89.51,11.8.5V28.36q-6.3,0-12.61-.58a9.8,9.8,0,0,1-3.33-.9,6.47,6.47,0,0,1-2.21-1.65,3.76,3.76,0,0,0-.25-.31,11.74,11.74,0,0,0,5.14,1.41c4.41.28,8.84.43,13.26.43V23.62a144,144,0,0,1-21-1.55Z"/><path class="cls-23" d="M64.55,26.76v1.6q6.24,0,12.5-.57a9.81,9.81,0,0,0,3.33-.91,6.55,6.55,0,0,0,2.11-1.52l.46-.54a11.26,11.26,0,0,1-5.25,1.52Q71.13,26.76,64.55,26.76Z"/><path class="cls-24" d="M64.55,0c-7.36.41-10.37,3.09-11,3.76a.85.85,0,0,1-.14.17l0,0a1.87,1.87,0,0,0,.11-.2,1.22,1.22,0,0,1,0,.23l.23.53.23.33-.06,0a159.86,159.86,0,0,1,5.77,15.39c-2.19-4.28-4.65-9.45-7.35-13.6A20.38,20.38,0,0,1,54,5.23l-.15-.29a17.48,17.48,0,0,0-1.53,1A18.58,18.58,0,0,0,44.27,22v.14a144.4,144.4,0,0,0,20.28,1.45l15.85-.89-15.85-.84Z"/><path class="cls-25" d="M46.15,24.92a3.76,3.76,0,0,1,.25.31,6.47,6.47,0,0,0,2.21,1.65,9.8,9.8,0,0,0,3.33.9q6.3.59,12.61.58v-1.6c-4.42,0-8.85-.15-13.26-.43A11.74,11.74,0,0,1,46.15,24.92Z"/><path class="cls-26" d="M53.78,4.52,53.55,4a1.22,1.22,0,0,0,0-.23,1.87,1.87,0,0,1-.11.2l0,0,.48,1,.15.29a20.38,20.38,0,0,0-1.65,1.45c2.7,4.15,5.16,9.32,7.35,13.6A159.86,159.86,0,0,0,54,4.89C53.88,4.75,53.83,4.63,53.78,4.52Z"/><path class="cls-26" d="M75.22,4.94l.51-1,0,0-.14-.22a2.25,2.25,0,0,0,0,.25s-.09.19-.22.52c0,.11-.1.24-.17.39-.86,2.09-3.1,7.63-5.77,15.38C71.57,16,74,10.83,76.73,6.68a20.5,20.5,0,0,0-1.66-1.45Z"/><path class="cls-27" d="M88.66,84.61v1a2,2,0,0,1-2,2H86a2.05,2.05,0,0,1-2-2v-1h-4A2.33,2.33,0,0,0,79,86.44v3.81a2.33,2.33,0,0,0,2.33,2.33h10a2.33,2.33,0,0,0,2.33-2.33V86.44a2.35,2.35,0,0,0-.9-1.83Zm3.15,6h-11V90h11Zm0-1.43h-11V88.6h11Z"/><path class="cls-27" d="M86.62,82.56H86a1.2,1.2,0,0,0-1.28,1.08V85.8A1.2,1.2,0,0,0,86,86.88h.67A1.2,1.2,0,0,0,87.9,85.8V83.64A1.2,1.2,0,0,0,86.62,82.56Z"/><path class="cls-27" d="M44.32,47.93H37.09a1.77,1.77,0,0,1-1.77,1.51H15.7a1.75,1.75,0,0,1-1.77-1.51H6.7a3.92,3.92,0,0,0-4,3.83V99.35a3.91,3.91,0,0,0,4,3.82H44.32a3.92,3.92,0,0,0,4-3.82V51.76A3.93,3.93,0,0,0,44.32,47.93Z"/><path class="cls-1" d="M44.32,45.37H37.09a1.36,1.36,0,0,1,0,.2v2.16a1.23,1.23,0,0,1,0,.2h7.23a3.93,3.93,0,0,1,4,3.83V99.35a3.92,3.92,0,0,1-4,3.82H6.7a3.91,3.91,0,0,1-4-3.82V51.76a3.92,3.92,0,0,1,4-3.83h7.23a1.23,1.23,0,0,1,0-.2V45.57a1.36,1.36,0,0,1,0-.2H6.7A6.55,6.55,0,0,0,0,51.76V99.35a6.55,6.55,0,0,0,6.7,6.38H44.32A6.56,6.56,0,0,0,51,99.35V51.76A6.56,6.56,0,0,0,44.32,45.37Z"/><path class="cls-1" d="M35.32,43.86H33.57V42.78a1.75,1.75,0,0,0-1.79-1.71H19.23a1.76,1.76,0,0,0-1.79,1.71v1.08H15.7a1.75,1.75,0,0,0-1.77,1.51,1.36,1.36,0,0,0,0,.2v2.16a1.23,1.23,0,0,0,0,.2,1.75,1.75,0,0,0,1.77,1.51H35.32a1.77,1.77,0,0,0,1.77-1.51,1.23,1.23,0,0,0,0-.2V45.57a1.36,1.36,0,0,0,0-.2A1.75,1.75,0,0,0,35.32,43.86Z"/><rect class="cls-28" x="15.02" y="45.23" width="20.99" height="2.93" rx="1.43"/><rect class="cls-28" x="18.8" y="41.73" width="13.42" height="1.95" rx="0.95"/><rect class="cls-16" x="18.69" y="65.71" width="24.06" height="1.47" rx="0.72"/><path class="cls-1" d="M8.28,67.52h7.35v-7.2H8.28Zm.88-6.32h5.59v5.43H9.16Z"/><rect class="cls-16" x="18.69" y="77.75" width="24.06" height="1.47" rx="0.72"/><path class="cls-1" d="M8.28,79.56h7.35v-7.2H8.28Zm.88-6.32h5.59v5.43H9.16Z"/><rect class="cls-16" x="18.69" y="89.79" width="24.06" height="1.47" rx="0.72"/><path class="cls-1" d="M8.28,91.6h7.35V84.4H8.28Zm.88-6.32h5.59v5.43H9.16Z"/><path class="cls-2" d="M15.89,80.11a.75.75,0,0,0-1,.44l-3.09,8.3L8.93,83.23a.74.74,0,0,0-1-.32.75.75,0,0,0-.32,1L11.3,91a.74.74,0,0,0,.66.4h0a.75.75,0,0,0,.65-.48l3.67-9.86A.74.74,0,0,0,15.89,80.11Z"/><path class="cls-2" d="M15.89,70.32a.74.74,0,0,0-1,.44l-3.09,8.29L8.93,73.44a.72.72,0,0,0-1-.32.74.74,0,0,0-.32,1l3.68,7.1a.75.75,0,0,0,.66.4h0a.75.75,0,0,0,.65-.48l3.67-9.86A.73.73,0,0,0,15.89,70.32Z"/><path class="cls-2" d="M15.89,56.86a.74.74,0,0,0-1,.43l-3.09,8.3L8.93,60a.73.73,0,0,0-1-.31.74.74,0,0,0-.32,1l3.68,7.09a.74.74,0,0,0,.66.4h0a.74.74,0,0,0,.65-.48l3.67-9.85A.73.73,0,0,0,15.89,56.86Z"/></g></g></g></svg>