<svg xmlns="http://www.w3.org/2000/svg" viewBox="0 0 111.21 105.86"><defs><style>.cls-1{fill:#455256;}.cls-2{fill:#c66d1c;}.cls-3{fill:#dbac90;}.cls-4{fill:#e8bb95;}.cls-5{fill:#c89374;}.cls-6{fill:#d5a378;}.cls-7{fill:#303e43;}.cls-8{fill:#ea811f;}.cls-9{fill:#6d8794;}.cls-10{fill:#889da7;}.cls-11{fill:#2a2722;}.cls-12{fill:#f9cfb3;}.cls-13{fill:#e6b494;}.cls-14{fill:#3d3b36;}.cls-15{fill:#ecbb1a;}.cls-16{fill:#c1c1c1;}.cls-17{fill:#d6d6d6;}.cls-18{fill:#7a7a7a;}.cls-19{fill:#fff;}.cls-20{fill:#adadad;}.cls-21{fill:#777;}.cls-22{fill:#f2f3f4;}.cls-23{fill:#d0d5d8;}.cls-24{fill:#62767f;}</style></defs><title>trabajoCover</title><g id="Capa_2" data-name="Capa 2"><g id="_1" data-name="1"><g id="_3" data-name="3"><rect class="cls-1" x="63" y="55.11" width="4.07" height="49.93"/><rect class="cls-2" x="81.75" y="69.68" width="7.29" height="16.39"/><path class="cls-3" d="M61.3,51.9a9.56,9.56,0,0,1-1.78-1.24L65,56.11V52.36A7.56,7.56,0,0,1,61.3,51.9Z"/><path class="cls-4" d="M64.93,62.86H65L64.93,56l-5.41-5.45h0a19.72,19.72,0,0,1-1.76-1.78L56.6,47.59h0c-.5-.42-1.05-.8-1.59-1.18v3.16a12.07,12.07,0,0,1-.57,3.67c-.48,1.55-1.1,3.53-1,3.51l.08.15A14.58,14.58,0,0,0,64.93,62.86Z"/><path class="cls-1" d="M34.18,80.79h31l1.1-13.62h0V63h1.13a19,19,0,0,1-13.84-5.88h0a.6.6,0,0,1-.11-.12c-.15,0-.34.07-.55.13l-4.31,1.07V78.81h-10V60.13c-6.28,1.88-12.55,3.77-12.73,4-7,8.77-9.52,27.9-9.52,41.47H34.18V80.79Z"/><path class="cls-5" d="M68.73,51.9a3.64,3.64,0,0,1-.82.3l-.3,0a6.37,6.37,0,0,1-.63.1l-.41,0-.58,0h-.5l-.49,0h0v3.75l6.19,5.64a14.76,14.76,0,0,0,6.09-4.87v0c.09,0-.73-3-1.17-4.52a8.17,8.17,0,0,1-.29-1.9l-.13-4.37a20.56,20.56,0,0,0-2.94,2.3A14.53,14.53,0,0,1,68.73,51.9Z"/><path class="cls-6" d="M65.07,62.86h.36c.36,0,.73,0,1.09-.06h0a14.51,14.51,0,0,0,4.67-1.17h0L65,56Z"/><path class="cls-7" d="M111.21,105.86c0-15.28-1.77-34.08-9.42-41.31-.21-.19-12.69-3.87-12.69-3.87V78.86H81.32V58.09L77.5,57,77,56.8h0a14.68,14.68,0,0,1-6.07,4.83h0a14.45,14.45,0,0,1-4.65,1.16h0c-.36,0-.73.06-1.09.06h-.4V67h0l0,13.9H94v25Z"/><path class="cls-8" d="M36,80.86h0v25h6v-12H60v12h5l-.16-25Zm12,3H42v-2h6Z"/><path class="cls-2" d="M65.05,80.86h0l.16,25H94v-25H65.05Zm18,1h6v2H83Z"/><path class="cls-8" d="M49,78.86V57.93l-1.61.5c-1.93.62-4.16,1.31-6.39,2V78.86Zm-7-3h6v2H42Z"/><path class="cls-2" d="M89,78.86V60.52l-6.63-2.09L81,58V78.86Zm-6-3h6v2H83Z"/><path class="cls-9" d="M47.47,102.86h3.06L47.48,84.44a7,7,0,0,0,2.73-6.75A7.11,7.11,0,0,0,46.94,73l.85,5.17-3.85,3.39Z"/><path class="cls-10" d="M41.15,85.49,44,102.86h3.45L43.94,81.52l-.17.15-5-2.06L38,74.45A7.08,7.08,0,0,0,36.38,80,7,7,0,0,0,41.15,85.49Z"/><rect class="cls-2" x="41" y="93.86" width="19" height="12"/><g id="_1-2" data-name=" 1"><g id="_3-2" data-name=" 3"><path class="cls-11" d="M49.22,10.32c-3,4-2.7,8.48-2.17,13.2a37.93,37.93,0,0,0,.62,5.83c.11.59.49,1.87.87,3.11l.36,1.18h1.47a26.82,26.82,0,0,0-.24-3.46V28.34a23.33,23.33,0,0,1,.42-5.53c.75-3.08,5.07-4.53,7.5-6,.4-.24,1-.86,1.46-1,.71-.18.3-.13,1,.29,2.18,1.34,3.58,2.65,6,3V2.92a13,13,0,0,0-1.62.25c-1.12.25-2.66.33-3.56,1.1.21-.19-1.49-.36-1.62-.36C57.14,3.6,52.47,6.07,49.22,10.32Z"/><path class="cls-12" d="M59.58,52.77l-1.72-1.72A19.94,19.94,0,0,0,59.58,52.77Z"/><path class="cls-13" d="M82.14,28.49c-.43.3-.22,1.05-.61,1.3h0l-.33,1.07H79.86a23.06,23.06,0,0,1,.2-3.62l-1-1A98.53,98.53,0,0,1,65,26.86V54h0a8,8,0,0,0,3.79-.42,14.46,14.46,0,0,0,4-3.44A21,21,0,0,1,75.7,48a6.68,6.68,0,0,0,1.5-1.35,7.39,7.39,0,0,0,1.19-2.4c.38-1.31.21-3.37,1.23-4.42s1.85-1.31,2.51-2.62a15.12,15.12,0,0,0,1.37-7.46C83.47,29,83.1,27.81,82.14,28.49Z"/><path class="cls-12" d="M50,27.43a16.61,16.61,0,0,0,0,2.34,7.93,7.93,0,0,1,0,1.09H48V29a.83.83,0,0,0-.29-.52c-1-.68-1.38.5-1.43,1.2a14.74,14.74,0,0,0,1.44,7.46c.69,1.31,1.64,1.68,2.61,2.62s.88,3.11,1.27,4.42a7.23,7.23,0,0,0,1.26,2.43A8.33,8.33,0,0,0,55,48.41V48l1.6,1.55h0a8.72,8.72,0,0,1,.71.64l.45.49h0l1.77,1.72h0a9.1,9.1,0,0,0,1.8,1.2,7.91,7.91,0,0,0,3.67.45V26.84c-9.08-.24-13.31-2.24-15-3.24C49.94,24.85,50.1,26.17,50,27.43Z"/><path class="cls-4" d="M56.6,17.77A7,7,0,0,0,50,23.9v.15c1.64,1,5.9,3.1,15,3.37V18a8.08,8.08,0,0,1-1.2.09C61.43,18.08,59,17.58,56.6,17.77Z"/><path class="cls-6" d="M72.48,16.05c-.36-.22-.88-.78-1.3-.89-.63-.16-.27-.11-.88.27-1.94,1.21-3.18,2.39-5.3,2.71v9.1a92.75,92.75,0,0,0,14.52-.78,21.49,21.49,0,0,0-.37-5C78.55,18.68,74.67,17.37,72.48,16.05Z"/><path class="cls-11" d="M71.25,4c-.12,0-1.68.16-1.49.33-.82-.7-2.24-.77-3.27-1A9.4,9.4,0,0,0,65,3.07V17.73c2.19-.32,3.47-1.5,5.48-2.71.63-.38.25-.43.9-.27a6.71,6.71,0,0,1,1.35.89c2.23,1.32,6.2,2.63,6.89,5.42a20.43,20.43,0,0,1,.38,5v1.67a23.29,23.29,0,0,0-.22,3.13h1.35l.33-1.07c.35-1.12.7-2.28.8-2.81a33.56,33.56,0,0,0,.57-5.28c.49-4.27.73-8.36-2-11.94C77.85,5.92,73.56,3.68,71.25,4Z"/><path class="cls-14" d="M51,8.78c-3.94,3.67-3.37,8.39-3,12.92a29.34,29.34,0,0,0,.58,4.84A9.64,9.64,0,0,1,49,29v1.87h1a7.93,7.93,0,0,0,0-1.09,16.61,16.61,0,0,1,0-2.34c.08-1.27-.08-2.58,0-3.85v-.12a6.93,6.93,0,0,1,6.56-5.94c2.41-.18,4.83.3,7.23.31q.6,0,1.2-.09V3.08C60.13,2.65,54.42,5.6,51,8.78Z"/><path class="cls-15" d="M76,4h0a1.46,1.46,0,0,0-.16-.19Z"/><path class="cls-16" d="M77.21,5.94c-.49-.36-1-.68-1.54-1l-.15.29a20.75,20.75,0,0,1,1.66,1.45,146,146,0,0,0-7.34,13.6C72.51,12.53,74.75,7,75.61,4.9l-.07-.05.24-.34C75.91,4.18,76,4,76,4V3.74C75.31,3.05,72.3.4,65,0h0V23.62a144.83,144.83,0,0,0,20.28-1.45V22A18.65,18.65,0,0,0,77.21,5.94Z"/><path class="cls-16" d="M85.84,22.07A146.34,146.34,0,0,1,64,23.62v3.14c5.22,0,9.6-.14,14-.42a11.22,11.22,0,0,0,5.33-1.52l-.46.54a6.51,6.51,0,0,1-2.11,1.52,9.65,9.65,0,0,1-3.33.91c-4.17.38-8.34.57-12.42.57v1.79c3.82,0,7.73-.17,11.64-.5a9.43,9.43,0,0,0,5.24-2.1l2.22-.24a2.71,2.71,0,0,0,2.54-2.78c-.08-.69-.16-1.38-.23-2.08Z"/><path class="cls-17" d="M43.51,22.45l-.24,2.08a2.73,2.73,0,0,0,2.55,2.78l2.16.24a9.54,9.54,0,0,0,5.22,2.1q5.89.51,11.8.5V28.36q-6.3,0-12.61-.58a9.93,9.93,0,0,1-3.33-.9,6.41,6.41,0,0,1-2.21-1.65,3.76,3.76,0,0,0-.25-.31,11.7,11.7,0,0,0,5.14,1.41c4.41.28,8.84.43,13.26.43V23.62a143.26,143.26,0,0,1-21-1.55Z"/><path class="cls-18" d="M65,26.76v1.6q6.24,0,12.5-.57a9.65,9.65,0,0,0,3.33-.91,6.51,6.51,0,0,0,2.11-1.52l.46-.54a11.29,11.29,0,0,1-5.25,1.52Q71.58,26.76,65,26.76Z"/><path class="cls-19" d="M65,0C57.74.45,54.77,3.13,54.15,3.8A.75.75,0,0,1,54,4h0a2,2,0,0,0,.11-.2.88.88,0,0,1,0,.23l.23.53.23.33h-.06a162.92,162.92,0,0,1,5.69,15.39C58.05,16,55.62,10.8,53,6.65A19.62,19.62,0,0,1,54.6,5.27L54.45,5a15.18,15.18,0,0,0-1.51,1A18.67,18.67,0,0,0,45,22v.14a140.89,140.89,0,0,0,20,1.45l15.63-.89L65,21.9Z"/><path class="cls-20" d="M46.6,24.92a3.76,3.76,0,0,1,.25.31,6.41,6.41,0,0,0,2.21,1.65,9.93,9.93,0,0,0,3.33.9q6.3.59,12.61.58v-1.6c-4.42,0-8.85-.15-13.26-.43A11.7,11.7,0,0,1,46.6,24.92Z"/><path class="cls-21" d="M54.1,4.52,53.87,4a.89.89,0,0,0,0-.23,1.28,1.28,0,0,1-.11.2h0l.48,1,.15.29a19,19,0,0,0-1.65,1.45c2.7,4.15,5.16,9.32,7.35,13.6A159.61,159.61,0,0,0,54.32,4.89,1.37,1.37,0,0,1,54.1,4.52Z"/><path class="cls-21" d="M75.54,4.94l.51-1h0l-.14-.22V4s-.09.19-.22.52a1.25,1.25,0,0,1-.17.39c-.86,2.09-3.1,7.63-5.77,15.38a138.68,138.68,0,0,1,7.3-13.58,20.75,20.75,0,0,0-1.66-1.45Z"/><path class="cls-22" d="M89,84.86v1a2,2,0,0,1-2,2h-.85a2.13,2.13,0,0,1-2.15-2v-1H80a2.35,2.35,0,0,0-1,1.83v3.83a2.36,2.36,0,0,0,2.38,2.34H91.62A2.36,2.36,0,0,0,94,90.52h0V86.69a2.34,2.34,0,0,0-.92-1.83Zm3,6H81v-1H92Zm0-2H81v1H92Z"/><path class="cls-22" d="M86.79,82.86h-.58a1.12,1.12,0,0,0-1.21,1v2a1.13,1.13,0,0,0,1.21,1h.63a1.13,1.13,0,0,0,1.16-1v-2A1.12,1.12,0,0,0,86.79,82.86Z"/><path class="cls-22" d="M45,47.86H37.41a5.84,5.84,0,0,1-1.77,2H16a5.64,5.64,0,0,1-1.77-2H7a3.92,3.92,0,0,0-4,3.81V99.05a3.92,3.92,0,0,0,4,3.81H45a3.94,3.94,0,0,0,4-3.81V51.67A3.94,3.94,0,0,0,45,47.86Z"/><path class="cls-1" d="M44.32,44.86H37.41s0,.64-.41.71v2.16c.42.07.41.13.41.13H45a3.94,3.94,0,0,1,4,3.81V99.05a3.94,3.94,0,0,1-4,3.81H7a3.92,3.92,0,0,1-4-3.8H3V51.76s1.86-3.87,4-3.9h7.23s0-.06-.25-.13V45.57c.25-.07.25-.71.25-.71H6.7A6.58,6.58,0,0,0,0,51.31v48.1a6.58,6.58,0,0,0,6.7,6.45H44.32A6.59,6.59,0,0,0,51,99.41V51.31A6.59,6.59,0,0,0,44.32,44.86Z"/><path class="cls-1" d="M35.24,43.86H34V42.7a1.8,1.8,0,0,0-1.77-1.84H19.78A1.82,1.82,0,0,0,18,42.7v1.16H15.76A1.79,1.79,0,0,0,14,45.48V48a.74.74,0,0,0,0,.21,1.79,1.79,0,0,0,1.76,1.63H35.24A1.81,1.81,0,0,0,37,48.23.74.74,0,0,0,37,48V45.48A1.79,1.79,0,0,0,35.24,43.86Z"/><rect class="cls-23" x="15" y="44.86" width="21" height="3" rx="1.43"/><path class="cls-23" d="M19.92,41.86H31.08a.94.94,0,0,1,.92,1v.05a1,1,0,0,1-.92,1H19.92a1,1,0,0,1-.92-1v-.05A.94.94,0,0,1,19.92,41.86Z"/><path class="cls-24" d="M19.73,65.86H42.35a.48.48,0,0,1,.65.57v0c.07.4-.25.72-.65.4H19.73c-.4.32-.72,0-.73-.4v0A.55.55,0,0,1,19.73,65.86Z"/><path class="cls-1" d="M9,67.86h7v-7H9Zm0-6h6v5H9Z"/><path class="cls-24" d="M19.73,77.86H42.35a.51.51,0,0,1,.65.61v0c.07.4-.25.72-.65.36H19.73c-.4.36-.72,0-.73-.36v0A.59.59,0,0,1,19.73,77.86Z"/><path class="cls-1" d="M9,79.86h7v-7H9Zm0-6h6v5H9Z"/><path class="cls-24" d="M19.73,89.86H42.35a.55.55,0,0,1,.65.65v0c.07.4-.25.72-.65.32H19.73c-.4.4-.72.08-.73-.32v0A.64.64,0,0,1,19.73,89.86Z"/><path class="cls-1" d="M9,91.86h7v-7H9Zm0-6h6v5H9Z"/><path class="cls-8" d="M16.21,80.11a.75.75,0,0,0-1,.4s0,0,0,0l-3.09,8.3L9.25,83.23a.74.74,0,0,0-1-.32h0a.76.76,0,0,0-.32,1L11.62,91a.74.74,0,0,0,.66.4h0a.75.75,0,0,0,.65-.48l3.67-9.86A.74.74,0,0,0,16.21,80.11Z"/><path class="cls-8" d="M16.21,70.32a.74.74,0,0,0-1,.38.14.14,0,0,1,0,.06l-3.09,8.29L9.25,73.44a.72.72,0,0,0-1-.34l0,0a.74.74,0,0,0-.32,1h0l3.68,7.1a.75.75,0,0,0,.66.4h0a.75.75,0,0,0,.65-.48l3.67-9.86a.73.73,0,0,0-.38-1Z"/><path class="cls-8" d="M16.21,56.86a.74.74,0,0,0-1,.37s0,0,0,.06l-3.09,8.3L9.25,60a.73.73,0,0,0-1-.32h0a.74.74,0,0,0-.32,1h0l3.68,7.09a.74.74,0,0,0,.66.4h0a.75.75,0,0,0,.65-.48l3.67-9.85a.73.73,0,0,0-.34-1Z"/></g></g></g></g></g></svg>