<svg xmlns="http://www.w3.org/2000/svg" viewBox="0 0 108.85 105.9"><defs><style>.cls-1{fill:#455256;}.cls-2{fill:#ea811f;}.cls-3{fill:#c66d1c;}.cls-4{fill:#dba18f;}.cls-5{fill:#dbac90;}.cls-6{fill:#f9cfb3;}.cls-7{fill:#e6b494;}.cls-8{fill:#e8bb95;}.cls-9{fill:#d5a378;}.cls-10{fill:#2a2722;}.cls-11{fill:#3d3b36;}.cls-12{fill:#c89374;}.cls-13{fill:#bad1dd;}.cls-14{fill:#9ab9ca;}.cls-15{fill:#4b616c;}.cls-16{fill:#62767f;}.cls-17{fill:#c1daec;}.cls-18{fill:#e4f4ff;}.cls-19{fill:#303e43;}.cls-20{fill:#ecbb1a;}.cls-21{fill:#f2b100;}.cls-22{fill:#f3b70e;}.cls-23{fill:#f7dc54;}.cls-24{fill:#f9cb31;}.cls-25{fill:#f2f3f4;}.cls-26{fill:#d0d5d8;}</style></defs><title>trabajoCover</title><g id="Capa_2" data-name="Capa 2"><g id="_1" data-name="1"><g id="_3" data-name="3"><path class="cls-1" d="M95.23,68.37h0v0l-.07-.09a2.45,2.45,0,0,0-.35.1l-2.74.82v15.9H85.73v-14c-4.75,1.42-9.49,2.85-9.62,3-5.33,6.62-7.2,21.06-7.2,31.3H82.38V86.69H104V76h0V72.89h0A11.21,11.21,0,0,1,95.23,68.37Z"/><path class="cls-2" d="M82.38,86.69h0v18.7h4V96h13.89v9.35h3.89L104,86.69ZM91.3,89H86.38V87.58H91.3Z"/><path class="cls-2" d="M85.73,71.09v14h6.32V69.18l-1.27.38Zm5.57,13H86.38V82.69H91.3Z"/><rect class="cls-1" x="86.38" y="87.58" width="4.92" height="1.41"/><rect class="cls-1" x="86.38" y="82.69" width="4.92" height="1.41"/><rect class="cls-3" x="85.73" y="96.04" width="14.5" height="9.35"/><path class="cls-4" d="M56.62,49.92l1.14,1.13-.45-.49A8.43,8.43,0,0,0,56.62,49.92Z"/><path class="cls-5" d="M61.19,54a9.18,9.18,0,0,1-1.71-1.2L64.76,58V54.42A7.42,7.42,0,0,1,61.19,54Z"/><path class="cls-6" d="M55.07,48.78c.52.37,1.06.74,1.55,1.14l-1.55-1.55Z"/><path class="cls-6" d="M59.48,52.77l-1.72-1.72A19.94,19.94,0,0,0,59.48,52.77Z"/><path class="cls-7" d="M81.29,28.87c-.42.3-.21,1.05-.6,1.3l0,0c-.11.37-.23.73-.33,1.07H79a23.6,23.6,0,0,1,.21-3.13c0-.56,0-1.11,0-1.67a92.83,92.83,0,0,1-14.52.78V54.42h0A7.45,7.45,0,0,0,68.36,54a14.15,14.15,0,0,0,3.89-3.41,19.27,19.27,0,0,1,2.84-2.21A6.64,6.64,0,0,0,76.51,47a7.6,7.6,0,0,0,1.14-2.4c.37-1.31.21-3.37,1.2-4.42s1.78-1.31,2.42-2.62a15.44,15.44,0,0,0,1.34-7.46C82.57,29.37,82.2,28.19,81.29,28.87Z"/><path class="cls-6" d="M50.21,27.71a23.79,23.79,0,0,0,0,2.67c0,.2,0,.53,0,.88H48.52c0-.29,0-.55,0-.73,0-.41,0-.78,0-1.14a.78.78,0,0,0-.27-.52c-.91-.68-1.29.5-1.32,1.2a15.55,15.55,0,0,0,1.33,7.46c.64,1.31,1.54,1.68,2.43,2.62s.83,3.11,1.19,4.42A7.84,7.84,0,0,0,53.05,47a8.12,8.12,0,0,0,2,1.81v-.41l1.55,1.55h0a8.43,8.43,0,0,1,.69.64l.45.49h0l1.72,1.72h0A9.18,9.18,0,0,0,61.19,54a7.42,7.42,0,0,0,3.57.45V27.24C56,27,51.83,25,50.24,24,50.14,25.21,50.28,26.48,50.21,27.71Z"/><path class="cls-8" d="M56.61,17.92a6.8,6.8,0,0,0-6.36,5.94s0,.08,0,.12c1.59,1,5.71,3,14.52,3.26v-9.1a8.28,8.28,0,0,1-1.16.09C61.27,18.22,58.94,17.74,56.61,17.92Z"/><path class="cls-9" d="M72.25,16.05c-.36-.22-.89-.78-1.3-.89-.64-.16-.28-.11-.89.27-1.94,1.21-3.18,2.39-5.3,2.71v9.1a92.83,92.83,0,0,0,14.52-.78,20.88,20.88,0,0,0-.37-5C78.29,18.68,74.41,17.37,72.25,16.05Z"/><path class="cls-10" d="M70.83,4.37c-.13,0-1.64.16-1.45.33-.79-.72-2.19-.77-3.17-1a9.94,9.94,0,0,0-1.45-.22V18.14c2.12-.32,3.36-1.5,5.3-2.71.61-.38.25-.43.89-.27.41.11.94.67,1.3.89,2.16,1.32,6,2.63,6.66,5.42a20.88,20.88,0,0,1,.37,5c0,.56,0,1.11,0,1.67A23.6,23.6,0,0,0,79,31.26h1.3c.1-.34.22-.7.33-1.07.34-1.12.68-2.28.78-2.81A35.71,35.71,0,0,0,82,22.1c.47-4.27.7-8.36-1.93-11.94C77.24,6.33,73.06,4.09,70.83,4.37Z"/><path class="cls-11" d="M50.54,9.18c-4,3.67-3.43,8.39-3,12.92a27.71,27.71,0,0,0,.58,4.84,9.73,9.73,0,0,1,.39,2.45c0,.36,0,.73,0,1.14,0,.18,0,.44,0,.73h1.67c0-.35,0-.68,0-.88a23.79,23.79,0,0,1,0-2.67c.07-1.23-.07-2.5,0-3.73,0,0,0-.08,0-.12a6.8,6.8,0,0,1,6.36-5.94c2.33-.18,4.66.3,7,.31a8.28,8.28,0,0,0,1.16-.09V3.48C59.8,3.05,54,6,50.54,9.18Z"/><path class="cls-8" d="M57.76,51.05l-1.14-1.13c-.49-.4-1-.77-1.55-1.14v4.88l9.69,8.74V58l-5.28-5.26A19.94,19.94,0,0,1,57.76,51.05Z"/><path class="cls-9" d="M64.76,62.4l0,0a.39.39,0,0,0,.53,0l2-1.82L64.76,58Z"/><path class="cls-12" d="M68.36,54a7.45,7.45,0,0,1-3.58.45h0V58l2.59,2.58,7.74-7V48.35a19.27,19.27,0,0,0-2.84,2.21A14.15,14.15,0,0,1,68.36,54Z"/><path class="cls-13" d="M62.14,66.86l-4,5.62,1.63,4.83L60.89,81,63.3,70.08a2,2,0,0,0-.19-1.39Z"/><path class="cls-14" d="M67,68.69a2,2,0,0,0-.19,1.39l2.35,10.68,1.17-3.45,1.53-4.52.1-.33-4-5.6Z"/><path class="cls-15" d="M67,68.69l1-1.83-1-1.39-1.57-2.21h-.67V93.72l4.41-13L66.83,70.08A2,2,0,0,1,67,68.69Z"/><path class="cls-16" d="M64.76,63.18s0,0,0,0l0,.06-.94,1.33-1.61,2.27,1,1.83a2,2,0,0,1,.19,1.39L60.89,81l3.87,12.7V63.26h.67l0-.06A.4.4,0,0,0,64.76,63.18Z"/><path class="cls-16" d="M47,70l5.2-2.19-6-2.94A43.24,43.24,0,0,1,48,60.42c-7.16,2.17-18.39,5.47-18.62,5.75-6.77,8.4-7.84,26.73-7.84,39.73H65L64.76,104Z"/><path class="cls-15" d="M82.16,60.42a43.76,43.76,0,0,1,1.72,4.43l-6,2.94L83.1,70,64.93,104.36l-.17-.32v.64s0,.47,0,1.22h44.07c0-14.62-.46-32.76-8.06-39.73C100.52,65.93,89.32,62.59,82.16,60.42Z"/><polygon class="cls-15" points="71.88 72.79 71.98 72.47 71.98 72.46 71.88 72.79"/><path class="cls-17" d="M75.09,53.64l-7.74,7-2,1.82a.39.39,0,0,1-.53,0l0,0v.51a1.49,1.49,0,0,1,.14-.12c.34-.23.65.15.82.47h-.29L67,65.47l1,1.39,4,5.6h0l.6-1.76,4-11.95.47.14-1.84-5.4Z"/><path class="cls-18" d="M64.9,62.79a1.49,1.49,0,0,0-.14.12V62.4l-9.69-8.74-.18-.16L53,58.9l.48-.14L57,69.1l.61,1.8.53,1.58,4-5.62,1.61-2.27.94-1.33,0-.06s0,0,0,0a.4.4,0,0,1,.63,0l0,.06h.29C65.55,62.94,65.24,62.56,64.9,62.79Z"/><path class="cls-1" d="M59.77,77.31l-1.63-4.83-.53-1.58L57,69.1,53.52,58.76,53,58.9,48,60.42a44.15,44.15,0,0,0-1.71,4.43l6,2.94L47,70,64.76,104V93.7L60.89,81Z"/><path class="cls-19" d="M82.16,60.42,77.08,58.9l-.47-.14-4,11.95L72,72.47l-.1.32-1.53,4.52-1.17,3.45-4.41,13V104l.17.32L83.1,70l-5.2-2.19,6-2.94A44.69,44.69,0,0,0,82.16,60.42Z"/><path class="cls-20" d="M75.92,4l0,0-.16-.19C75.87,3.86,75.9,3.93,75.92,4Z"/><path class="cls-20" d="M77,5.94c-.49-.36-1-.68-1.54-1l-.15.29a20.38,20.38,0,0,1,1.65,1.45c-2.68,4.15-5.16,9.32-7.33,13.6C72.27,12.53,74.51,7,75.38,4.9l-.08-.05.24-.34L75.76,4a1.51,1.51,0,0,1,0-.25C75.1,3.05,72.08.4,64.77,0h0V23.62a144.43,144.43,0,0,0,20.29-1.45c0-.05,0-.09,0-.14A18.65,18.65,0,0,0,77,5.94Z"/><path class="cls-21" d="M85.73,22.07a144,144,0,0,1-21,1.55v3.14q6.57,0,13.15-.42a11.18,11.18,0,0,0,5.25-1.52l-.46.54a6.55,6.55,0,0,1-2.11,1.52,9.75,9.75,0,0,1-3.32.91q-6.26.57-12.51.57v1.79q5.86,0,11.72-.5a9.41,9.41,0,0,0,5.24-2.1l2.22-.24a2.73,2.73,0,0,0,2.55-2.78l-.24-2.08Z"/><path class="cls-22" d="M43.28,22.45,43,24.53a2.72,2.72,0,0,0,2.54,2.78l2.16.24A9.52,9.52,0,0,0,53,29.65q5.91.51,11.8.5V28.36q-6.3,0-12.61-.58a9.8,9.8,0,0,1-3.33-.9,6.47,6.47,0,0,1-2.21-1.65l-.24-.31a11.69,11.69,0,0,0,5.13,1.41q6.63.42,13.26.43V23.62a144,144,0,0,1-21-1.55Z"/><path class="cls-20" d="M64.76,26.76v1.6q6.26,0,12.51-.57a9.75,9.75,0,0,0,3.32-.91,6.55,6.55,0,0,0,2.11-1.52l.46-.54a11.18,11.18,0,0,1-5.25,1.52Q71.34,26.76,64.76,26.76Z"/><path class="cls-23" d="M64.76,0c-7.36.41-10.37,3.09-11,3.76a1.76,1.76,0,0,1-.14.17l0,0a1.36,1.36,0,0,0,.12-.2c0,.14,0,.23,0,.23s.08.2.23.53l.22.33-.06,0a157.17,157.17,0,0,1,5.77,15.39,153.5,153.5,0,0,0-7.35-13.6,20.5,20.5,0,0,1,1.66-1.45l-.15-.29a17.65,17.65,0,0,0-1.54,1A18.6,18.6,0,0,0,44.48,22s0,.1,0,.14a144.15,144.15,0,0,0,20.27,1.45l15.86-.89-15.86-.84Z"/><path class="cls-24" d="M46.37,24.92l.24.31a6.47,6.47,0,0,0,2.21,1.65,9.8,9.8,0,0,0,3.33.9q6.32.59,12.61.58v-1.6q-6.63,0-13.26-.43A11.69,11.69,0,0,1,46.37,24.92Z"/><path class="cls-22" d="M54,4.52c-.15-.33-.23-.53-.23-.53s0-.09,0-.23a1.36,1.36,0,0,1-.12.2l0,0,.49,1,.15.29a20.5,20.5,0,0,0-1.66,1.45,153.5,153.5,0,0,1,7.35,13.6A157.17,157.17,0,0,0,54.16,4.89Z"/><path class="cls-21" d="M75.44,4.94l.5-1,0,0s0-.1-.13-.22a1.51,1.51,0,0,0,0,.25l-.22.52c-.05.11-.1.24-.16.39-.87,2.09-3.11,7.63-5.77,15.38,2.17-4.28,4.65-9.45,7.33-13.6a20.38,20.38,0,0,0-1.65-1.45Z"/><path class="cls-25" d="M88.88,84.61v1a2.05,2.05,0,0,1-2,2h-.67a2,2,0,0,1-2-2v-1h-4a2.35,2.35,0,0,0-.9,1.83v3.81a2.33,2.33,0,0,0,2.33,2.33h10a2.33,2.33,0,0,0,2.33-2.33V86.44a2.32,2.32,0,0,0-.9-1.83Zm3.14,6H81V90H92Zm0-1.43H81V88.6H92Z"/><path class="cls-25" d="M86.84,82.56h-.67a1.2,1.2,0,0,0-1.28,1.08V85.8a1.2,1.2,0,0,0,1.28,1.08h.67a1.19,1.19,0,0,0,1.27-1.08V83.64A1.19,1.19,0,0,0,86.84,82.56Z"/><path class="cls-25" d="M44.32,47.72H37.09a1.77,1.77,0,0,1-1.77,1.51H15.7a1.76,1.76,0,0,1-1.77-1.51H6.7a3.92,3.92,0,0,0-4,3.82V99.13a3.92,3.92,0,0,0,4,3.83H44.32a3.93,3.93,0,0,0,4-3.83V51.54A3.93,3.93,0,0,0,44.32,47.72Z"/><path class="cls-1" d="M44.32,45.16H37.09a1.23,1.23,0,0,1,0,.19v2.17a1.36,1.36,0,0,1,0,.2h7.23a3.93,3.93,0,0,1,4,3.82V99.13a3.93,3.93,0,0,1-4,3.83H6.7a3.92,3.92,0,0,1-4-3.83V51.54a3.92,3.92,0,0,1,4-3.82h7.23a1.36,1.36,0,0,1,0-.2V45.35a1.23,1.23,0,0,1,0-.19H6.7A6.55,6.55,0,0,0,0,51.54V99.13a6.55,6.55,0,0,0,6.7,6.39H44.32A6.56,6.56,0,0,0,51,99.13V51.54A6.56,6.56,0,0,0,44.32,45.16Z"/><path class="cls-1" d="M35.32,43.64H33.57V42.56a1.75,1.75,0,0,0-1.79-1.71H19.23a1.76,1.76,0,0,0-1.79,1.71v1.08H15.7a1.76,1.76,0,0,0-1.77,1.52,1.23,1.23,0,0,0,0,.19v2.17a1.36,1.36,0,0,0,0,.2,1.76,1.76,0,0,0,1.77,1.51H35.32a1.77,1.77,0,0,0,1.77-1.51,1.36,1.36,0,0,0,0-.2V45.35a1.23,1.23,0,0,0,0-.19A1.76,1.76,0,0,0,35.32,43.64Z"/><rect class="cls-26" x="15.02" y="45.02" width="20.99" height="2.93" rx="1.43"/><rect class="cls-26" x="18.8" y="41.51" width="13.42" height="1.95" rx="0.95"/><rect class="cls-16" x="18.69" y="65.5" width="24.06" height="1.47" rx="0.72"/><path class="cls-1" d="M8.28,67.3h7.35V60.11H8.28ZM9.16,61h5.59v5.43H9.16Z"/><rect class="cls-16" x="18.69" y="77.54" width="24.06" height="1.47" rx="0.72"/><path class="cls-1" d="M8.28,79.34h7.35V72.15H8.28ZM9.16,73h5.59v5.43H9.16Z"/><rect class="cls-16" x="18.69" y="89.58" width="24.06" height="1.47" rx="0.72"/><path class="cls-1" d="M8.28,91.38h7.35V84.19H8.28Zm.88-6.31h5.59V90.5H9.16Z"/><path class="cls-2" d="M15.89,79.9a.74.74,0,0,0-1,.43l-3.09,8.3L8.93,83a.73.73,0,0,0-1-.31.74.74,0,0,0-.32,1l3.68,7.1a.75.75,0,0,0,.66.4h0a.73.73,0,0,0,.65-.47l3.67-9.86A.73.73,0,0,0,15.89,79.9Z"/><path class="cls-2" d="M15.89,70.11a.74.74,0,0,0-1,.43l-3.09,8.3L8.93,73.22a.73.73,0,0,0-1-.31.74.74,0,0,0-.32,1L11.3,81a.74.74,0,0,0,.66.4h0a.74.74,0,0,0,.65-.48l3.67-9.85A.73.73,0,0,0,15.89,70.11Z"/><path class="cls-2" d="M15.89,56.64a.75.75,0,0,0-1,.44l-3.09,8.3L8.93,59.76a.73.73,0,0,0-1-.32.75.75,0,0,0-.32,1l3.68,7.09a.74.74,0,0,0,.66.4h0a.75.75,0,0,0,.65-.48l3.67-9.86A.74.74,0,0,0,15.89,56.64Z"/></g></g></g></svg>